solid OpenSCAD_Model
  facet normal 0 0 -1
    outer loop
      vertex 84.95 3.02071 24.1
      vertex 83.55 3.6006 24.1
      vertex 84.95 52.9793 24.1
    endloop
  endfacet
  facet normal 0 0 -1
    outer loop
      vertex 81.9793 0.0500031 24.1
      vertex 83.55 3.6006 24.1
      vertex 84.95 3.02071 24.1
    endloop
  endfacet
  facet normal 0 0 -1
    outer loop
      vertex 81.9793 0.0500031 24.1
      vertex 81.3994 1.45 24.1
      vertex 83.55 3.6006 24.1
    endloop
  endfacet
  facet normal 0 0 -1
    outer loop
      vertex 81.9793 0.0500031 24.1
      vertex 3.6006 1.45 24.1
      vertex 81.3994 1.45 24.1
    endloop
  endfacet
  facet normal 0 0 -1
    outer loop
      vertex 3.02071 0.0500031 24.1
      vertex 3.6006 1.45 24.1
      vertex 81.9793 0.0500031 24.1
    endloop
  endfacet
  facet normal 0 0 -1
    outer loop
      vertex 3.02071 0.0500031 24.1
      vertex 1.45 3.6006 24.1
      vertex 3.6006 1.45 24.1
    endloop
  endfacet
  facet normal -0 0 -1
    outer loop
      vertex 1.45 3.6006 24.1
      vertex 0.0500031 3.02071 24.1
      vertex 1.45 52.3994 24.1
    endloop
  endfacet
  facet normal 0 0 -1
    outer loop
      vertex 0.0500031 3.02071 24.1
      vertex 1.45 3.6006 24.1
      vertex 3.02071 0.0500031 24.1
    endloop
  endfacet
  facet normal 0 0 -1
    outer loop
      vertex 83.55 52.3994 24.1
      vertex 84.95 52.9793 24.1
      vertex 83.55 3.6006 24.1
    endloop
  endfacet
  facet normal 0 0 -1
    outer loop
      vertex 83.55 52.3994 24.1
      vertex 81.9793 55.95 24.1
      vertex 84.95 52.9793 24.1
    endloop
  endfacet
  facet normal 0 0 -1
    outer loop
      vertex 81.3994 54.55 24.1
      vertex 81.9793 55.95 24.1
      vertex 83.55 52.3994 24.1
    endloop
  endfacet
  facet normal 0 0 -1
    outer loop
      vertex 3.6006 54.55 24.1
      vertex 81.9793 55.95 24.1
      vertex 81.3994 54.55 24.1
    endloop
  endfacet
  facet normal 0 0 -1
    outer loop
      vertex 3.6006 54.55 24.1
      vertex 3.02071 55.95 24.1
      vertex 81.9793 55.95 24.1
    endloop
  endfacet
  facet normal 0 0 -1
    outer loop
      vertex 1.45 52.3994 24.1
      vertex 3.02071 55.95 24.1
      vertex 3.6006 54.55 24.1
    endloop
  endfacet
  facet normal 0 0 -1
    outer loop
      vertex 1.45 52.3994 24.1
      vertex 0.0500031 52.9793 24.1
      vertex 3.02071 55.95 24.1
    endloop
  endfacet
  facet normal 0 0 -1
    outer loop
      vertex 0.0500031 52.9793 24.1
      vertex 1.45 52.3994 24.1
      vertex 0.0500031 3.02071 24.1
    endloop
  endfacet
  facet normal 0 0 -1
    outer loop
      vertex 85.35 2.85503 24.9
      vertex 84.95 3.02071 24.9
      vertex 85.35 53.145 24.9
    endloop
  endfacet
  facet normal 0 0 -1
    outer loop
      vertex 82.145 -0.350006 24.9
      vertex 84.95 3.02071 24.9
      vertex 85.35 2.85503 24.9
    endloop
  endfacet
  facet normal 0 0 -1
    outer loop
      vertex 82.145 -0.350006 24.9
      vertex 81.9793 0.0500031 24.9
      vertex 84.95 3.02071 24.9
    endloop
  endfacet
  facet normal 0 0 -1
    outer loop
      vertex 82.145 -0.350006 24.9
      vertex 3.02071 0.0500031 24.9
      vertex 81.9793 0.0500031 24.9
    endloop
  endfacet
  facet normal 0 0 -1
    outer loop
      vertex 2.85503 -0.350006 24.9
      vertex 3.02071 0.0500031 24.9
      vertex 82.145 -0.350006 24.9
    endloop
  endfacet
  facet normal 0 0 -1
    outer loop
      vertex 2.85503 -0.350006 24.9
      vertex 0.0500031 3.02071 24.9
      vertex 3.02071 0.0500031 24.9
    endloop
  endfacet
  facet normal -0 0 -1
    outer loop
      vertex 0.0500031 3.02071 24.9
      vertex -0.350006 2.85503 24.9
      vertex 0.0500031 52.9793 24.9
    endloop
  endfacet
  facet normal 0 0 -1
    outer loop
      vertex -0.350006 2.85503 24.9
      vertex 0.0500031 3.02071 24.9
      vertex 2.85503 -0.350006 24.9
    endloop
  endfacet
  facet normal 0 0 -1
    outer loop
      vertex 84.95 52.9793 24.9
      vertex 85.35 53.145 24.9
      vertex 84.95 3.02071 24.9
    endloop
  endfacet
  facet normal 0 0 -1
    outer loop
      vertex 84.95 52.9793 24.9
      vertex 82.145 56.35 24.9
      vertex 85.35 53.145 24.9
    endloop
  endfacet
  facet normal 0 0 -1
    outer loop
      vertex 81.9793 55.95 24.9
      vertex 82.145 56.35 24.9
      vertex 84.95 52.9793 24.9
    endloop
  endfacet
  facet normal 0 0 -1
    outer loop
      vertex 3.02071 55.95 24.9
      vertex 82.145 56.35 24.9
      vertex 81.9793 55.95 24.9
    endloop
  endfacet
  facet normal 0 0 -1
    outer loop
      vertex 3.02071 55.95 24.9
      vertex 2.85503 56.35 24.9
      vertex 82.145 56.35 24.9
    endloop
  endfacet
  facet normal 0 0 -1
    outer loop
      vertex 0.0500031 52.9793 24.9
      vertex 2.85503 56.35 24.9
      vertex 3.02071 55.95 24.9
    endloop
  endfacet
  facet normal 0 0 -1
    outer loop
      vertex 0.0500031 52.9793 24.9
      vertex -0.350006 53.145 24.9
      vertex 2.85503 56.35 24.9
    endloop
  endfacet
  facet normal 0 0 -1
    outer loop
      vertex -0.350006 53.145 24.9
      vertex 0.0500031 52.9793 24.9
      vertex -0.350006 2.85503 24.9
    endloop
  endfacet
  facet normal 1 -0 0
    outer loop
      vertex 84.95 3.02071 24.9
      vertex 84.95 52.9793 24.1
      vertex 84.95 52.9793 24.9
    endloop
  endfacet
  facet normal 1 0 0
    outer loop
      vertex 84.95 52.9793 24.1
      vertex 84.95 3.02071 24.9
      vertex 84.95 3.02071 24.1
    endloop
  endfacet
  facet normal 0.707107 0.707107 0
    outer loop
      vertex 84.95 52.9793 24.9
      vertex 81.9793 55.95 24.1
      vertex 81.9793 55.95 24.9
    endloop
  endfacet
  facet normal 0.707107 0.707107 0
    outer loop
      vertex 81.9793 55.95 24.1
      vertex 84.95 52.9793 24.9
      vertex 84.95 52.9793 24.1
    endloop
  endfacet
  facet normal 0 1 -0
    outer loop
      vertex 81.9793 55.95 24.1
      vertex 3.02071 55.95 24.9
      vertex 81.9793 55.95 24.9
    endloop
  endfacet
  facet normal 0 1 0
    outer loop
      vertex 3.02071 55.95 24.9
      vertex 81.9793 55.95 24.1
      vertex 3.02071 55.95 24.1
    endloop
  endfacet
  facet normal -0.707106 0.707108 0
    outer loop
      vertex 0.0500031 52.9793 24.1
      vertex 3.02071 55.95 24.9
      vertex 3.02071 55.95 24.1
    endloop
  endfacet
  facet normal -0.707106 0.707108 0
    outer loop
      vertex 3.02071 55.95 24.9
      vertex 0.0500031 52.9793 24.1
      vertex 0.0500031 52.9793 24.9
    endloop
  endfacet
  facet normal -1 0 0
    outer loop
      vertex 0.0500031 3.02071 24.1
      vertex 0.0500031 52.9793 24.9
      vertex 0.0500031 52.9793 24.1
    endloop
  endfacet
  facet normal -1 -0 0
    outer loop
      vertex 0.0500031 52.9793 24.9
      vertex 0.0500031 3.02071 24.1
      vertex 0.0500031 3.02071 24.9
    endloop
  endfacet
  facet normal -0.707107 -0.707107 0
    outer loop
      vertex 3.02071 0.0500031 24.1
      vertex 0.0500031 3.02071 24.9
      vertex 0.0500031 3.02071 24.1
    endloop
  endfacet
  facet normal -0.707107 -0.707107 0
    outer loop
      vertex 0.0500031 3.02071 24.9
      vertex 3.02071 0.0500031 24.1
      vertex 3.02071 0.0500031 24.9
    endloop
  endfacet
  facet normal 0 -1 0
    outer loop
      vertex 3.02071 0.0500031 24.1
      vertex 81.9793 0.0500031 24.9
      vertex 3.02071 0.0500031 24.9
    endloop
  endfacet
  facet normal 0 -1 -0
    outer loop
      vertex 81.9793 0.0500031 24.9
      vertex 3.02071 0.0500031 24.1
      vertex 81.9793 0.0500031 24.1
    endloop
  endfacet
  facet normal 0.707108 -0.707106 0
    outer loop
      vertex 81.9793 0.0500031 24.9
      vertex 84.95 3.02071 24.1
      vertex 84.95 3.02071 24.9
    endloop
  endfacet
  facet normal 0.707108 -0.707106 0
    outer loop
      vertex 84.95 3.02071 24.1
      vertex 81.9793 0.0500031 24.9
      vertex 81.9793 0.0500031 24.1
    endloop
  endfacet
  facet normal 0.707107 0.707107 0
    outer loop
      vertex 3.6006 1.45 27.1
      vertex 1.45 3.6006 24.1
      vertex 1.45 3.6006 27.1
    endloop
  endfacet
  facet normal 0.707107 0.707107 0
    outer loop
      vertex 1.45 3.6006 24.1
      vertex 3.6006 1.45 27.1
      vertex 3.6006 1.45 24.1
    endloop
  endfacet
  facet normal 1 -0 0
    outer loop
      vertex 1.45 3.6006 27.1
      vertex 1.45 52.3994 24.1
      vertex 1.45 52.3994 27.1
    endloop
  endfacet
  facet normal 1 0 0
    outer loop
      vertex 1.45 52.3994 24.1
      vertex 1.45 3.6006 27.1
      vertex 1.45 3.6006 24.1
    endloop
  endfacet
  facet normal 0.707107 -0.707107 0
    outer loop
      vertex 1.45 52.3994 27.1
      vertex 3.6006 54.55 24.1
      vertex 3.6006 54.55 27.1
    endloop
  endfacet
  facet normal 0.707107 -0.707107 0
    outer loop
      vertex 3.6006 54.55 24.1
      vertex 1.45 52.3994 27.1
      vertex 1.45 52.3994 24.1
    endloop
  endfacet
  facet normal 0 -1 0
    outer loop
      vertex 3.6006 54.55 27.1
      vertex 6 54.55 27
      vertex 6 54.55 27.1
    endloop
  endfacet
  facet normal 0 -1 -0
    outer loop
      vertex 6 54.55 27
      vertex 3.6006 54.55 24.1
      vertex 59 54.55 27
    endloop
  endfacet
  facet normal 0 -1 0
    outer loop
      vertex 3.6006 54.55 24.1
      vertex 6 54.55 27
      vertex 3.6006 54.55 27.1
    endloop
  endfacet
  facet normal 0 -1 0
    outer loop
      vertex 59 54.55 27
      vertex 81.3994 54.55 27.1
      vertex 59 54.55 27.1
    endloop
  endfacet
  facet normal 0 -1 0
    outer loop
      vertex 81.3994 54.55 24.1
      vertex 59 54.55 27
      vertex 3.6006 54.55 24.1
    endloop
  endfacet
  facet normal 0 -1 0
    outer loop
      vertex 59 54.55 27
      vertex 81.3994 54.55 24.1
      vertex 81.3994 54.55 27.1
    endloop
  endfacet
  facet normal -0.707107 -0.707107 0
    outer loop
      vertex 83.55 52.3994 24.1
      vertex 81.3994 54.55 27.1
      vertex 81.3994 54.55 24.1
    endloop
  endfacet
  facet normal -0.707107 -0.707107 0
    outer loop
      vertex 81.3994 54.55 27.1
      vertex 83.55 52.3994 24.1
      vertex 83.55 52.3994 27.1
    endloop
  endfacet
  facet normal -1 0 0
    outer loop
      vertex 83.55 3.6006 24.1
      vertex 83.55 52.3994 27.1
      vertex 83.55 52.3994 24.1
    endloop
  endfacet
  facet normal -1 -0 0
    outer loop
      vertex 83.55 52.3994 27.1
      vertex 83.55 3.6006 24.1
      vertex 83.55 3.6006 27.1
    endloop
  endfacet
  facet normal -0.707107 0.707107 0
    outer loop
      vertex 81.3994 1.45 24.1
      vertex 83.55 3.6006 27.1
      vertex 83.55 3.6006 24.1
    endloop
  endfacet
  facet normal -0.707107 0.707107 0
    outer loop
      vertex 83.55 3.6006 27.1
      vertex 81.3994 1.45 24.1
      vertex 81.3994 1.45 27.1
    endloop
  endfacet
  facet normal 0 1 -0
    outer loop
      vertex 81.3994 1.45 24.1
      vertex 3.6006 1.45 27.1
      vertex 81.3994 1.45 27.1
    endloop
  endfacet
  facet normal 0 1 0
    outer loop
      vertex 3.6006 1.45 27.1
      vertex 81.3994 1.45 24.1
      vertex 3.6006 1.45 24.1
    endloop
  endfacet
  facet normal 1 -0 0
    outer loop
      vertex 85.35 2.85503 27.1
      vertex 85.35 53.145 24.9
      vertex 85.35 53.145 27.1
    endloop
  endfacet
  facet normal 1 0 0
    outer loop
      vertex 85.35 53.145 24.9
      vertex 85.35 2.85503 27.1
      vertex 85.35 2.85503 24.9
    endloop
  endfacet
  facet normal 0.707107 0.707107 0
    outer loop
      vertex 85.35 53.145 27.1
      vertex 82.145 56.35 24.9
      vertex 82.145 56.35 27.1
    endloop
  endfacet
  facet normal 0.707107 0.707107 0
    outer loop
      vertex 82.145 56.35 24.9
      vertex 85.35 53.145 27.1
      vertex 85.35 53.145 24.9
    endloop
  endfacet
  facet normal 0 1 0
    outer loop
      vertex 82.145 56.35 27.1
      vertex 59 56.35 27
      vertex 59 56.35 27.1
    endloop
  endfacet
  facet normal 0 1 0
    outer loop
      vertex 2.85503 56.35 24.9
      vertex 59 56.35 27
      vertex 82.145 56.35 24.9
    endloop
  endfacet
  facet normal 0 1 -0
    outer loop
      vertex 82.145 56.35 24.9
      vertex 59 56.35 27
      vertex 82.145 56.35 27.1
    endloop
  endfacet
  facet normal 0 1 -0
    outer loop
      vertex 6 56.35 27
      vertex 2.85503 56.35 27.1
      vertex 6 56.35 27.1
    endloop
  endfacet
  facet normal 0 1 0
    outer loop
      vertex 6 56.35 27
      vertex 2.85503 56.35 24.9
      vertex 2.85503 56.35 27.1
    endloop
  endfacet
  facet normal 0 1 0
    outer loop
      vertex 59 56.35 27
      vertex 2.85503 56.35 24.9
      vertex 6 56.35 27
    endloop
  endfacet
  facet normal -0.707103 0.707111 0
    outer loop
      vertex -0.350006 53.145 24.9
      vertex 2.85503 56.35 27.1
      vertex 2.85503 56.35 24.9
    endloop
  endfacet
  facet normal -0.707103 0.707111 0
    outer loop
      vertex 2.85503 56.35 27.1
      vertex -0.350006 53.145 24.9
      vertex -0.350006 53.145 27.1
    endloop
  endfacet
  facet normal -1 0 0
    outer loop
      vertex -0.350006 2.85503 24.9
      vertex -0.350006 53.145 27.1
      vertex -0.350006 53.145 24.9
    endloop
  endfacet
  facet normal -1 -0 0
    outer loop
      vertex -0.350006 53.145 27.1
      vertex -0.350006 2.85503 24.9
      vertex -0.350006 2.85503 27.1
    endloop
  endfacet
  facet normal -0.707107 -0.707107 0
    outer loop
      vertex 2.85503 -0.350006 24.9
      vertex -0.350006 2.85503 27.1
      vertex -0.350006 2.85503 24.9
    endloop
  endfacet
  facet normal -0.707107 -0.707107 0
    outer loop
      vertex -0.350006 2.85503 27.1
      vertex 2.85503 -0.350006 24.9
      vertex 2.85503 -0.350006 27.1
    endloop
  endfacet
  facet normal 0 -1 0
    outer loop
      vertex 2.85503 -0.350006 24.9
      vertex 82.145 -0.350006 27.1
      vertex 2.85503 -0.350006 27.1
    endloop
  endfacet
  facet normal 0 -1 -0
    outer loop
      vertex 82.145 -0.350006 27.1
      vertex 2.85503 -0.350006 24.9
      vertex 82.145 -0.350006 24.9
    endloop
  endfacet
  facet normal 0.707111 -0.707103 0
    outer loop
      vertex 82.145 -0.350006 27.1
      vertex 85.35 2.85503 24.9
      vertex 85.35 2.85503 27.1
    endloop
  endfacet
  facet normal 0.707111 -0.707103 0
    outer loop
      vertex 85.35 2.85503 24.9
      vertex 82.145 -0.350006 27.1
      vertex 82.145 -0.350006 24.9
    endloop
  endfacet
  facet normal 0 0 1
    outer loop
      vertex 6 58.65 29.5
      vertex 1.90233 58.65 29.5
      vertex 6 53 29.5
    endloop
  endfacet
  facet normal 0 0 1
    outer loop
      vertex 37.9558 28 29.5
      vertex 15.1692 7 29.5
      vertex 42.5 25.0062 29.5
    endloop
  endfacet
  facet normal 0 -0 1
    outer loop
      vertex 15.1692 7 29.5
      vertex 37.9558 28 29.5
      vertex 7 7.60556 29.5
    endloop
  endfacet
  facet normal 0 0 1
    outer loop
      vertex 47.0442 28 29.5
      vertex 69.8308 7 29.5
      vertex 78 7.60556 29.5
    endloop
  endfacet
  facet normal 0 0 1
    outer loop
      vertex 42.5 25.0062 29.5
      vertex 47.0442 28 29.5
      vertex 42.5 30.9938 29.5
    endloop
  endfacet
  facet normal 0 0 1
    outer loop
      vertex 47.0442 28 29.5
      vertex 42.5 25.0062 29.5
      vertex 69.8308 7 29.5
    endloop
  endfacet
  facet normal 0 0 1
    outer loop
      vertex 42.5 30.9938 29.5
      vertex 37.9558 28 29.5
      vertex 42.5 25.0062 29.5
    endloop
  endfacet
  facet normal 0 0 1
    outer loop
      vertex 15.1692 49 29.5
      vertex 37.9558 28 29.5
      vertex 42.5 30.9938 29.5
    endloop
  endfacet
  facet normal 0 0 1
    outer loop
      vertex 37.9558 28 29.5
      vertex 15.1692 49 29.5
      vertex 7 48.3944 29.5
    endloop
  endfacet
  facet normal 0 0 1
    outer loop
      vertex 78 48.3944 29.5
      vertex 87.65 54.0977 29.5
      vertex 83.0977 58.65 29.5
    endloop
  endfacet
  facet normal 0 0 1
    outer loop
      vertex 87.65 54.0977 29.5
      vertex 78 48.3944 29.5
      vertex 87.65 1.90233 29.5
    endloop
  endfacet
  facet normal -0 0 1
    outer loop
      vertex 78 7.60556 29.5
      vertex 87.65 1.90233 29.5
      vertex 78 48.3944 29.5
    endloop
  endfacet
  facet normal 0 0 1
    outer loop
      vertex 83.0977 58.65 29.5
      vertex 69.8308 49 29.5
      vertex 78 48.3944 29.5
    endloop
  endfacet
  facet normal -0 0 1
    outer loop
      vertex 59 58.65 29.5
      vertex 69.8308 49 29.5
      vertex 83.0977 58.65 29.5
    endloop
  endfacet
  facet normal -0 0 1
    outer loop
      vertex 59 53 29.5
      vertex 69.8308 49 29.5
      vertex 59 58.65 29.5
    endloop
  endfacet
  facet normal 0 0 1
    outer loop
      vertex 59 53 29.5
      vertex 15.1692 49 29.5
      vertex 69.8308 49 29.5
    endloop
  endfacet
  facet normal -0 0 1
    outer loop
      vertex 6 53 29.5
      vertex 15.1692 49 29.5
      vertex 59 53 29.5
    endloop
  endfacet
  facet normal 0 0 1
    outer loop
      vertex -2.64999 54.0977 29.5
      vertex 7 48.3944 29.5
      vertex 6 53 29.5
    endloop
  endfacet
  facet normal 0 0 1
    outer loop
      vertex 15.1692 49 29.5
      vertex 6 53 29.5
      vertex 7 48.3944 29.5
    endloop
  endfacet
  facet normal 0 0 1
    outer loop
      vertex 87.65 1.90233 29.5
      vertex 78 7.60556 29.5
      vertex 83.0977 -2.64999 29.5
    endloop
  endfacet
  facet normal -0 0 1
    outer loop
      vertex 69.8308 7 29.5
      vertex 83.0977 -2.64999 29.5
      vertex 78 7.60556 29.5
    endloop
  endfacet
  facet normal -0 0 1
    outer loop
      vertex 15.1692 7 29.5
      vertex 83.0977 -2.64999 29.5
      vertex 69.8308 7 29.5
    endloop
  endfacet
  facet normal 0 0 1
    outer loop
      vertex 1.90233 -2.64999 29.5
      vertex 15.1692 7 29.5
      vertex 7 7.60556 29.5
    endloop
  endfacet
  facet normal -0 0 1
    outer loop
      vertex -2.64999 54.0977 29.5
      vertex 6 53 29.5
      vertex 1.90233 58.65 29.5
    endloop
  endfacet
  facet normal 0 0 1
    outer loop
      vertex 15.1692 7 29.5
      vertex 1.90233 -2.64999 29.5
      vertex 83.0977 -2.64999 29.5
    endloop
  endfacet
  facet normal 0 0 1
    outer loop
      vertex 7 48.3944 29.5
      vertex -2.64999 54.0977 29.5
      vertex 7 7.60556 29.5
    endloop
  endfacet
  facet normal 0 0 1
    outer loop
      vertex -2.64999 1.90233 29.5
      vertex 7 7.60556 29.5
      vertex -2.64999 54.0977 29.5
    endloop
  endfacet
  facet normal 0 0 1
    outer loop
      vertex 7 7.60556 29.5
      vertex -2.64999 1.90233 29.5
      vertex 1.90233 -2.64999 29.5
    endloop
  endfacet
  facet normal 0 0 1
    outer loop
      vertex 69.8308 49 29.5
      vertex 47.0442 28 29.5
      vertex 78 48.3944 29.5
    endloop
  endfacet
  facet normal 0 -0 1
    outer loop
      vertex 47.0442 28 29.5
      vertex 69.8308 49 29.5
      vertex 42.5 30.9938 29.5
    endloop
  endfacet
  facet normal -0.550158 0.83506 0
    outer loop
      vertex 37.9558 28 27.1
      vertex 7 7.60556 29.5
      vertex 37.9558 28 29.5
    endloop
  endfacet
  facet normal -0.550158 0.83506 0
    outer loop
      vertex 7 7.60556 29.5
      vertex 37.9558 28 27.1
      vertex 7 7.60556 27.1
    endloop
  endfacet
  facet normal -0.550158 0.83506 0
    outer loop
      vertex 69.8308 49 27.1
      vertex 42.5 30.9938 29.5
      vertex 69.8308 49 29.5
    endloop
  endfacet
  facet normal -0.550158 0.83506 0
    outer loop
      vertex 42.5 30.9938 29.5
      vertex 69.8308 49 27.1
      vertex 42.5 30.9938 27.1
    endloop
  endfacet
  facet normal 0 0 -1
    outer loop
      vertex 87.65 1.90233 27.1
      vertex 85.35 2.85503 27.1
      vertex 87.65 54.0977 27.1
    endloop
  endfacet
  facet normal 0 0 -1
    outer loop
      vertex 83.0977 -2.64999 27.1
      vertex 85.35 2.85503 27.1
      vertex 87.65 1.90233 27.1
    endloop
  endfacet
  facet normal 0 0 -1
    outer loop
      vertex 83.0977 -2.64999 27.1
      vertex 82.145 -0.350006 27.1
      vertex 85.35 2.85503 27.1
    endloop
  endfacet
  facet normal 0 0 -1
    outer loop
      vertex 83.0977 -2.64999 27.1
      vertex 2.85503 -0.350006 27.1
      vertex 82.145 -0.350006 27.1
    endloop
  endfacet
  facet normal 0 0 -1
    outer loop
      vertex 1.90233 -2.64999 27.1
      vertex 2.85503 -0.350006 27.1
      vertex 83.0977 -2.64999 27.1
    endloop
  endfacet
  facet normal 0 0 -1
    outer loop
      vertex 1.90233 -2.64999 27.1
      vertex -0.350006 2.85503 27.1
      vertex 2.85503 -0.350006 27.1
    endloop
  endfacet
  facet normal -0 0 -1
    outer loop
      vertex -0.350006 2.85503 27.1
      vertex -2.64999 1.90233 27.1
      vertex -0.350006 53.145 27.1
    endloop
  endfacet
  facet normal 0 0 -1
    outer loop
      vertex -2.64999 1.90233 27.1
      vertex -0.350006 2.85503 27.1
      vertex 1.90233 -2.64999 27.1
    endloop
  endfacet
  facet normal 0 0 -1
    outer loop
      vertex 85.35 53.145 27.1
      vertex 87.65 54.0977 27.1
      vertex 85.35 2.85503 27.1
    endloop
  endfacet
  facet normal 0 0 -1
    outer loop
      vertex 85.35 53.145 27.1
      vertex 83.0977 58.65 27.1
      vertex 87.65 54.0977 27.1
    endloop
  endfacet
  facet normal 0 0 -1
    outer loop
      vertex 82.145 56.35 27.1
      vertex 83.0977 58.65 27.1
      vertex 85.35 53.145 27.1
    endloop
  endfacet
  facet normal 0 0 -1
    outer loop
      vertex 59 58.65 27.1
      vertex 82.145 56.35 27.1
      vertex 59 56.35 27.1
    endloop
  endfacet
  facet normal 0 0 -1
    outer loop
      vertex 82.145 56.35 27.1
      vertex 59 58.65 27.1
      vertex 83.0977 58.65 27.1
    endloop
  endfacet
  facet normal 0 0 -1
    outer loop
      vertex 2.85503 56.35 27.1
      vertex 6 58.65 27.1
      vertex 6 56.35 27.1
    endloop
  endfacet
  facet normal 0 0 -1
    outer loop
      vertex 2.85503 56.35 27.1
      vertex 1.90233 58.65 27.1
      vertex 6 58.65 27.1
    endloop
  endfacet
  facet normal 0 0 -1
    outer loop
      vertex -0.350006 53.145 27.1
      vertex 1.90233 58.65 27.1
      vertex 2.85503 56.35 27.1
    endloop
  endfacet
  facet normal 0 0 -1
    outer loop
      vertex -0.350006 53.145 27.1
      vertex -2.64999 54.0977 27.1
      vertex 1.90233 58.65 27.1
    endloop
  endfacet
  facet normal 0 0 -1
    outer loop
      vertex -2.64999 54.0977 27.1
      vertex -0.350006 53.145 27.1
      vertex -2.64999 1.90233 27.1
    endloop
  endfacet
  facet normal 0 0 -1
    outer loop
      vertex 37.9558 28 27.1
      vertex 15.1692 49 27.1
      vertex 42.5 30.9938 27.1
    endloop
  endfacet
  facet normal 0 -0 -1
    outer loop
      vertex 15.1692 49 27.1
      vertex 37.9558 28 27.1
      vertex 7 48.3944 27.1
    endloop
  endfacet
  facet normal 0 0 -1
    outer loop
      vertex 15.1692 49 27.1
      vertex 59 53 27.1
      vertex 69.8308 49 27.1
    endloop
  endfacet
  facet normal 0 0 -1
    outer loop
      vertex 6 53 27.1
      vertex 15.1692 49 27.1
      vertex 7 48.3944 27.1
    endloop
  endfacet
  facet normal 0 0 -1
    outer loop
      vertex 15.1692 49 27.1
      vertex 6 53 27.1
      vertex 59 53 27.1
    endloop
  endfacet
  facet normal 0 0 -1
    outer loop
      vertex 47.0442 28 27.1
      vertex 69.8308 49 27.1
      vertex 78 48.3944 27.1
    endloop
  endfacet
  facet normal 0 0 -1
    outer loop
      vertex 42.5 30.9938 27.1
      vertex 47.0442 28 27.1
      vertex 42.5 25.0062 27.1
    endloop
  endfacet
  facet normal 0 0 -1
    outer loop
      vertex 47.0442 28 27.1
      vertex 42.5 30.9938 27.1
      vertex 69.8308 49 27.1
    endloop
  endfacet
  facet normal 0 0 -1
    outer loop
      vertex 42.5 25.0062 27.1
      vertex 37.9558 28 27.1
      vertex 42.5 30.9938 27.1
    endloop
  endfacet
  facet normal 0 0 -1
    outer loop
      vertex 15.1692 7 27.1
      vertex 37.9558 28 27.1
      vertex 42.5 25.0062 27.1
    endloop
  endfacet
  facet normal 0 0 -1
    outer loop
      vertex 37.9558 28 27.1
      vertex 15.1692 7 27.1
      vertex 7 7.60556 27.1
    endloop
  endfacet
  facet normal 0 0 -1
    outer loop
      vertex 78 7.60556 27.1
      vertex 83.55 3.6006 27.1
      vertex 81.3994 1.45 27.1
    endloop
  endfacet
  facet normal 0 0 -1
    outer loop
      vertex 83.55 3.6006 27.1
      vertex 78 7.60556 27.1
      vertex 83.55 52.3994 27.1
    endloop
  endfacet
  facet normal 0 0 -1
    outer loop
      vertex 78 48.3944 27.1
      vertex 83.55 52.3994 27.1
      vertex 78 7.60556 27.1
    endloop
  endfacet
  facet normal 0 0 -1
    outer loop
      vertex 81.3994 1.45 27.1
      vertex 69.8308 7 27.1
      vertex 78 7.60556 27.1
    endloop
  endfacet
  facet normal 0 0 -1
    outer loop
      vertex 81.3994 1.45 27.1
      vertex 15.1692 7 27.1
      vertex 69.8308 7 27.1
    endloop
  endfacet
  facet normal 0 0 -1
    outer loop
      vertex 3.6006 1.45 27.1
      vertex 15.1692 7 27.1
      vertex 81.3994 1.45 27.1
    endloop
  endfacet
  facet normal 0 0 -1
    outer loop
      vertex 1.45 52.3994 27.1
      vertex 7 48.3944 27.1
      vertex 7 7.60556 27.1
    endloop
  endfacet
  facet normal -0 0 -1
    outer loop
      vertex 15.1692 7 27.1
      vertex 3.6006 1.45 27.1
      vertex 7 7.60556 27.1
    endloop
  endfacet
  facet normal 0 0 -1
    outer loop
      vertex 1.45 3.6006 27.1
      vertex 7 7.60556 27.1
      vertex 3.6006 1.45 27.1
    endloop
  endfacet
  facet normal 0 0 -1
    outer loop
      vertex 1.45 52.3994 27.1
      vertex 7 7.60556 27.1
      vertex 1.45 3.6006 27.1
    endloop
  endfacet
  facet normal 0 0 -1
    outer loop
      vertex 7 48.3944 27.1
      vertex 1.45 52.3994 27.1
      vertex 6 53 27.1
    endloop
  endfacet
  facet normal 0 -0 -1
    outer loop
      vertex 3.6006 54.55 27.1
      vertex 6 53 27.1
      vertex 1.45 52.3994 27.1
    endloop
  endfacet
  facet normal 0 0 -1
    outer loop
      vertex 6 53 27.1
      vertex 3.6006 54.55 27.1
      vertex 6 54.55 27.1
    endloop
  endfacet
  facet normal -0 0 -1
    outer loop
      vertex 83.55 52.3994 27.1
      vertex 78 48.3944 27.1
      vertex 81.3994 54.55 27.1
    endloop
  endfacet
  facet normal 0 0 -1
    outer loop
      vertex 69.8308 49 27.1
      vertex 81.3994 54.55 27.1
      vertex 78 48.3944 27.1
    endloop
  endfacet
  facet normal 0 0 -1
    outer loop
      vertex 59 54.55 27.1
      vertex 69.8308 49 27.1
      vertex 59 53 27.1
    endloop
  endfacet
  facet normal 0 0 -1
    outer loop
      vertex 69.8308 49 27.1
      vertex 59 54.55 27.1
      vertex 81.3994 54.55 27.1
    endloop
  endfacet
  facet normal 0 0 -1
    outer loop
      vertex 69.8308 7 27.1
      vertex 47.0442 28 27.1
      vertex 78 7.60556 27.1
    endloop
  endfacet
  facet normal 0 -0 -1
    outer loop
      vertex 47.0442 28 27.1
      vertex 69.8308 7 27.1
      vertex 42.5 25.0062 27.1
    endloop
  endfacet
  facet normal 0.550158 -0.83506 0
    outer loop
      vertex 15.1692 7 27.1
      vertex 42.5 25.0062 29.5
      vertex 15.1692 7 29.5
    endloop
  endfacet
  facet normal 0.550158 -0.83506 0
    outer loop
      vertex 42.5 25.0062 29.5
      vertex 15.1692 7 27.1
      vertex 42.5 25.0062 27.1
    endloop
  endfacet
  facet normal 0.550158 -0.835061 0
    outer loop
      vertex 47.0442 28 27.1
      vertex 78 48.3944 29.5
      vertex 47.0442 28 29.5
    endloop
  endfacet
  facet normal 0.550158 -0.835061 0
    outer loop
      vertex 78 48.3944 29.5
      vertex 47.0442 28 27.1
      vertex 78 48.3944 27.1
    endloop
  endfacet
  facet normal -0.550158 -0.835061 0
    outer loop
      vertex 7 48.3944 27.1
      vertex 37.9558 28 29.5
      vertex 7 48.3944 29.5
    endloop
  endfacet
  facet normal -0.550158 -0.835061 -0
    outer loop
      vertex 37.9558 28 29.5
      vertex 7 48.3944 27.1
      vertex 37.9558 28 27.1
    endloop
  endfacet
  facet normal -0.550158 -0.83506 0
    outer loop
      vertex 42.5 25.0062 27.1
      vertex 69.8308 7 29.5
      vertex 42.5 25.0062 29.5
    endloop
  endfacet
  facet normal -0.550158 -0.83506 -0
    outer loop
      vertex 69.8308 7 29.5
      vertex 42.5 25.0062 27.1
      vertex 69.8308 7 27.1
    endloop
  endfacet
  facet normal 0.550158 0.83506 -0
    outer loop
      vertex 42.5 30.9938 27.1
      vertex 15.1692 49 29.5
      vertex 42.5 30.9938 29.5
    endloop
  endfacet
  facet normal 0.550158 0.83506 0
    outer loop
      vertex 15.1692 49 29.5
      vertex 42.5 30.9938 27.1
      vertex 15.1692 49 27.1
    endloop
  endfacet
  facet normal 0.550158 0.83506 -0
    outer loop
      vertex 78 7.60556 27.1
      vertex 47.0442 28 29.5
      vertex 78 7.60556 29.5
    endloop
  endfacet
  facet normal 0.550158 0.83506 0
    outer loop
      vertex 47.0442 28 29.5
      vertex 78 7.60556 27.1
      vertex 47.0442 28 27.1
    endloop
  endfacet
  facet normal 1 -0 0
    outer loop
      vertex 87.65 1.90233 29.5
      vertex 87.65 54.0977 27.1
      vertex 87.65 54.0977 29.5
    endloop
  endfacet
  facet normal 1 0 0
    outer loop
      vertex 87.65 54.0977 27.1
      vertex 87.65 1.90233 29.5
      vertex 87.65 1.90233 27.1
    endloop
  endfacet
  facet normal 0.707107 0.707107 0
    outer loop
      vertex 87.65 54.0977 29.5
      vertex 83.0977 58.65 27.1
      vertex 83.0977 58.65 29.5
    endloop
  endfacet
  facet normal 0.707107 0.707107 0
    outer loop
      vertex 83.0977 58.65 27.1
      vertex 87.65 54.0977 29.5
      vertex 87.65 54.0977 27.1
    endloop
  endfacet
  facet normal 0 1 -0
    outer loop
      vertex 83.0977 58.65 27.1
      vertex 59 58.65 29.5
      vertex 83.0977 58.65 29.5
    endloop
  endfacet
  facet normal 0 1 0
    outer loop
      vertex 59 58.65 29.5
      vertex 83.0977 58.65 27.1
      vertex 59 58.65 27.1
    endloop
  endfacet
  facet normal 0 1 -0
    outer loop
      vertex 6 58.65 27.1
      vertex 1.90233 58.65 29.5
      vertex 6 58.65 29.5
    endloop
  endfacet
  facet normal 0 1 0
    outer loop
      vertex 1.90233 58.65 29.5
      vertex 6 58.65 27.1
      vertex 1.90233 58.65 27.1
    endloop
  endfacet
  facet normal -0.707105 0.707108 0
    outer loop
      vertex -2.64999 54.0977 27.1
      vertex 1.90233 58.65 29.5
      vertex 1.90233 58.65 27.1
    endloop
  endfacet
  facet normal -0.707105 0.707108 0
    outer loop
      vertex 1.90233 58.65 29.5
      vertex -2.64999 54.0977 27.1
      vertex -2.64999 54.0977 29.5
    endloop
  endfacet
  facet normal -1 0 0
    outer loop
      vertex -2.64999 1.90233 27.1
      vertex -2.64999 54.0977 29.5
      vertex -2.64999 54.0977 27.1
    endloop
  endfacet
  facet normal -1 -0 0
    outer loop
      vertex -2.64999 54.0977 29.5
      vertex -2.64999 1.90233 27.1
      vertex -2.64999 1.90233 29.5
    endloop
  endfacet
  facet normal -0.707107 -0.707107 0
    outer loop
      vertex 1.90233 -2.64999 27.1
      vertex -2.64999 1.90233 29.5
      vertex -2.64999 1.90233 27.1
    endloop
  endfacet
  facet normal -0.707107 -0.707107 0
    outer loop
      vertex -2.64999 1.90233 29.5
      vertex 1.90233 -2.64999 27.1
      vertex 1.90233 -2.64999 29.5
    endloop
  endfacet
  facet normal 0 -1 0
    outer loop
      vertex 1.90233 -2.64999 27.1
      vertex 83.0977 -2.64999 29.5
      vertex 1.90233 -2.64999 29.5
    endloop
  endfacet
  facet normal 0 -1 -0
    outer loop
      vertex 83.0977 -2.64999 29.5
      vertex 1.90233 -2.64999 27.1
      vertex 83.0977 -2.64999 27.1
    endloop
  endfacet
  facet normal 0.707108 -0.707105 0
    outer loop
      vertex 83.0977 -2.64999 29.5
      vertex 87.65 1.90233 27.1
      vertex 87.65 1.90233 29.5
    endloop
  endfacet
  facet normal 0.707108 -0.707105 0
    outer loop
      vertex 87.65 1.90233 27.1
      vertex 83.0977 -2.64999 29.5
      vertex 83.0977 -2.64999 27.1
    endloop
  endfacet
  facet normal 1 -0 0
    outer loop
      vertex 7 7.60556 29.5
      vertex 7 48.3944 27.1
      vertex 7 48.3944 29.5
    endloop
  endfacet
  facet normal 1 0 0
    outer loop
      vertex 7 48.3944 27.1
      vertex 7 7.60556 29.5
      vertex 7 7.60556 27.1
    endloop
  endfacet
  facet normal 0 -1 0
    outer loop
      vertex 15.1692 49 27.1
      vertex 69.8308 49 29.5
      vertex 15.1692 49 29.5
    endloop
  endfacet
  facet normal 0 -1 -0
    outer loop
      vertex 69.8308 49 29.5
      vertex 15.1692 49 27.1
      vertex 69.8308 49 27.1
    endloop
  endfacet
  facet normal -1 0 0
    outer loop
      vertex 78 7.60556 27.1
      vertex 78 48.3944 29.5
      vertex 78 48.3944 27.1
    endloop
  endfacet
  facet normal -1 -0 0
    outer loop
      vertex 78 48.3944 29.5
      vertex 78 7.60556 27.1
      vertex 78 7.60556 29.5
    endloop
  endfacet
  facet normal 0 1 -0
    outer loop
      vertex 69.8308 7 27.1
      vertex 15.1692 7 29.5
      vertex 69.8308 7 29.5
    endloop
  endfacet
  facet normal 0 1 0
    outer loop
      vertex 15.1692 7 29.5
      vertex 69.8308 7 27.1
      vertex 15.1692 7 27.1
    endloop
  endfacet
  facet normal 1 0 0
    outer loop
      vertex 6 58.65 29.5
      vertex 6 56.35 27.1
      vertex 6 58.65 27.1
    endloop
  endfacet
  facet normal 1 0 0
    outer loop
      vertex 6 56.35 27.1
      vertex 6 54.55 27.1
      vertex 6 56.35 27
    endloop
  endfacet
  facet normal 1 -0 0
    outer loop
      vertex 6 53 29.5
      vertex 6 56.35 27.1
      vertex 6 58.65 29.5
    endloop
  endfacet
  facet normal 1 0 0
    outer loop
      vertex 6 56.35 27.1
      vertex 6 53 29.5
      vertex 6 54.55 27.1
    endloop
  endfacet
  facet normal 1 0 0
    outer loop
      vertex 6 54.55 27.1
      vertex 6 53 29.5
      vertex 6 53 27.1
    endloop
  endfacet
  facet normal 1 0 0
    outer loop
      vertex 6 56.35 27
      vertex 6 54.55 27.1
      vertex 6 54.55 27
    endloop
  endfacet
  facet normal -1 0 0
    outer loop
      vertex 59 56.35 27
      vertex 59 54.55 27
      vertex 59 56.35 27.1
    endloop
  endfacet
  facet normal -1 0 0
    outer loop
      vertex 59 56.35 27.1
      vertex 59 58.65 29.5
      vertex 59 58.65 27.1
    endloop
  endfacet
  facet normal -1 0 0
    outer loop
      vertex 59 54.55 27.1
      vertex 59 56.35 27.1
      vertex 59 54.55 27
    endloop
  endfacet
  facet normal -1 0 0
    outer loop
      vertex 59 53 29.5
      vertex 59 56.35 27.1
      vertex 59 54.55 27.1
    endloop
  endfacet
  facet normal -1 0 0
    outer loop
      vertex 59 53 29.5
      vertex 59 54.55 27.1
      vertex 59 53 27.1
    endloop
  endfacet
  facet normal -1 0 0
    outer loop
      vertex 59 56.35 27.1
      vertex 59 53 29.5
      vertex 59 58.65 29.5
    endloop
  endfacet
  facet normal -0 0 1
    outer loop
      vertex 6 56.35 27
      vertex 59 54.55 27
      vertex 59 56.35 27
    endloop
  endfacet
  facet normal 0 0 1
    outer loop
      vertex 59 54.55 27
      vertex 6 56.35 27
      vertex 6 54.55 27
    endloop
  endfacet
  facet normal 0 1 -0
    outer loop
      vertex 59 53 27.1
      vertex 6 53 29.5
      vertex 59 53 29.5
    endloop
  endfacet
  facet normal 0 1 0
    outer loop
      vertex 6 53 29.5
      vertex 59 53 27.1
      vertex 6 53 27.1
    endloop
  endfacet
endsolid OpenSCAD_Model
