solid OpenSCAD_Model
  facet normal 0 0 1
    outer loop
      vertex 85.55 -2.77219 5.4
      vertex 84.15 -3.35208 5.4
      vertex 85.55 -53.2278 5.4
    endloop
  endfacet
  facet normal 0 0 1
    outer loop
      vertex 82.2278 0.550003 5.4
      vertex 84.15 -3.35208 5.4
      vertex 85.55 -2.77219 5.4
    endloop
  endfacet
  facet normal 0 0 1
    outer loop
      vertex 82.2278 0.550003 5.4
      vertex 81.6479 -0.850006 5.4
      vertex 84.15 -3.35208 5.4
    endloop
  endfacet
  facet normal 0 0 1
    outer loop
      vertex 82.2278 0.550003 5.4
      vertex 3.35208 -0.850006 5.4
      vertex 81.6479 -0.850006 5.4
    endloop
  endfacet
  facet normal -0 0 1
    outer loop
      vertex 2.77219 0.550003 5.4
      vertex 3.35208 -0.850006 5.4
      vertex 82.2278 0.550003 5.4
    endloop
  endfacet
  facet normal 0 0 1
    outer loop
      vertex 2.77219 0.550003 5.4
      vertex 0.850006 -3.35208 5.4
      vertex 3.35208 -0.850006 5.4
    endloop
  endfacet
  facet normal 0 0 1
    outer loop
      vertex 0.850006 -3.35208 5.4
      vertex -0.550003 -2.77219 5.4
      vertex 0.850006 -52.6479 5.4
    endloop
  endfacet
  facet normal -0 0 1
    outer loop
      vertex -0.550003 -2.77219 5.4
      vertex 0.850006 -3.35208 5.4
      vertex 2.77219 0.550003 5.4
    endloop
  endfacet
  facet normal -0 0 1
    outer loop
      vertex 84.15 -52.6479 5.4
      vertex 85.55 -53.2278 5.4
      vertex 84.15 -3.35208 5.4
    endloop
  endfacet
  facet normal 0 0 1
    outer loop
      vertex 84.15 -52.6479 5.4
      vertex 82.2278 -56.55 5.4
      vertex 85.55 -53.2278 5.4
    endloop
  endfacet
  facet normal -0 0 1
    outer loop
      vertex 81.6479 -55.15 5.4
      vertex 82.2278 -56.55 5.4
      vertex 84.15 -52.6479 5.4
    endloop
  endfacet
  facet normal 0 0 1
    outer loop
      vertex 59 -56.55 5.4
      vertex 81.6479 -55.15 5.4
      vertex 59 -55.15 5.4
    endloop
  endfacet
  facet normal 0 0 1
    outer loop
      vertex 81.6479 -55.15 5.4
      vertex 59 -56.55 5.4
      vertex 82.2278 -56.55 5.4
    endloop
  endfacet
  facet normal -0 0 1
    outer loop
      vertex 3.35208 -55.15 5.4
      vertex 6 -56.55 5.4
      vertex 6 -55.15 5.4
    endloop
  endfacet
  facet normal 0 0 1
    outer loop
      vertex 3.35208 -55.15 5.4
      vertex 2.77219 -56.55 5.4
      vertex 6 -56.55 5.4
    endloop
  endfacet
  facet normal 0 0 1
    outer loop
      vertex 0.850006 -52.6479 5.4
      vertex 2.77219 -56.55 5.4
      vertex 3.35208 -55.15 5.4
    endloop
  endfacet
  facet normal 0 0 1
    outer loop
      vertex 0.850006 -52.6479 5.4
      vertex -0.550003 -53.2278 5.4
      vertex 2.77219 -56.55 5.4
    endloop
  endfacet
  facet normal 0 0 1
    outer loop
      vertex -0.550003 -53.2278 5.4
      vertex 0.850006 -52.6479 5.4
      vertex -0.550003 -2.77219 5.4
    endloop
  endfacet
  facet normal 0 0 1
    outer loop
      vertex 85.95 -2.60649 4.6
      vertex 85.55 -2.77219 4.6
      vertex 85.95 -53.3935 4.6
    endloop
  endfacet
  facet normal 0 0 1
    outer loop
      vertex 82.3935 0.949997 4.6
      vertex 85.55 -2.77219 4.6
      vertex 85.95 -2.60649 4.6
    endloop
  endfacet
  facet normal 0 0 1
    outer loop
      vertex 82.3935 0.949997 4.6
      vertex 82.2278 0.550003 4.6
      vertex 85.55 -2.77219 4.6
    endloop
  endfacet
  facet normal 0 0 1
    outer loop
      vertex 82.3935 0.949997 4.6
      vertex 2.77219 0.550003 4.6
      vertex 82.2278 0.550003 4.6
    endloop
  endfacet
  facet normal -0 0 1
    outer loop
      vertex 2.60649 0.949997 4.6
      vertex 2.77219 0.550003 4.6
      vertex 82.3935 0.949997 4.6
    endloop
  endfacet
  facet normal 0 0 1
    outer loop
      vertex 2.60649 0.949997 4.6
      vertex -0.550003 -2.77219 4.6
      vertex 2.77219 0.550003 4.6
    endloop
  endfacet
  facet normal 0 0 1
    outer loop
      vertex -0.550003 -2.77219 4.6
      vertex -0.949997 -2.60649 4.6
      vertex -0.550003 -53.2278 4.6
    endloop
  endfacet
  facet normal -0 0 1
    outer loop
      vertex -0.949997 -2.60649 4.6
      vertex -0.550003 -2.77219 4.6
      vertex 2.60649 0.949997 4.6
    endloop
  endfacet
  facet normal -0 0 1
    outer loop
      vertex 85.55 -53.2278 4.6
      vertex 85.95 -53.3935 4.6
      vertex 85.55 -2.77219 4.6
    endloop
  endfacet
  facet normal 0 0 1
    outer loop
      vertex 85.55 -53.2278 4.6
      vertex 82.3935 -56.95 4.6
      vertex 85.95 -53.3935 4.6
    endloop
  endfacet
  facet normal -0 0 1
    outer loop
      vertex 82.2278 -56.55 4.6
      vertex 82.3935 -56.95 4.6
      vertex 85.55 -53.2278 4.6
    endloop
  endfacet
  facet normal 0 0 1
    outer loop
      vertex 59 -56.95 4.6
      vertex 82.2278 -56.55 4.6
      vertex 59 -56.55 4.6
    endloop
  endfacet
  facet normal 0 0 1
    outer loop
      vertex 82.2278 -56.55 4.6
      vertex 59 -56.95 4.6
      vertex 82.3935 -56.95 4.6
    endloop
  endfacet
  facet normal -0 0 1
    outer loop
      vertex 2.77219 -56.55 4.6
      vertex 6 -56.95 4.6
      vertex 6 -56.55 4.6
    endloop
  endfacet
  facet normal 0 0 1
    outer loop
      vertex 2.77219 -56.55 4.6
      vertex 2.60649 -56.95 4.6
      vertex 6 -56.95 4.6
    endloop
  endfacet
  facet normal 0 0 1
    outer loop
      vertex -0.550003 -53.2278 4.6
      vertex 2.60649 -56.95 4.6
      vertex 2.77219 -56.55 4.6
    endloop
  endfacet
  facet normal 0 0 1
    outer loop
      vertex -0.550003 -53.2278 4.6
      vertex -0.949997 -53.3935 4.6
      vertex 2.60649 -56.95 4.6
    endloop
  endfacet
  facet normal 0 0 1
    outer loop
      vertex -0.949997 -53.3935 4.6
      vertex -0.550003 -53.2278 4.6
      vertex -0.949997 -2.60649 4.6
    endloop
  endfacet
  facet normal 1 -0 0
    outer loop
      vertex 85.55 -53.2278 5.4
      vertex 85.55 -2.77219 4.6
      vertex 85.55 -2.77219 5.4
    endloop
  endfacet
  facet normal 1 0 0
    outer loop
      vertex 85.55 -2.77219 4.6
      vertex 85.55 -53.2278 5.4
      vertex 85.55 -53.2278 4.6
    endloop
  endfacet
  facet normal 0.707107 -0.707107 0
    outer loop
      vertex 82.2278 -56.55 5.4
      vertex 85.55 -53.2278 4.6
      vertex 85.55 -53.2278 5.4
    endloop
  endfacet
  facet normal 0.707107 -0.707107 0
    outer loop
      vertex 85.55 -53.2278 4.6
      vertex 82.2278 -56.55 5.4
      vertex 82.2278 -56.55 4.6
    endloop
  endfacet
  facet normal 0 -1 0
    outer loop
      vertex 59 -56.55 4.6
      vertex 82.2278 -56.55 5.4
      vertex 59 -56.55 5.4
    endloop
  endfacet
  facet normal 0 -1 -0
    outer loop
      vertex 82.2278 -56.55 5.4
      vertex 59 -56.55 4.6
      vertex 82.2278 -56.55 4.6
    endloop
  endfacet
  facet normal 0 -1 0
    outer loop
      vertex 2.77219 -56.55 4.6
      vertex 6 -56.55 5.4
      vertex 2.77219 -56.55 5.4
    endloop
  endfacet
  facet normal 0 -1 -0
    outer loop
      vertex 6 -56.55 5.4
      vertex 2.77219 -56.55 4.6
      vertex 6 -56.55 4.6
    endloop
  endfacet
  facet normal -0.707108 -0.707106 0
    outer loop
      vertex 2.77219 -56.55 4.6
      vertex -0.550003 -53.2278 5.4
      vertex -0.550003 -53.2278 4.6
    endloop
  endfacet
  facet normal -0.707108 -0.707106 0
    outer loop
      vertex -0.550003 -53.2278 5.4
      vertex 2.77219 -56.55 4.6
      vertex 2.77219 -56.55 5.4
    endloop
  endfacet
  facet normal -1 0 0
    outer loop
      vertex -0.550003 -53.2278 4.6
      vertex -0.550003 -2.77219 5.4
      vertex -0.550003 -2.77219 4.6
    endloop
  endfacet
  facet normal -1 -0 0
    outer loop
      vertex -0.550003 -2.77219 5.4
      vertex -0.550003 -53.2278 4.6
      vertex -0.550003 -53.2278 5.4
    endloop
  endfacet
  facet normal -0.707107 0.707107 0
    outer loop
      vertex -0.550003 -2.77219 4.6
      vertex 2.77219 0.550003 5.4
      vertex 2.77219 0.550003 4.6
    endloop
  endfacet
  facet normal -0.707107 0.707107 0
    outer loop
      vertex 2.77219 0.550003 5.4
      vertex -0.550003 -2.77219 4.6
      vertex -0.550003 -2.77219 5.4
    endloop
  endfacet
  facet normal 0 1 -0
    outer loop
      vertex 82.2278 0.550003 4.6
      vertex 2.77219 0.550003 5.4
      vertex 82.2278 0.550003 5.4
    endloop
  endfacet
  facet normal 0 1 0
    outer loop
      vertex 2.77219 0.550003 5.4
      vertex 82.2278 0.550003 4.6
      vertex 2.77219 0.550003 4.6
    endloop
  endfacet
  facet normal 0.707106 0.707108 0
    outer loop
      vertex 85.55 -2.77219 5.4
      vertex 82.2278 0.550003 4.6
      vertex 82.2278 0.550003 5.4
    endloop
  endfacet
  facet normal 0.707106 0.707108 0
    outer loop
      vertex 82.2278 0.550003 4.6
      vertex 85.55 -2.77219 5.4
      vertex 85.55 -2.77219 4.6
    endloop
  endfacet
  facet normal 0.707107 -0.707107 0
    outer loop
      vertex 0.850006 -3.35208 5.4
      vertex 3.35208 -0.850006 2.4
      vertex 3.35208 -0.850006 5.4
    endloop
  endfacet
  facet normal 0.707107 -0.707107 0
    outer loop
      vertex 3.35208 -0.850006 2.4
      vertex 0.850006 -3.35208 5.4
      vertex 0.850006 -3.35208 2.4
    endloop
  endfacet
  facet normal 1 -0 0
    outer loop
      vertex 0.850006 -52.6479 5.4
      vertex 0.850006 -3.35208 2.4
      vertex 0.850006 -3.35208 5.4
    endloop
  endfacet
  facet normal 1 0 0
    outer loop
      vertex 0.850006 -3.35208 2.4
      vertex 0.850006 -52.6479 5.4
      vertex 0.850006 -52.6479 2.4
    endloop
  endfacet
  facet normal 0.70711 0.707103 0
    outer loop
      vertex 3.35208 -55.15 5.4
      vertex 0.850006 -52.6479 2.4
      vertex 0.850006 -52.6479 5.4
    endloop
  endfacet
  facet normal 0.70711 0.707103 0
    outer loop
      vertex 0.850006 -52.6479 2.4
      vertex 3.35208 -55.15 5.4
      vertex 3.35208 -55.15 2.4
    endloop
  endfacet
  facet normal 0 1 -0
    outer loop
      vertex 81.6479 -55.15 2.4
      vertex 59 -55.15 5.4
      vertex 81.6479 -55.15 5.4
    endloop
  endfacet
  facet normal 0 1 0
    outer loop
      vertex 59 -55.15 5.4
      vertex 81.6479 -55.15 2.4
      vertex 59 -55.15 2.4
    endloop
  endfacet
  facet normal 0 1 -0
    outer loop
      vertex 6 -55.15 2.4
      vertex 3.35208 -55.15 5.4
      vertex 6 -55.15 5.4
    endloop
  endfacet
  facet normal 0 1 0
    outer loop
      vertex 3.35208 -55.15 5.4
      vertex 6 -55.15 2.4
      vertex 3.35208 -55.15 2.4
    endloop
  endfacet
  facet normal -0.707107 0.707107 0
    outer loop
      vertex 81.6479 -55.15 2.4
      vertex 84.15 -52.6479 5.4
      vertex 84.15 -52.6479 2.4
    endloop
  endfacet
  facet normal -0.707107 0.707107 0
    outer loop
      vertex 84.15 -52.6479 5.4
      vertex 81.6479 -55.15 2.4
      vertex 81.6479 -55.15 5.4
    endloop
  endfacet
  facet normal -1 0 0
    outer loop
      vertex 84.15 -52.6479 2.4
      vertex 84.15 -3.35208 5.4
      vertex 84.15 -3.35208 2.4
    endloop
  endfacet
  facet normal -1 -0 0
    outer loop
      vertex 84.15 -3.35208 5.4
      vertex 84.15 -52.6479 2.4
      vertex 84.15 -52.6479 5.4
    endloop
  endfacet
  facet normal -0.707103 -0.70711 0
    outer loop
      vertex 84.15 -3.35208 2.4
      vertex 81.6479 -0.850006 5.4
      vertex 81.6479 -0.850006 2.4
    endloop
  endfacet
  facet normal -0.707103 -0.70711 0
    outer loop
      vertex 81.6479 -0.850006 5.4
      vertex 84.15 -3.35208 2.4
      vertex 84.15 -3.35208 5.4
    endloop
  endfacet
  facet normal 0 -1 0
    outer loop
      vertex 3.35208 -0.850006 2.4
      vertex 81.6479 -0.850006 5.4
      vertex 3.35208 -0.850006 5.4
    endloop
  endfacet
  facet normal 0 -1 -0
    outer loop
      vertex 81.6479 -0.850006 5.4
      vertex 3.35208 -0.850006 2.4
      vertex 81.6479 -0.850006 2.4
    endloop
  endfacet
  facet normal 1 -0 0
    outer loop
      vertex 85.95 -53.3935 4.6
      vertex 85.95 -2.60649 4.35
      vertex 85.95 -2.60649 4.6
    endloop
  endfacet
  facet normal 1 0 0
    outer loop
      vertex 85.95 -2.60649 4.35
      vertex 85.95 -53.3935 4.6
      vertex 85.95 -53.3935 4.35
    endloop
  endfacet
  facet normal 1 -0 0
    outer loop
      vertex 85.95 -53.3935 2.75
      vertex 85.95 -2.60649 2.4
      vertex 85.95 -2.60649 2.75
    endloop
  endfacet
  facet normal 1 0 0
    outer loop
      vertex 85.95 -2.60649 2.4
      vertex 85.95 -53.3935 2.75
      vertex 85.95 -53.3935 2.4
    endloop
  endfacet
  facet normal 0.707107 -0.707107 0
    outer loop
      vertex 82.3935 -56.95 4.6
      vertex 85.95 -53.3935 4.35
      vertex 85.95 -53.3935 4.6
    endloop
  endfacet
  facet normal 0.707107 -0.707107 0
    outer loop
      vertex 85.95 -53.3935 4.35
      vertex 82.3935 -56.95 4.6
      vertex 82.3935 -56.95 4.35
    endloop
  endfacet
  facet normal 0.707107 -0.707107 0
    outer loop
      vertex 82.3935 -56.95 2.75
      vertex 85.95 -53.3935 2.4
      vertex 85.95 -53.3935 2.75
    endloop
  endfacet
  facet normal 0.707107 -0.707107 0
    outer loop
      vertex 85.95 -53.3935 2.4
      vertex 82.3935 -56.95 2.75
      vertex 82.3935 -56.95 2.4
    endloop
  endfacet
  facet normal 0 -1 0
    outer loop
      vertex 59 -56.95 4.35
      vertex 82.3935 -56.95 4.6
      vertex 59 -56.95 4.6
    endloop
  endfacet
  facet normal 0 -1 -0
    outer loop
      vertex 82.3935 -56.95 4.6
      vertex 59 -56.95 4.35
      vertex 82.3935 -56.95 4.35
    endloop
  endfacet
  facet normal 0 -1 0
    outer loop
      vertex 2.60649 -56.95 4.35
      vertex 6 -56.95 4.6
      vertex 2.60649 -56.95 4.6
    endloop
  endfacet
  facet normal 0 -1 -0
    outer loop
      vertex 6 -56.95 4.6
      vertex 2.60649 -56.95 4.35
      vertex 6 -56.95 4.35
    endloop
  endfacet
  facet normal 0 -1 0
    outer loop
      vertex 2.60649 -56.95 2.4
      vertex 6 -56.95 2.75
      vertex 2.60649 -56.95 2.75
    endloop
  endfacet
  facet normal 0 -1 -0
    outer loop
      vertex 6 -56.95 2.75
      vertex 2.60649 -56.95 2.4
      vertex 6 -56.95 2.4
    endloop
  endfacet
  facet normal 0 -1 0
    outer loop
      vertex 59 -56.95 2.4
      vertex 82.3935 -56.95 2.75
      vertex 59 -56.95 2.75
    endloop
  endfacet
  facet normal 0 -1 -0
    outer loop
      vertex 82.3935 -56.95 2.75
      vertex 59 -56.95 2.4
      vertex 82.3935 -56.95 2.4
    endloop
  endfacet
  facet normal -0.707108 -0.707105 0
    outer loop
      vertex 2.60649 -56.95 4.35
      vertex -0.949997 -53.3935 4.6
      vertex -0.949997 -53.3935 4.35
    endloop
  endfacet
  facet normal -0.707108 -0.707105 0
    outer loop
      vertex -0.949997 -53.3935 4.6
      vertex 2.60649 -56.95 4.35
      vertex 2.60649 -56.95 4.6
    endloop
  endfacet
  facet normal -0.707108 -0.707105 0
    outer loop
      vertex 2.60649 -56.95 2.4
      vertex -0.949997 -53.3935 2.75
      vertex -0.949997 -53.3935 2.4
    endloop
  endfacet
  facet normal -0.707108 -0.707105 0
    outer loop
      vertex -0.949997 -53.3935 2.75
      vertex 2.60649 -56.95 2.4
      vertex 2.60649 -56.95 2.75
    endloop
  endfacet
  facet normal -1 0 0
    outer loop
      vertex -0.949997 -53.3935 4.35
      vertex -0.949997 -2.60649 4.6
      vertex -0.949997 -2.60649 4.35
    endloop
  endfacet
  facet normal -1 -0 0
    outer loop
      vertex -0.949997 -2.60649 4.6
      vertex -0.949997 -53.3935 4.35
      vertex -0.949997 -53.3935 4.6
    endloop
  endfacet
  facet normal -1 0 0
    outer loop
      vertex -0.949997 -53.3935 2.4
      vertex -0.949997 -2.60649 2.75
      vertex -0.949997 -2.60649 2.4
    endloop
  endfacet
  facet normal -1 -0 0
    outer loop
      vertex -0.949997 -2.60649 2.75
      vertex -0.949997 -53.3935 2.4
      vertex -0.949997 -53.3935 2.75
    endloop
  endfacet
  facet normal -0.707107 0.707107 0
    outer loop
      vertex -0.949997 -2.60649 4.35
      vertex 2.60649 0.949997 4.6
      vertex 2.60649 0.949997 4.35
    endloop
  endfacet
  facet normal -0.707107 0.707107 0
    outer loop
      vertex 2.60649 0.949997 4.6
      vertex -0.949997 -2.60649 4.35
      vertex -0.949997 -2.60649 4.6
    endloop
  endfacet
  facet normal -0.707107 0.707107 0
    outer loop
      vertex -0.949997 -2.60649 2.4
      vertex 2.60649 0.949997 2.75
      vertex 2.60649 0.949997 2.4
    endloop
  endfacet
  facet normal -0.707107 0.707107 0
    outer loop
      vertex 2.60649 0.949997 2.75
      vertex -0.949997 -2.60649 2.4
      vertex -0.949997 -2.60649 2.75
    endloop
  endfacet
  facet normal 0 1 -0
    outer loop
      vertex 82.3935 0.949997 4.35
      vertex 2.60649 0.949997 4.6
      vertex 82.3935 0.949997 4.6
    endloop
  endfacet
  facet normal 0 1 0
    outer loop
      vertex 2.60649 0.949997 4.6
      vertex 82.3935 0.949997 4.35
      vertex 2.60649 0.949997 4.35
    endloop
  endfacet
  facet normal 0 1 -0
    outer loop
      vertex 82.3935 0.949997 2.4
      vertex 2.60649 0.949997 2.75
      vertex 82.3935 0.949997 2.75
    endloop
  endfacet
  facet normal 0 1 0
    outer loop
      vertex 2.60649 0.949997 2.75
      vertex 82.3935 0.949997 2.4
      vertex 2.60649 0.949997 2.4
    endloop
  endfacet
  facet normal 0.707105 0.707108 0
    outer loop
      vertex 85.95 -2.60649 4.6
      vertex 82.3935 0.949997 4.35
      vertex 82.3935 0.949997 4.6
    endloop
  endfacet
  facet normal 0.707105 0.707108 0
    outer loop
      vertex 82.3935 0.949997 4.35
      vertex 85.95 -2.60649 4.6
      vertex 85.95 -2.60649 4.35
    endloop
  endfacet
  facet normal 0.707105 0.707108 0
    outer loop
      vertex 85.95 -2.60649 2.75
      vertex 82.3935 0.949997 2.4
      vertex 82.3935 0.949997 2.75
    endloop
  endfacet
  facet normal 0.707105 0.707108 0
    outer loop
      vertex 82.3935 0.949997 2.4
      vertex 85.95 -2.60649 2.75
      vertex 85.95 -2.60649 2.4
    endloop
  endfacet
  facet normal 0.707107 -0.707107 0
    outer loop
      vertex 83.3255 -59.2 2.4
      vertex 88.2 -54.3255 1.39
      vertex 88.2 -54.3255 2.4
    endloop
  endfacet
  facet normal 0.707107 -0.707107 0
    outer loop
      vertex 88.2 -54.3255 1.39
      vertex 83.3255 -59.2 2.4
      vertex 83.3255 -59.2 1.39
    endloop
  endfacet
  facet normal -1 0 0
    outer loop
      vertex -3.2 -54.3255 1.39
      vertex -3.2 -1.67451 2.4
      vertex -3.2 -1.67451 1.39
    endloop
  endfacet
  facet normal -1 -0 0
    outer loop
      vertex -3.2 -1.67451 2.4
      vertex -3.2 -54.3255 1.39
      vertex -3.2 -54.3255 2.4
    endloop
  endfacet
  facet normal 1 -0 0
    outer loop
      vertex 88.2 -54.3255 2.4
      vertex 88.2 -1.67451 1.39
      vertex 88.2 -1.67451 2.4
    endloop
  endfacet
  facet normal 1 0 0
    outer loop
      vertex 88.2 -1.67451 1.39
      vertex 88.2 -54.3255 2.4
      vertex 88.2 -54.3255 1.39
    endloop
  endfacet
  facet normal 0 0 1
    outer loop
      vertex 88.2 -1.67451 2.4
      vertex 85.95 -2.60649 2.4
      vertex 88.2 -54.3255 2.4
    endloop
  endfacet
  facet normal 0 0 1
    outer loop
      vertex 83.3255 3.2 2.4
      vertex 85.95 -2.60649 2.4
      vertex 88.2 -1.67451 2.4
    endloop
  endfacet
  facet normal 0 0 1
    outer loop
      vertex 83.3255 3.2 2.4
      vertex 82.3935 0.949997 2.4
      vertex 85.95 -2.60649 2.4
    endloop
  endfacet
  facet normal 0 0 1
    outer loop
      vertex 83.3255 3.2 2.4
      vertex 2.60649 0.949997 2.4
      vertex 82.3935 0.949997 2.4
    endloop
  endfacet
  facet normal -0 0 1
    outer loop
      vertex 1.67451 3.2 2.4
      vertex 2.60649 0.949997 2.4
      vertex 83.3255 3.2 2.4
    endloop
  endfacet
  facet normal 0 0 1
    outer loop
      vertex 1.67451 3.2 2.4
      vertex -0.949997 -2.60649 2.4
      vertex 2.60649 0.949997 2.4
    endloop
  endfacet
  facet normal 0 0 1
    outer loop
      vertex -0.949997 -2.60649 2.4
      vertex -3.2 -1.67451 2.4
      vertex -0.949997 -53.3935 2.4
    endloop
  endfacet
  facet normal -0 0 1
    outer loop
      vertex -3.2 -1.67451 2.4
      vertex -0.949997 -2.60649 2.4
      vertex 1.67451 3.2 2.4
    endloop
  endfacet
  facet normal -0 0 1
    outer loop
      vertex 85.95 -53.3935 2.4
      vertex 88.2 -54.3255 2.4
      vertex 85.95 -2.60649 2.4
    endloop
  endfacet
  facet normal 0 0 1
    outer loop
      vertex 85.95 -53.3935 2.4
      vertex 83.3255 -59.2 2.4
      vertex 88.2 -54.3255 2.4
    endloop
  endfacet
  facet normal -0 0 1
    outer loop
      vertex 82.3935 -56.95 2.4
      vertex 83.3255 -59.2 2.4
      vertex 85.95 -53.3935 2.4
    endloop
  endfacet
  facet normal 0 0 1
    outer loop
      vertex 59 -59.2 2.4
      vertex 82.3935 -56.95 2.4
      vertex 59 -56.95 2.4
    endloop
  endfacet
  facet normal 0 0 1
    outer loop
      vertex 82.3935 -56.95 2.4
      vertex 59 -59.2 2.4
      vertex 83.3255 -59.2 2.4
    endloop
  endfacet
  facet normal -0 0 1
    outer loop
      vertex 2.60649 -56.95 2.4
      vertex 6 -59.2 2.4
      vertex 6 -56.95 2.4
    endloop
  endfacet
  facet normal 0 0 1
    outer loop
      vertex 2.60649 -56.95 2.4
      vertex 1.67451 -59.2 2.4
      vertex 6 -59.2 2.4
    endloop
  endfacet
  facet normal 0 0 1
    outer loop
      vertex -0.949997 -53.3935 2.4
      vertex 1.67451 -59.2 2.4
      vertex 2.60649 -56.95 2.4
    endloop
  endfacet
  facet normal 0 0 1
    outer loop
      vertex -0.949997 -53.3935 2.4
      vertex -3.2 -54.3255 2.4
      vertex 1.67451 -59.2 2.4
    endloop
  endfacet
  facet normal 0 0 1
    outer loop
      vertex -3.2 -54.3255 2.4
      vertex -0.949997 -53.3935 2.4
      vertex -3.2 -1.67451 2.4
    endloop
  endfacet
  facet normal -0 0 1
    outer loop
      vertex 57 -45.36 2.4
      vertex 59 -53 2.4
      vertex 59.6 -45.36 2.4
    endloop
  endfacet
  facet normal 0 0 1
    outer loop
      vertex 54.6 -45.36 2.4
      vertex 57 -45.36 2.4
      vertex 54.6 -10.64 2.4
    endloop
  endfacet
  facet normal -0 0 1
    outer loop
      vertex 54.6 -45.36 2.4
      vertex 59 -53 2.4
      vertex 57 -45.36 2.4
    endloop
  endfacet
  facet normal -0 0 1
    outer loop
      vertex 52 -45.36 2.4
      vertex 59 -53 2.4
      vertex 54.6 -45.36 2.4
    endloop
  endfacet
  facet normal 0 0 1
    outer loop
      vertex 49.6 -45.36 2.4
      vertex 52 -45.36 2.4
      vertex 49.6 -10.64 2.4
    endloop
  endfacet
  facet normal -0 0 1
    outer loop
      vertex 49.6 -45.36 2.4
      vertex 59 -53 2.4
      vertex 52 -45.36 2.4
    endloop
  endfacet
  facet normal -0 0 1
    outer loop
      vertex 47 -45.36 2.4
      vertex 59 -53 2.4
      vertex 49.6 -45.36 2.4
    endloop
  endfacet
  facet normal 0 0 1
    outer loop
      vertex 44.6 -45.36 2.4
      vertex 47 -45.36 2.4
      vertex 44.6 -10.64 2.4
    endloop
  endfacet
  facet normal -0 0 1
    outer loop
      vertex 44.6 -45.36 2.4
      vertex 59 -53 2.4
      vertex 47 -45.36 2.4
    endloop
  endfacet
  facet normal -0 0 1
    outer loop
      vertex 42 -45.36 2.4
      vertex 59 -53 2.4
      vertex 44.6 -45.36 2.4
    endloop
  endfacet
  facet normal 0 0 1
    outer loop
      vertex 39.6 -45.36 2.4
      vertex 42 -45.36 2.4
      vertex 39.6 -10.64 2.4
    endloop
  endfacet
  facet normal -0 0 1
    outer loop
      vertex 39.6 -45.36 2.4
      vertex 59 -53 2.4
      vertex 42 -45.36 2.4
    endloop
  endfacet
  facet normal -0 0 1
    outer loop
      vertex 37 -45.36 2.4
      vertex 59 -53 2.4
      vertex 39.6 -45.36 2.4
    endloop
  endfacet
  facet normal 0 0 1
    outer loop
      vertex 34.6 -45.36 2.4
      vertex 37 -45.36 2.4
      vertex 34.6 -10.64 2.4
    endloop
  endfacet
  facet normal -0 0 1
    outer loop
      vertex 34.6 -45.36 2.4
      vertex 59 -53 2.4
      vertex 37 -45.36 2.4
    endloop
  endfacet
  facet normal -0 0 1
    outer loop
      vertex 32 -45.36 2.4
      vertex 59 -53 2.4
      vertex 34.6 -45.36 2.4
    endloop
  endfacet
  facet normal 0 0 1
    outer loop
      vertex 29.6 -45.36 2.4
      vertex 32 -45.36 2.4
      vertex 29.6 -10.64 2.4
    endloop
  endfacet
  facet normal 0 0 1
    outer loop
      vertex 6 -53 2.4
      vertex 32 -45.36 2.4
      vertex 29.6 -45.36 2.4
    endloop
  endfacet
  facet normal 0 0 1
    outer loop
      vertex 6 -53 2.4
      vertex 29.6 -45.36 2.4
      vertex 27 -45.36 2.4
    endloop
  endfacet
  facet normal 0 0 1
    outer loop
      vertex 24.6 -45.36 2.4
      vertex 27 -45.36 2.4
      vertex 24.6 -10.64 2.4
    endloop
  endfacet
  facet normal 0 0 1
    outer loop
      vertex 6 -53 2.4
      vertex 27 -45.36 2.4
      vertex 24.6 -45.36 2.4
    endloop
  endfacet
  facet normal 0 0 1
    outer loop
      vertex 6 -53 2.4
      vertex 24.6 -45.36 2.4
      vertex 22 -45.36 2.4
    endloop
  endfacet
  facet normal 0 0 1
    outer loop
      vertex 19.6 -45.36 2.4
      vertex 22 -45.36 2.4
      vertex 19.6 -10.64 2.4
    endloop
  endfacet
  facet normal 0 0 1
    outer loop
      vertex 6 -53 2.4
      vertex 22 -45.36 2.4
      vertex 19.6 -45.36 2.4
    endloop
  endfacet
  facet normal 0 0 1
    outer loop
      vertex 6 -53 2.4
      vertex 19.6 -45.36 2.4
      vertex 17 -45.36 2.4
    endloop
  endfacet
  facet normal 0 0 1
    outer loop
      vertex 14.6 -45.36 2.4
      vertex 17 -45.36 2.4
      vertex 14.6 -10.64 2.4
    endloop
  endfacet
  facet normal 0 0 1
    outer loop
      vertex 6 -53 2.4
      vertex 17 -45.36 2.4
      vertex 14.6 -45.36 2.4
    endloop
  endfacet
  facet normal 0 0 1
    outer loop
      vertex 6 -53 2.4
      vertex 14.6 -45.36 2.4
      vertex 12 -45.36 2.4
    endloop
  endfacet
  facet normal 0 0 1
    outer loop
      vertex 32 -45.36 2.4
      vertex 6 -53 2.4
      vertex 59 -53 2.4
    endloop
  endfacet
  facet normal 0 0 1
    outer loop
      vertex 69.6 -10.64 2.4
      vertex 84.15 -3.35208 2.4
      vertex 81.6479 -0.850006 2.4
    endloop
  endfacet
  facet normal 0 0 1
    outer loop
      vertex 84.15 -3.35208 2.4
      vertex 69.6 -10.64 2.4
      vertex 84.15 -52.6479 2.4
    endloop
  endfacet
  facet normal -0 0 1
    outer loop
      vertex 69.6 -45.36 2.4
      vertex 84.15 -52.6479 2.4
      vertex 69.6 -10.64 2.4
    endloop
  endfacet
  facet normal 0 0 1
    outer loop
      vertex 81.6479 -0.850006 2.4
      vertex 67 -10.64 2.4
      vertex 69.6 -10.64 2.4
    endloop
  endfacet
  facet normal 0 0 1
    outer loop
      vertex 67 -10.64 2.4
      vertex 64.6 -10.64 2.4
      vertex 67 -45.36 2.4
    endloop
  endfacet
  facet normal 0 0 1
    outer loop
      vertex 81.6479 -0.850006 2.4
      vertex 64.6 -10.64 2.4
      vertex 67 -10.64 2.4
    endloop
  endfacet
  facet normal 0 0 1
    outer loop
      vertex 81.6479 -0.850006 2.4
      vertex 62 -10.64 2.4
      vertex 64.6 -10.64 2.4
    endloop
  endfacet
  facet normal 0 0 1
    outer loop
      vertex 62 -10.64 2.4
      vertex 59.6 -10.64 2.4
      vertex 62 -45.36 2.4
    endloop
  endfacet
  facet normal 0 0 1
    outer loop
      vertex 81.6479 -0.850006 2.4
      vertex 59.6 -10.64 2.4
      vertex 62 -10.64 2.4
    endloop
  endfacet
  facet normal 0 0 1
    outer loop
      vertex 81.6479 -0.850006 2.4
      vertex 57 -10.64 2.4
      vertex 59.6 -10.64 2.4
    endloop
  endfacet
  facet normal 0 0 1
    outer loop
      vertex 57 -10.64 2.4
      vertex 54.6 -10.64 2.4
      vertex 57 -45.36 2.4
    endloop
  endfacet
  facet normal 0 0 1
    outer loop
      vertex 81.6479 -0.850006 2.4
      vertex 54.6 -10.64 2.4
      vertex 57 -10.64 2.4
    endloop
  endfacet
  facet normal 0 0 1
    outer loop
      vertex 81.6479 -0.850006 2.4
      vertex 52 -10.64 2.4
      vertex 54.6 -10.64 2.4
    endloop
  endfacet
  facet normal 0 0 1
    outer loop
      vertex 52 -10.64 2.4
      vertex 49.6 -10.64 2.4
      vertex 52 -45.36 2.4
    endloop
  endfacet
  facet normal 0 0 1
    outer loop
      vertex 81.6479 -0.850006 2.4
      vertex 49.6 -10.64 2.4
      vertex 52 -10.64 2.4
    endloop
  endfacet
  facet normal 0 0 1
    outer loop
      vertex 81.6479 -0.850006 2.4
      vertex 47 -10.64 2.4
      vertex 49.6 -10.64 2.4
    endloop
  endfacet
  facet normal 0 0 1
    outer loop
      vertex 47 -10.64 2.4
      vertex 44.6 -10.64 2.4
      vertex 47 -45.36 2.4
    endloop
  endfacet
  facet normal 0 0 1
    outer loop
      vertex 81.6479 -0.850006 2.4
      vertex 44.6 -10.64 2.4
      vertex 47 -10.64 2.4
    endloop
  endfacet
  facet normal 0 0 1
    outer loop
      vertex 81.6479 -0.850006 2.4
      vertex 42 -10.64 2.4
      vertex 44.6 -10.64 2.4
    endloop
  endfacet
  facet normal 0 0 1
    outer loop
      vertex 42 -10.64 2.4
      vertex 39.6 -10.64 2.4
      vertex 42 -45.36 2.4
    endloop
  endfacet
  facet normal -0 0 1
    outer loop
      vertex 3.35208 -0.850006 2.4
      vertex 42 -10.64 2.4
      vertex 81.6479 -0.850006 2.4
    endloop
  endfacet
  facet normal 0 0 1
    outer loop
      vertex 42 -10.64 2.4
      vertex 3.35208 -0.850006 2.4
      vertex 39.6 -10.64 2.4
    endloop
  endfacet
  facet normal 0 0 1
    outer loop
      vertex 37 -10.64 2.4
      vertex 34.6 -10.64 2.4
      vertex 37 -45.36 2.4
    endloop
  endfacet
  facet normal 0 0 1
    outer loop
      vertex 39.6 -10.64 2.4
      vertex 3.35208 -0.850006 2.4
      vertex 37 -10.64 2.4
    endloop
  endfacet
  facet normal 0 0 1
    outer loop
      vertex 37 -10.64 2.4
      vertex 3.35208 -0.850006 2.4
      vertex 34.6 -10.64 2.4
    endloop
  endfacet
  facet normal 0 0 1
    outer loop
      vertex 32 -10.64 2.4
      vertex 29.6 -10.64 2.4
      vertex 32 -45.36 2.4
    endloop
  endfacet
  facet normal 0 0 1
    outer loop
      vertex 34.6 -10.64 2.4
      vertex 3.35208 -0.850006 2.4
      vertex 32 -10.64 2.4
    endloop
  endfacet
  facet normal 0 0 1
    outer loop
      vertex 32 -10.64 2.4
      vertex 3.35208 -0.850006 2.4
      vertex 29.6 -10.64 2.4
    endloop
  endfacet
  facet normal 0 0 1
    outer loop
      vertex 27 -10.64 2.4
      vertex 24.6 -10.64 2.4
      vertex 27 -45.36 2.4
    endloop
  endfacet
  facet normal 0 0 1
    outer loop
      vertex 29.6 -10.64 2.4
      vertex 3.35208 -0.850006 2.4
      vertex 27 -10.64 2.4
    endloop
  endfacet
  facet normal 0 0 1
    outer loop
      vertex 27 -10.64 2.4
      vertex 3.35208 -0.850006 2.4
      vertex 24.6 -10.64 2.4
    endloop
  endfacet
  facet normal 0 0 1
    outer loop
      vertex 22 -10.64 2.4
      vertex 19.6 -10.64 2.4
      vertex 22 -45.36 2.4
    endloop
  endfacet
  facet normal 0 0 1
    outer loop
      vertex 24.6 -10.64 2.4
      vertex 3.35208 -0.850006 2.4
      vertex 22 -10.64 2.4
    endloop
  endfacet
  facet normal 0 0 1
    outer loop
      vertex 22 -10.64 2.4
      vertex 3.35208 -0.850006 2.4
      vertex 19.6 -10.64 2.4
    endloop
  endfacet
  facet normal 0 0 1
    outer loop
      vertex 17 -10.64 2.4
      vertex 14.6 -10.64 2.4
      vertex 17 -45.36 2.4
    endloop
  endfacet
  facet normal 0 0 1
    outer loop
      vertex 19.6 -10.64 2.4
      vertex 3.35208 -0.850006 2.4
      vertex 17 -10.64 2.4
    endloop
  endfacet
  facet normal 0 0 1
    outer loop
      vertex 17 -10.64 2.4
      vertex 3.35208 -0.850006 2.4
      vertex 14.6 -10.64 2.4
    endloop
  endfacet
  facet normal 0 0 1
    outer loop
      vertex 0.850006 -52.6479 2.4
      vertex 12 -45.36 2.4
      vertex 12 -10.64 2.4
    endloop
  endfacet
  facet normal 0 0 1
    outer loop
      vertex 14.6 -10.64 2.4
      vertex 3.35208 -0.850006 2.4
      vertex 12 -10.64 2.4
    endloop
  endfacet
  facet normal -0 0 1
    outer loop
      vertex 0.850006 -3.35208 2.4
      vertex 12 -10.64 2.4
      vertex 3.35208 -0.850006 2.4
    endloop
  endfacet
  facet normal 0 0 1
    outer loop
      vertex 0.850006 -52.6479 2.4
      vertex 12 -10.64 2.4
      vertex 0.850006 -3.35208 2.4
    endloop
  endfacet
  facet normal 0 0 1
    outer loop
      vertex 12 -45.36 2.4
      vertex 0.850006 -52.6479 2.4
      vertex 6 -53 2.4
    endloop
  endfacet
  facet normal 0 -0 1
    outer loop
      vertex 3.35208 -55.15 2.4
      vertex 6 -53 2.4
      vertex 0.850006 -52.6479 2.4
    endloop
  endfacet
  facet normal 0 0 1
    outer loop
      vertex 6 -53 2.4
      vertex 3.35208 -55.15 2.4
      vertex 6 -55.15 2.4
    endloop
  endfacet
  facet normal 0 0 1
    outer loop
      vertex 84.15 -52.6479 2.4
      vertex 69.6 -45.36 2.4
      vertex 81.6479 -55.15 2.4
    endloop
  endfacet
  facet normal 0 0 1
    outer loop
      vertex 59 -55.15 2.4
      vertex 69.6 -45.36 2.4
      vertex 67 -45.36 2.4
    endloop
  endfacet
  facet normal 0 0 1
    outer loop
      vertex 64.6 -45.36 2.4
      vertex 67 -45.36 2.4
      vertex 64.6 -10.64 2.4
    endloop
  endfacet
  facet normal 0 0 1
    outer loop
      vertex 59 -53 2.4
      vertex 67 -45.36 2.4
      vertex 64.6 -45.36 2.4
    endloop
  endfacet
  facet normal 0 0 1
    outer loop
      vertex 59 -53 2.4
      vertex 64.6 -45.36 2.4
      vertex 62 -45.36 2.4
    endloop
  endfacet
  facet normal 0 0 1
    outer loop
      vertex 59.6 -45.36 2.4
      vertex 62 -45.36 2.4
      vertex 59.6 -10.64 2.4
    endloop
  endfacet
  facet normal 0 0 1
    outer loop
      vertex 59 -53 2.4
      vertex 62 -45.36 2.4
      vertex 59.6 -45.36 2.4
    endloop
  endfacet
  facet normal 0 0 1
    outer loop
      vertex 67 -45.36 2.4
      vertex 59 -53 2.4
      vertex 59 -55.15 2.4
    endloop
  endfacet
  facet normal 0 0 1
    outer loop
      vertex 69.6 -45.36 2.4
      vertex 59 -55.15 2.4
      vertex 81.6479 -55.15 2.4
    endloop
  endfacet
  facet normal 0 -1 0
    outer loop
      vertex 59 -59.2 1.39
      vertex 83.3255 -59.2 2.4
      vertex 59 -59.2 2.4
    endloop
  endfacet
  facet normal 0 -1 -0
    outer loop
      vertex 83.3255 -59.2 2.4
      vertex 59 -59.2 1.39
      vertex 83.3255 -59.2 1.39
    endloop
  endfacet
  facet normal 0 -1 0
    outer loop
      vertex 1.67451 -59.2 1.39
      vertex 6 -59.2 2.4
      vertex 1.67451 -59.2 2.4
    endloop
  endfacet
  facet normal 0 -1 -0
    outer loop
      vertex 6 -59.2 2.4
      vertex 1.67451 -59.2 1.39
      vertex 6 -59.2 1.39
    endloop
  endfacet
  facet normal -0.707107 0.707107 0
    outer loop
      vertex -3.2 -1.67451 1.39
      vertex 1.67451 3.2 2.4
      vertex 1.67451 3.2 1.39
    endloop
  endfacet
  facet normal -0.707107 0.707107 0
    outer loop
      vertex 1.67451 3.2 2.4
      vertex -3.2 -1.67451 1.39
      vertex -3.2 -1.67451 2.4
    endloop
  endfacet
  facet normal 0.707108 0.707106 0
    outer loop
      vertex 88.2 -1.67451 2.4
      vertex 83.3255 3.2 1.39
      vertex 83.3255 3.2 2.4
    endloop
  endfacet
  facet normal 0.707108 0.707106 0
    outer loop
      vertex 83.3255 3.2 1.39
      vertex 88.2 -1.67451 2.4
      vertex 88.2 -1.67451 1.39
    endloop
  endfacet
  facet normal -0.707106 -0.707108 0
    outer loop
      vertex 1.67451 -59.2 1.39
      vertex -3.2 -54.3255 2.4
      vertex -3.2 -54.3255 1.39
    endloop
  endfacet
  facet normal -0.707106 -0.707108 0
    outer loop
      vertex -3.2 -54.3255 2.4
      vertex 1.67451 -59.2 1.39
      vertex 1.67451 -59.2 2.4
    endloop
  endfacet
  facet normal 0 1 -0
    outer loop
      vertex 83.3255 3.2 1.39
      vertex 1.67451 3.2 2.4
      vertex 83.3255 3.2 2.4
    endloop
  endfacet
  facet normal 0 1 0
    outer loop
      vertex 1.67451 3.2 2.4
      vertex 83.3255 3.2 1.39
      vertex 1.67451 3.2 1.39
    endloop
  endfacet
  facet normal 0.704568 0 -0.709637
    outer loop
      vertex 86.8 -53.7456 0
      vertex 88.2 -1.67451 1.39
      vertex 88.2 -54.3255 1.39
    endloop
  endfacet
  facet normal 0.704568 0 -0.709637
    outer loop
      vertex 88.2 -1.67451 1.39
      vertex 86.8 -53.7456 0
      vertex 86.8 -2.25441 0
    endloop
  endfacet
  facet normal 0 -0.704568 -0.709637
    outer loop
      vertex 6 -59.2 1.39
      vertex 2.25441 -57.8 0
      vertex 6 -57.8 0
    endloop
  endfacet
  facet normal 0 -0.704568 -0.709637
    outer loop
      vertex 2.25441 -57.8 0
      vertex 6 -59.2 1.39
      vertex 1.67451 -59.2 1.39
    endloop
  endfacet
  facet normal 0 -0.704568 -0.709637
    outer loop
      vertex 59 -59.2 1.39
      vertex 82.7456 -57.8 0
      vertex 83.3255 -59.2 1.39
    endloop
  endfacet
  facet normal -0 -0.704568 -0.709637
    outer loop
      vertex 82.7456 -57.8 0
      vertex 59 -59.2 1.39
      vertex 59 -57.8 0
    endloop
  endfacet
  facet normal -0.704568 0 -0.709637
    outer loop
      vertex -3.2 -54.3255 1.39
      vertex -1.8 -2.25441 0
      vertex -1.8 -53.7456 0
    endloop
  endfacet
  facet normal -0.704568 0 -0.709637
    outer loop
      vertex -1.8 -2.25441 0
      vertex -3.2 -54.3255 1.39
      vertex -3.2 -1.67451 1.39
    endloop
  endfacet
  facet normal 0 0 -1
    outer loop
      vertex 6 -57.8 0
      vertex 2.25441 -57.8 0
      vertex 6 -53 0
    endloop
  endfacet
  facet normal 0 0 -1
    outer loop
      vertex 69.6 -45.36 0
      vertex 86.8 -53.7456 0
      vertex 82.7456 -57.8 0
    endloop
  endfacet
  facet normal 0 0 -1
    outer loop
      vertex 86.8 -53.7456 0
      vertex 69.6 -45.36 0
      vertex 86.8 -2.25441 0
    endloop
  endfacet
  facet normal 0 0 -1
    outer loop
      vertex 69.6 -10.64 0
      vertex 86.8 -2.25441 0
      vertex 69.6 -45.36 0
    endloop
  endfacet
  facet normal 0 0 -1
    outer loop
      vertex 59 -57.8 0
      vertex 69.6 -45.36 0
      vertex 82.7456 -57.8 0
    endloop
  endfacet
  facet normal 0 0 -1
    outer loop
      vertex 67 -45.36 0
      vertex 64.6 -45.36 0
      vertex 67 -10.64 0
    endloop
  endfacet
  facet normal 0 0 -1
    outer loop
      vertex 59 -53 0
      vertex 69.6 -45.36 0
      vertex 59 -57.8 0
    endloop
  endfacet
  facet normal -0 0 -1
    outer loop
      vertex 69.6 -45.36 0
      vertex 59 -53 0
      vertex 67 -45.36 0
    endloop
  endfacet
  facet normal 0 0 -1
    outer loop
      vertex 62 -45.36 0
      vertex 59.6 -45.36 0
      vertex 62 -10.64 0
    endloop
  endfacet
  facet normal -0 0 -1
    outer loop
      vertex 64.6 -45.36 0
      vertex 59 -53 0
      vertex 62 -45.36 0
    endloop
  endfacet
  facet normal -0 0 -1
    outer loop
      vertex 67 -45.36 0
      vertex 59 -53 0
      vertex 64.6 -45.36 0
    endloop
  endfacet
  facet normal -0 0 -1
    outer loop
      vertex 62 -45.36 0
      vertex 59 -53 0
      vertex 59.6 -45.36 0
    endloop
  endfacet
  facet normal 0 0 -1
    outer loop
      vertex 59 -53 0
      vertex 57 -45.36 0
      vertex 59.6 -45.36 0
    endloop
  endfacet
  facet normal 0 0 -1
    outer loop
      vertex 57 -45.36 0
      vertex 54.6 -45.36 0
      vertex 57 -10.64 0
    endloop
  endfacet
  facet normal 0 0 -1
    outer loop
      vertex 59 -53 0
      vertex 54.6 -45.36 0
      vertex 57 -45.36 0
    endloop
  endfacet
  facet normal 0 0 -1
    outer loop
      vertex 59 -53 0
      vertex 52 -45.36 0
      vertex 54.6 -45.36 0
    endloop
  endfacet
  facet normal 0 0 -1
    outer loop
      vertex 52 -45.36 0
      vertex 49.6 -45.36 0
      vertex 52 -10.64 0
    endloop
  endfacet
  facet normal 0 0 -1
    outer loop
      vertex 59 -53 0
      vertex 49.6 -45.36 0
      vertex 52 -45.36 0
    endloop
  endfacet
  facet normal 0 0 -1
    outer loop
      vertex 59 -53 0
      vertex 47 -45.36 0
      vertex 49.6 -45.36 0
    endloop
  endfacet
  facet normal 0 0 -1
    outer loop
      vertex 47 -45.36 0
      vertex 44.6 -45.36 0
      vertex 47 -10.64 0
    endloop
  endfacet
  facet normal 0 0 -1
    outer loop
      vertex 59 -53 0
      vertex 44.6 -45.36 0
      vertex 47 -45.36 0
    endloop
  endfacet
  facet normal 0 0 -1
    outer loop
      vertex 59 -53 0
      vertex 42 -45.36 0
      vertex 44.6 -45.36 0
    endloop
  endfacet
  facet normal 0 0 -1
    outer loop
      vertex 42 -45.36 0
      vertex 39.6 -45.36 0
      vertex 42 -10.64 0
    endloop
  endfacet
  facet normal 0 0 -1
    outer loop
      vertex 59 -53 0
      vertex 39.6 -45.36 0
      vertex 42 -45.36 0
    endloop
  endfacet
  facet normal 0 0 -1
    outer loop
      vertex 59 -53 0
      vertex 37 -45.36 0
      vertex 39.6 -45.36 0
    endloop
  endfacet
  facet normal 0 0 -1
    outer loop
      vertex 37 -45.36 0
      vertex 34.6 -45.36 0
      vertex 37 -10.64 0
    endloop
  endfacet
  facet normal 0 0 -1
    outer loop
      vertex 59 -53 0
      vertex 34.6 -45.36 0
      vertex 37 -45.36 0
    endloop
  endfacet
  facet normal 0 0 -1
    outer loop
      vertex 59 -53 0
      vertex 32 -45.36 0
      vertex 34.6 -45.36 0
    endloop
  endfacet
  facet normal 0 0 -1
    outer loop
      vertex 32 -45.36 0
      vertex 29.6 -45.36 0
      vertex 32 -10.64 0
    endloop
  endfacet
  facet normal 0 0 -1
    outer loop
      vertex 6 -53 0
      vertex 32 -45.36 0
      vertex 59 -53 0
    endloop
  endfacet
  facet normal -0 0 -1
    outer loop
      vertex 32 -45.36 0
      vertex 6 -53 0
      vertex 29.6 -45.36 0
    endloop
  endfacet
  facet normal 0 0 -1
    outer loop
      vertex 27 -45.36 0
      vertex 24.6 -45.36 0
      vertex 27 -10.64 0
    endloop
  endfacet
  facet normal -0 0 -1
    outer loop
      vertex 29.6 -45.36 0
      vertex 6 -53 0
      vertex 27 -45.36 0
    endloop
  endfacet
  facet normal -0 0 -1
    outer loop
      vertex 27 -45.36 0
      vertex 6 -53 0
      vertex 24.6 -45.36 0
    endloop
  endfacet
  facet normal 0 0 -1
    outer loop
      vertex 22 -45.36 0
      vertex 19.6 -45.36 0
      vertex 22 -10.64 0
    endloop
  endfacet
  facet normal -0 0 -1
    outer loop
      vertex 24.6 -45.36 0
      vertex 6 -53 0
      vertex 22 -45.36 0
    endloop
  endfacet
  facet normal -0 0 -1
    outer loop
      vertex 22 -45.36 0
      vertex 6 -53 0
      vertex 19.6 -45.36 0
    endloop
  endfacet
  facet normal 0 0 -1
    outer loop
      vertex 17 -45.36 0
      vertex 14.6 -45.36 0
      vertex 17 -10.64 0
    endloop
  endfacet
  facet normal -0 0 -1
    outer loop
      vertex 19.6 -45.36 0
      vertex 6 -53 0
      vertex 17 -45.36 0
    endloop
  endfacet
  facet normal -0 0 -1
    outer loop
      vertex 17 -45.36 0
      vertex 6 -53 0
      vertex 14.6 -45.36 0
    endloop
  endfacet
  facet normal 0 0 -1
    outer loop
      vertex -1.8 -53.7456 0
      vertex 12 -45.36 0
      vertex 6 -53 0
    endloop
  endfacet
  facet normal -0 0 -1
    outer loop
      vertex 14.6 -45.36 0
      vertex 6 -53 0
      vertex 12 -45.36 0
    endloop
  endfacet
  facet normal -0 0 -1
    outer loop
      vertex 86.8 -2.25441 0
      vertex 69.6 -10.64 0
      vertex 82.7456 1.8 0
    endloop
  endfacet
  facet normal 0 0 -1
    outer loop
      vertex 67 -10.64 0
      vertex 82.7456 1.8 0
      vertex 69.6 -10.64 0
    endloop
  endfacet
  facet normal 0 0 -1
    outer loop
      vertex 64.6 -10.64 0
      vertex 67 -10.64 0
      vertex 64.6 -45.36 0
    endloop
  endfacet
  facet normal 0 0 -1
    outer loop
      vertex 64.6 -10.64 0
      vertex 82.7456 1.8 0
      vertex 67 -10.64 0
    endloop
  endfacet
  facet normal 0 0 -1
    outer loop
      vertex 62 -10.64 0
      vertex 82.7456 1.8 0
      vertex 64.6 -10.64 0
    endloop
  endfacet
  facet normal 0 0 -1
    outer loop
      vertex 59.6 -10.64 0
      vertex 62 -10.64 0
      vertex 59.6 -45.36 0
    endloop
  endfacet
  facet normal 0 0 -1
    outer loop
      vertex 59.6 -10.64 0
      vertex 82.7456 1.8 0
      vertex 62 -10.64 0
    endloop
  endfacet
  facet normal 0 0 -1
    outer loop
      vertex 57 -10.64 0
      vertex 82.7456 1.8 0
      vertex 59.6 -10.64 0
    endloop
  endfacet
  facet normal 0 0 -1
    outer loop
      vertex 54.6 -10.64 0
      vertex 57 -10.64 0
      vertex 54.6 -45.36 0
    endloop
  endfacet
  facet normal 0 0 -1
    outer loop
      vertex 54.6 -10.64 0
      vertex 82.7456 1.8 0
      vertex 57 -10.64 0
    endloop
  endfacet
  facet normal 0 0 -1
    outer loop
      vertex 52 -10.64 0
      vertex 82.7456 1.8 0
      vertex 54.6 -10.64 0
    endloop
  endfacet
  facet normal 0 0 -1
    outer loop
      vertex 49.6 -10.64 0
      vertex 52 -10.64 0
      vertex 49.6 -45.36 0
    endloop
  endfacet
  facet normal 0 0 -1
    outer loop
      vertex 49.6 -10.64 0
      vertex 82.7456 1.8 0
      vertex 52 -10.64 0
    endloop
  endfacet
  facet normal 0 0 -1
    outer loop
      vertex 47 -10.64 0
      vertex 82.7456 1.8 0
      vertex 49.6 -10.64 0
    endloop
  endfacet
  facet normal 0 0 -1
    outer loop
      vertex 44.6 -10.64 0
      vertex 47 -10.64 0
      vertex 44.6 -45.36 0
    endloop
  endfacet
  facet normal 0 0 -1
    outer loop
      vertex 44.6 -10.64 0
      vertex 82.7456 1.8 0
      vertex 47 -10.64 0
    endloop
  endfacet
  facet normal 0 0 -1
    outer loop
      vertex 42 -10.64 0
      vertex 82.7456 1.8 0
      vertex 44.6 -10.64 0
    endloop
  endfacet
  facet normal 0 0 -1
    outer loop
      vertex 39.6 -10.64 0
      vertex 42 -10.64 0
      vertex 39.6 -45.36 0
    endloop
  endfacet
  facet normal 0 0 -1
    outer loop
      vertex 2.25441 1.8 0
      vertex 42 -10.64 0
      vertex 39.6 -10.64 0
    endloop
  endfacet
  facet normal 0 0 -1
    outer loop
      vertex 2.25441 1.8 0
      vertex 39.6 -10.64 0
      vertex 37 -10.64 0
    endloop
  endfacet
  facet normal 0 0 -1
    outer loop
      vertex 34.6 -10.64 0
      vertex 37 -10.64 0
      vertex 34.6 -45.36 0
    endloop
  endfacet
  facet normal 0 0 -1
    outer loop
      vertex 2.25441 1.8 0
      vertex 37 -10.64 0
      vertex 34.6 -10.64 0
    endloop
  endfacet
  facet normal 0 0 -1
    outer loop
      vertex 2.25441 1.8 0
      vertex 34.6 -10.64 0
      vertex 32 -10.64 0
    endloop
  endfacet
  facet normal 0 0 -1
    outer loop
      vertex 29.6 -10.64 0
      vertex 32 -10.64 0
      vertex 29.6 -45.36 0
    endloop
  endfacet
  facet normal 0 0 -1
    outer loop
      vertex 2.25441 1.8 0
      vertex 32 -10.64 0
      vertex 29.6 -10.64 0
    endloop
  endfacet
  facet normal 0 0 -1
    outer loop
      vertex 2.25441 1.8 0
      vertex 29.6 -10.64 0
      vertex 27 -10.64 0
    endloop
  endfacet
  facet normal 0 0 -1
    outer loop
      vertex 24.6 -10.64 0
      vertex 27 -10.64 0
      vertex 24.6 -45.36 0
    endloop
  endfacet
  facet normal 0 0 -1
    outer loop
      vertex 2.25441 1.8 0
      vertex 27 -10.64 0
      vertex 24.6 -10.64 0
    endloop
  endfacet
  facet normal 0 0 -1
    outer loop
      vertex 2.25441 1.8 0
      vertex 24.6 -10.64 0
      vertex 22 -10.64 0
    endloop
  endfacet
  facet normal 0 0 -1
    outer loop
      vertex 19.6 -10.64 0
      vertex 22 -10.64 0
      vertex 19.6 -45.36 0
    endloop
  endfacet
  facet normal 0 0 -1
    outer loop
      vertex 2.25441 1.8 0
      vertex 22 -10.64 0
      vertex 19.6 -10.64 0
    endloop
  endfacet
  facet normal 0 0 -1
    outer loop
      vertex 2.25441 1.8 0
      vertex 19.6 -10.64 0
      vertex 17 -10.64 0
    endloop
  endfacet
  facet normal 0 0 -1
    outer loop
      vertex 14.6 -10.64 0
      vertex 17 -10.64 0
      vertex 14.6 -45.36 0
    endloop
  endfacet
  facet normal 0 0 -1
    outer loop
      vertex 2.25441 1.8 0
      vertex 17 -10.64 0
      vertex 14.6 -10.64 0
    endloop
  endfacet
  facet normal 0 0 -1
    outer loop
      vertex 2.25441 1.8 0
      vertex 14.6 -10.64 0
      vertex 12 -10.64 0
    endloop
  endfacet
  facet normal 0 0 -1
    outer loop
      vertex -1.8 -53.7456 0
      vertex 6 -53 0
      vertex 2.25441 -57.8 0
    endloop
  endfacet
  facet normal 0 0 -1
    outer loop
      vertex 42 -10.64 0
      vertex 2.25441 1.8 0
      vertex 82.7456 1.8 0
    endloop
  endfacet
  facet normal -0 0 -1
    outer loop
      vertex 12 -45.36 0
      vertex -1.8 -53.7456 0
      vertex 12 -10.64 0
    endloop
  endfacet
  facet normal 0 0 -1
    outer loop
      vertex -1.8 -2.25441 0
      vertex 12 -10.64 0
      vertex -1.8 -53.7456 0
    endloop
  endfacet
  facet normal 0 0 -1
    outer loop
      vertex 12 -10.64 0
      vertex -1.8 -2.25441 0
      vertex 2.25441 1.8 0
    endloop
  endfacet
  facet normal 0.498205 0.498204 -0.709637
    outer loop
      vertex 86.8 -2.25441 0
      vertex 83.3255 3.2 1.39
      vertex 88.2 -1.67451 1.39
    endloop
  endfacet
  facet normal 0.498205 0.498204 -0.709637
    outer loop
      vertex 83.3255 3.2 1.39
      vertex 86.8 -2.25441 0
      vertex 82.7456 1.8 0
    endloop
  endfacet
  facet normal 0.498205 -0.498205 -0.709637
    outer loop
      vertex 83.3255 -59.2 1.39
      vertex 86.8 -53.7456 0
      vertex 88.2 -54.3255 1.39
    endloop
  endfacet
  facet normal 0.498205 -0.498205 -0.709637
    outer loop
      vertex 86.8 -53.7456 0
      vertex 83.3255 -59.2 1.39
      vertex 82.7456 -57.8 0
    endloop
  endfacet
  facet normal 0 0.704568 -0.709637
    outer loop
      vertex 2.25441 1.8 0
      vertex 83.3255 3.2 1.39
      vertex 82.7456 1.8 0
    endloop
  endfacet
  facet normal 0 0.704568 -0.709637
    outer loop
      vertex 83.3255 3.2 1.39
      vertex 2.25441 1.8 0
      vertex 1.67451 3.2 1.39
    endloop
  endfacet
  facet normal -0.498205 0.498205 -0.709637
    outer loop
      vertex -1.8 -2.25441 0
      vertex 1.67451 3.2 1.39
      vertex 2.25441 1.8 0
    endloop
  endfacet
  facet normal -0.498205 0.498205 -0.709637
    outer loop
      vertex 1.67451 3.2 1.39
      vertex -1.8 -2.25441 0
      vertex -3.2 -1.67451 1.39
    endloop
  endfacet
  facet normal -0.498204 -0.498205 -0.709637
    outer loop
      vertex 1.67451 -59.2 1.39
      vertex -1.8 -53.7456 0
      vertex 2.25441 -57.8 0
    endloop
  endfacet
  facet normal -0.498204 -0.498205 -0.709637
    outer loop
      vertex -1.8 -53.7456 0
      vertex 1.67451 -59.2 1.39
      vertex -3.2 -54.3255 1.39
    endloop
  endfacet
  facet normal 1 -0 0
    outer loop
      vertex 12 -45.36 2.4
      vertex 12 -10.64 0
      vertex 12 -10.64 2.4
    endloop
  endfacet
  facet normal 1 0 0
    outer loop
      vertex 12 -10.64 0
      vertex 12 -45.36 2.4
      vertex 12 -45.36 0
    endloop
  endfacet
  facet normal -1 0 0
    outer loop
      vertex 14.6 -45.36 0
      vertex 14.6 -10.64 2.4
      vertex 14.6 -10.64 0
    endloop
  endfacet
  facet normal -1 -0 0
    outer loop
      vertex 14.6 -10.64 2.4
      vertex 14.6 -45.36 0
      vertex 14.6 -45.36 2.4
    endloop
  endfacet
  facet normal 0 1 -0
    outer loop
      vertex 14.6 -45.36 0
      vertex 12 -45.36 2.4
      vertex 14.6 -45.36 2.4
    endloop
  endfacet
  facet normal 0 1 0
    outer loop
      vertex 12 -45.36 2.4
      vertex 14.6 -45.36 0
      vertex 12 -45.36 0
    endloop
  endfacet
  facet normal 0 -1 0
    outer loop
      vertex 12 -10.64 0
      vertex 14.6 -10.64 2.4
      vertex 12 -10.64 2.4
    endloop
  endfacet
  facet normal 0 -1 -0
    outer loop
      vertex 14.6 -10.64 2.4
      vertex 12 -10.64 0
      vertex 14.6 -10.64 0
    endloop
  endfacet
  facet normal 1 -0 0
    outer loop
      vertex 17 -45.36 2.4
      vertex 17 -10.64 0
      vertex 17 -10.64 2.4
    endloop
  endfacet
  facet normal 1 0 0
    outer loop
      vertex 17 -10.64 0
      vertex 17 -45.36 2.4
      vertex 17 -45.36 0
    endloop
  endfacet
  facet normal -1 0 0
    outer loop
      vertex 19.6 -45.36 0
      vertex 19.6 -10.64 2.4
      vertex 19.6 -10.64 0
    endloop
  endfacet
  facet normal -1 -0 0
    outer loop
      vertex 19.6 -10.64 2.4
      vertex 19.6 -45.36 0
      vertex 19.6 -45.36 2.4
    endloop
  endfacet
  facet normal 0 1 -0
    outer loop
      vertex 19.6 -45.36 0
      vertex 17 -45.36 2.4
      vertex 19.6 -45.36 2.4
    endloop
  endfacet
  facet normal 0 1 0
    outer loop
      vertex 17 -45.36 2.4
      vertex 19.6 -45.36 0
      vertex 17 -45.36 0
    endloop
  endfacet
  facet normal 0 -1 0
    outer loop
      vertex 17 -10.64 0
      vertex 19.6 -10.64 2.4
      vertex 17 -10.64 2.4
    endloop
  endfacet
  facet normal 0 -1 -0
    outer loop
      vertex 19.6 -10.64 2.4
      vertex 17 -10.64 0
      vertex 19.6 -10.64 0
    endloop
  endfacet
  facet normal 1 -0 0
    outer loop
      vertex 22 -45.36 2.4
      vertex 22 -10.64 0
      vertex 22 -10.64 2.4
    endloop
  endfacet
  facet normal 1 0 0
    outer loop
      vertex 22 -10.64 0
      vertex 22 -45.36 2.4
      vertex 22 -45.36 0
    endloop
  endfacet
  facet normal -1 0 0
    outer loop
      vertex 24.6 -45.36 0
      vertex 24.6 -10.64 2.4
      vertex 24.6 -10.64 0
    endloop
  endfacet
  facet normal -1 -0 0
    outer loop
      vertex 24.6 -10.64 2.4
      vertex 24.6 -45.36 0
      vertex 24.6 -45.36 2.4
    endloop
  endfacet
  facet normal 0 1 -0
    outer loop
      vertex 24.6 -45.36 0
      vertex 22 -45.36 2.4
      vertex 24.6 -45.36 2.4
    endloop
  endfacet
  facet normal 0 1 0
    outer loop
      vertex 22 -45.36 2.4
      vertex 24.6 -45.36 0
      vertex 22 -45.36 0
    endloop
  endfacet
  facet normal 0 -1 0
    outer loop
      vertex 22 -10.64 0
      vertex 24.6 -10.64 2.4
      vertex 22 -10.64 2.4
    endloop
  endfacet
  facet normal 0 -1 -0
    outer loop
      vertex 24.6 -10.64 2.4
      vertex 22 -10.64 0
      vertex 24.6 -10.64 0
    endloop
  endfacet
  facet normal 1 -0 0
    outer loop
      vertex 27 -45.36 2.4
      vertex 27 -10.64 0
      vertex 27 -10.64 2.4
    endloop
  endfacet
  facet normal 1 0 0
    outer loop
      vertex 27 -10.64 0
      vertex 27 -45.36 2.4
      vertex 27 -45.36 0
    endloop
  endfacet
  facet normal -1 0 0
    outer loop
      vertex 29.6 -45.36 0
      vertex 29.6 -10.64 2.4
      vertex 29.6 -10.64 0
    endloop
  endfacet
  facet normal -1 -0 0
    outer loop
      vertex 29.6 -10.64 2.4
      vertex 29.6 -45.36 0
      vertex 29.6 -45.36 2.4
    endloop
  endfacet
  facet normal 0 1 -0
    outer loop
      vertex 29.6 -45.36 0
      vertex 27 -45.36 2.4
      vertex 29.6 -45.36 2.4
    endloop
  endfacet
  facet normal 0 1 0
    outer loop
      vertex 27 -45.36 2.4
      vertex 29.6 -45.36 0
      vertex 27 -45.36 0
    endloop
  endfacet
  facet normal 0 -1 0
    outer loop
      vertex 27 -10.64 0
      vertex 29.6 -10.64 2.4
      vertex 27 -10.64 2.4
    endloop
  endfacet
  facet normal 0 -1 -0
    outer loop
      vertex 29.6 -10.64 2.4
      vertex 27 -10.64 0
      vertex 29.6 -10.64 0
    endloop
  endfacet
  facet normal 1 -0 0
    outer loop
      vertex 32 -45.36 2.4
      vertex 32 -10.64 0
      vertex 32 -10.64 2.4
    endloop
  endfacet
  facet normal 1 0 0
    outer loop
      vertex 32 -10.64 0
      vertex 32 -45.36 2.4
      vertex 32 -45.36 0
    endloop
  endfacet
  facet normal -1 0 0
    outer loop
      vertex 34.6 -45.36 0
      vertex 34.6 -10.64 2.4
      vertex 34.6 -10.64 0
    endloop
  endfacet
  facet normal -1 -0 0
    outer loop
      vertex 34.6 -10.64 2.4
      vertex 34.6 -45.36 0
      vertex 34.6 -45.36 2.4
    endloop
  endfacet
  facet normal 0 -1 0
    outer loop
      vertex 32 -10.64 0
      vertex 34.6 -10.64 2.4
      vertex 32 -10.64 2.4
    endloop
  endfacet
  facet normal 0 -1 -0
    outer loop
      vertex 34.6 -10.64 2.4
      vertex 32 -10.64 0
      vertex 34.6 -10.64 0
    endloop
  endfacet
  facet normal 0 1 -0
    outer loop
      vertex 34.6 -45.36 0
      vertex 32 -45.36 2.4
      vertex 34.6 -45.36 2.4
    endloop
  endfacet
  facet normal 0 1 0
    outer loop
      vertex 32 -45.36 2.4
      vertex 34.6 -45.36 0
      vertex 32 -45.36 0
    endloop
  endfacet
  facet normal 1 -0 0
    outer loop
      vertex 37 -45.36 2.4
      vertex 37 -10.64 0
      vertex 37 -10.64 2.4
    endloop
  endfacet
  facet normal 1 0 0
    outer loop
      vertex 37 -10.64 0
      vertex 37 -45.36 2.4
      vertex 37 -45.36 0
    endloop
  endfacet
  facet normal -1 0 0
    outer loop
      vertex 39.6 -45.36 0
      vertex 39.6 -10.64 2.4
      vertex 39.6 -10.64 0
    endloop
  endfacet
  facet normal -1 -0 0
    outer loop
      vertex 39.6 -10.64 2.4
      vertex 39.6 -45.36 0
      vertex 39.6 -45.36 2.4
    endloop
  endfacet
  facet normal 0 -1 0
    outer loop
      vertex 37 -10.64 0
      vertex 39.6 -10.64 2.4
      vertex 37 -10.64 2.4
    endloop
  endfacet
  facet normal 0 -1 -0
    outer loop
      vertex 39.6 -10.64 2.4
      vertex 37 -10.64 0
      vertex 39.6 -10.64 0
    endloop
  endfacet
  facet normal 0 1 -0
    outer loop
      vertex 39.6 -45.36 0
      vertex 37 -45.36 2.4
      vertex 39.6 -45.36 2.4
    endloop
  endfacet
  facet normal 0 1 0
    outer loop
      vertex 37 -45.36 2.4
      vertex 39.6 -45.36 0
      vertex 37 -45.36 0
    endloop
  endfacet
  facet normal 1 -0 0
    outer loop
      vertex 42 -45.36 2.4
      vertex 42 -10.64 0
      vertex 42 -10.64 2.4
    endloop
  endfacet
  facet normal 1 0 0
    outer loop
      vertex 42 -10.64 0
      vertex 42 -45.36 2.4
      vertex 42 -45.36 0
    endloop
  endfacet
  facet normal -1 0 0
    outer loop
      vertex 44.6 -45.36 0
      vertex 44.6 -10.64 2.4
      vertex 44.6 -10.64 0
    endloop
  endfacet
  facet normal -1 -0 0
    outer loop
      vertex 44.6 -10.64 2.4
      vertex 44.6 -45.36 0
      vertex 44.6 -45.36 2.4
    endloop
  endfacet
  facet normal 0 -1 0
    outer loop
      vertex 42 -10.64 0
      vertex 44.6 -10.64 2.4
      vertex 42 -10.64 2.4
    endloop
  endfacet
  facet normal 0 -1 -0
    outer loop
      vertex 44.6 -10.64 2.4
      vertex 42 -10.64 0
      vertex 44.6 -10.64 0
    endloop
  endfacet
  facet normal 0 1 -0
    outer loop
      vertex 44.6 -45.36 0
      vertex 42 -45.36 2.4
      vertex 44.6 -45.36 2.4
    endloop
  endfacet
  facet normal 0 1 0
    outer loop
      vertex 42 -45.36 2.4
      vertex 44.6 -45.36 0
      vertex 42 -45.36 0
    endloop
  endfacet
  facet normal 1 -0 0
    outer loop
      vertex 47 -45.36 2.4
      vertex 47 -10.64 0
      vertex 47 -10.64 2.4
    endloop
  endfacet
  facet normal 1 0 0
    outer loop
      vertex 47 -10.64 0
      vertex 47 -45.36 2.4
      vertex 47 -45.36 0
    endloop
  endfacet
  facet normal -1 0 0
    outer loop
      vertex 49.6 -45.36 0
      vertex 49.6 -10.64 2.4
      vertex 49.6 -10.64 0
    endloop
  endfacet
  facet normal -1 -0 0
    outer loop
      vertex 49.6 -10.64 2.4
      vertex 49.6 -45.36 0
      vertex 49.6 -45.36 2.4
    endloop
  endfacet
  facet normal 0 -1 0
    outer loop
      vertex 47 -10.64 0
      vertex 49.6 -10.64 2.4
      vertex 47 -10.64 2.4
    endloop
  endfacet
  facet normal 0 -1 -0
    outer loop
      vertex 49.6 -10.64 2.4
      vertex 47 -10.64 0
      vertex 49.6 -10.64 0
    endloop
  endfacet
  facet normal 0 1 -0
    outer loop
      vertex 49.6 -45.36 0
      vertex 47 -45.36 2.4
      vertex 49.6 -45.36 2.4
    endloop
  endfacet
  facet normal 0 1 0
    outer loop
      vertex 47 -45.36 2.4
      vertex 49.6 -45.36 0
      vertex 47 -45.36 0
    endloop
  endfacet
  facet normal 1 -0 0
    outer loop
      vertex 52 -45.36 2.4
      vertex 52 -10.64 0
      vertex 52 -10.64 2.4
    endloop
  endfacet
  facet normal 1 0 0
    outer loop
      vertex 52 -10.64 0
      vertex 52 -45.36 2.4
      vertex 52 -45.36 0
    endloop
  endfacet
  facet normal -1 0 0
    outer loop
      vertex 54.6 -45.36 0
      vertex 54.6 -10.64 2.4
      vertex 54.6 -10.64 0
    endloop
  endfacet
  facet normal -1 -0 0
    outer loop
      vertex 54.6 -10.64 2.4
      vertex 54.6 -45.36 0
      vertex 54.6 -45.36 2.4
    endloop
  endfacet
  facet normal 0 1 -0
    outer loop
      vertex 54.6 -45.36 0
      vertex 52 -45.36 2.4
      vertex 54.6 -45.36 2.4
    endloop
  endfacet
  facet normal 0 1 0
    outer loop
      vertex 52 -45.36 2.4
      vertex 54.6 -45.36 0
      vertex 52 -45.36 0
    endloop
  endfacet
  facet normal 0 -1 0
    outer loop
      vertex 52 -10.64 0
      vertex 54.6 -10.64 2.4
      vertex 52 -10.64 2.4
    endloop
  endfacet
  facet normal 0 -1 -0
    outer loop
      vertex 54.6 -10.64 2.4
      vertex 52 -10.64 0
      vertex 54.6 -10.64 0
    endloop
  endfacet
  facet normal 1 -0 0
    outer loop
      vertex 57 -45.36 2.4
      vertex 57 -10.64 0
      vertex 57 -10.64 2.4
    endloop
  endfacet
  facet normal 1 0 0
    outer loop
      vertex 57 -10.64 0
      vertex 57 -45.36 2.4
      vertex 57 -45.36 0
    endloop
  endfacet
  facet normal -1 0 0
    outer loop
      vertex 59.6 -45.36 0
      vertex 59.6 -10.64 2.4
      vertex 59.6 -10.64 0
    endloop
  endfacet
  facet normal -1 -0 0
    outer loop
      vertex 59.6 -10.64 2.4
      vertex 59.6 -45.36 0
      vertex 59.6 -45.36 2.4
    endloop
  endfacet
  facet normal 0 1 -0
    outer loop
      vertex 59.6 -45.36 0
      vertex 57 -45.36 2.4
      vertex 59.6 -45.36 2.4
    endloop
  endfacet
  facet normal 0 1 0
    outer loop
      vertex 57 -45.36 2.4
      vertex 59.6 -45.36 0
      vertex 57 -45.36 0
    endloop
  endfacet
  facet normal 0 -1 0
    outer loop
      vertex 57 -10.64 0
      vertex 59.6 -10.64 2.4
      vertex 57 -10.64 2.4
    endloop
  endfacet
  facet normal 0 -1 -0
    outer loop
      vertex 59.6 -10.64 2.4
      vertex 57 -10.64 0
      vertex 59.6 -10.64 0
    endloop
  endfacet
  facet normal 1 -0 0
    outer loop
      vertex 62 -45.36 2.4
      vertex 62 -10.64 0
      vertex 62 -10.64 2.4
    endloop
  endfacet
  facet normal 1 0 0
    outer loop
      vertex 62 -10.64 0
      vertex 62 -45.36 2.4
      vertex 62 -45.36 0
    endloop
  endfacet
  facet normal -1 0 0
    outer loop
      vertex 64.6 -45.36 0
      vertex 64.6 -10.64 2.4
      vertex 64.6 -10.64 0
    endloop
  endfacet
  facet normal -1 -0 0
    outer loop
      vertex 64.6 -10.64 2.4
      vertex 64.6 -45.36 0
      vertex 64.6 -45.36 2.4
    endloop
  endfacet
  facet normal 0 1 -0
    outer loop
      vertex 64.6 -45.36 0
      vertex 62 -45.36 2.4
      vertex 64.6 -45.36 2.4
    endloop
  endfacet
  facet normal 0 1 0
    outer loop
      vertex 62 -45.36 2.4
      vertex 64.6 -45.36 0
      vertex 62 -45.36 0
    endloop
  endfacet
  facet normal 0 -1 0
    outer loop
      vertex 62 -10.64 0
      vertex 64.6 -10.64 2.4
      vertex 62 -10.64 2.4
    endloop
  endfacet
  facet normal 0 -1 -0
    outer loop
      vertex 64.6 -10.64 2.4
      vertex 62 -10.64 0
      vertex 64.6 -10.64 0
    endloop
  endfacet
  facet normal 1 -0 0
    outer loop
      vertex 67 -45.36 2.4
      vertex 67 -10.64 0
      vertex 67 -10.64 2.4
    endloop
  endfacet
  facet normal 1 0 0
    outer loop
      vertex 67 -10.64 0
      vertex 67 -45.36 2.4
      vertex 67 -45.36 0
    endloop
  endfacet
  facet normal -1 0 0
    outer loop
      vertex 69.6 -45.36 0
      vertex 69.6 -10.64 2.4
      vertex 69.6 -10.64 0
    endloop
  endfacet
  facet normal -1 -0 0
    outer loop
      vertex 69.6 -10.64 2.4
      vertex 69.6 -45.36 0
      vertex 69.6 -45.36 2.4
    endloop
  endfacet
  facet normal 0 1 -0
    outer loop
      vertex 69.6 -45.36 0
      vertex 67 -45.36 2.4
      vertex 69.6 -45.36 2.4
    endloop
  endfacet
  facet normal 0 1 0
    outer loop
      vertex 67 -45.36 2.4
      vertex 69.6 -45.36 0
      vertex 67 -45.36 0
    endloop
  endfacet
  facet normal 0 -1 0
    outer loop
      vertex 67 -10.64 0
      vertex 69.6 -10.64 2.4
      vertex 67 -10.64 2.4
    endloop
  endfacet
  facet normal 0 -1 -0
    outer loop
      vertex 69.6 -10.64 2.4
      vertex 67 -10.64 0
      vertex 69.6 -10.64 0
    endloop
  endfacet
  facet normal 1 0 0
    outer loop
      vertex 6 -55.15 5.4
      vertex 6 -56.35 4.35
      vertex 6 -55.15 2.4
    endloop
  endfacet
  facet normal 1 0 0
    outer loop
      vertex 6 -56.55 4.6
      vertex 6 -55.15 5.4
      vertex 6 -56.55 5.4
    endloop
  endfacet
  facet normal 1 0 0
    outer loop
      vertex 6 -55.15 5.4
      vertex 6 -56.55 4.6
      vertex 6 -56.35 4.35
    endloop
  endfacet
  facet normal 1 0 0
    outer loop
      vertex 6 -56.95 4.35
      vertex 6 -56.55 4.6
      vertex 6 -56.95 4.6
    endloop
  endfacet
  facet normal 1 0 0
    outer loop
      vertex 6 -56.55 4.6
      vertex 6 -56.95 4.35
      vertex 6 -56.35 4.35
    endloop
  endfacet
  facet normal 1 -0 0
    outer loop
      vertex 6 -55.15 2.4
      vertex 6 -53 0
      vertex 6 -53 2.4
    endloop
  endfacet
  facet normal 1 -0 0
    outer loop
      vertex 6 -56.35 2.75
      vertex 6 -55.15 2.4
      vertex 6 -56.35 4.35
    endloop
  endfacet
  facet normal 1 0 0
    outer loop
      vertex 6 -56.95 2.4
      vertex 6 -55.15 2.4
      vertex 6 -56.35 2.75
    endloop
  endfacet
  facet normal 1 0 0
    outer loop
      vertex 6 -56.95 2.4
      vertex 6 -56.35 2.75
      vertex 6 -56.95 2.75
    endloop
  endfacet
  facet normal 1 0 0
    outer loop
      vertex 6 -55.15 2.4
      vertex 6 -56.95 2.4
      vertex 6 -57.8 0
    endloop
  endfacet
  facet normal 1 0 0
    outer loop
      vertex 6 -55.15 2.4
      vertex 6 -57.8 0
      vertex 6 -53 0
    endloop
  endfacet
  facet normal 1 0 0
    outer loop
      vertex 6 -59.2 1.39
      vertex 6 -56.95 2.4
      vertex 6 -59.2 2.4
    endloop
  endfacet
  facet normal 1 0 0
    outer loop
      vertex 6 -56.95 2.4
      vertex 6 -59.2 1.39
      vertex 6 -57.8 0
    endloop
  endfacet
  facet normal -1 0 0
    outer loop
      vertex 59 -56.95 4.35
      vertex 59 -56.55 4.6
      vertex 59 -56.35 4.35
    endloop
  endfacet
  facet normal -1 -0 0
    outer loop
      vertex 59 -56.55 4.6
      vertex 59 -56.95 4.35
      vertex 59 -56.95 4.6
    endloop
  endfacet
  facet normal -1 0 0
    outer loop
      vertex 59 -53 0
      vertex 59 -55.15 2.4
      vertex 59 -53 2.4
    endloop
  endfacet
  facet normal -1 0 0
    outer loop
      vertex 59 -56.35 4.35
      vertex 59 -55.15 2.4
      vertex 59 -56.35 2.75
    endloop
  endfacet
  facet normal -1 0 0
    outer loop
      vertex 59 -57.8 0
      vertex 59 -55.15 2.4
      vertex 59 -53 0
    endloop
  endfacet
  facet normal -1 0 -0
    outer loop
      vertex 59 -56.95 2.4
      vertex 59 -55.15 2.4
      vertex 59 -57.8 0
    endloop
  endfacet
  facet normal -1 0 0
    outer loop
      vertex 59 -55.15 2.4
      vertex 59 -56.95 2.4
      vertex 59 -56.35 2.75
    endloop
  endfacet
  facet normal -1 0 0
    outer loop
      vertex 59 -59.2 1.39
      vertex 59 -56.95 2.4
      vertex 59 -57.8 0
    endloop
  endfacet
  facet normal -1 -0 0
    outer loop
      vertex 59 -56.95 2.4
      vertex 59 -59.2 1.39
      vertex 59 -59.2 2.4
    endloop
  endfacet
  facet normal -1 0 0
    outer loop
      vertex 59 -55.15 2.4
      vertex 59 -56.35 4.35
      vertex 59 -55.15 5.4
    endloop
  endfacet
  facet normal -1 0 0
    outer loop
      vertex 59 -56.55 4.6
      vertex 59 -55.15 5.4
      vertex 59 -56.35 4.35
    endloop
  endfacet
  facet normal -1 -0 0
    outer loop
      vertex 59 -55.15 5.4
      vertex 59 -56.55 4.6
      vertex 59 -56.55 5.4
    endloop
  endfacet
  facet normal -1 -0 0
    outer loop
      vertex 59 -56.35 2.75
      vertex 59 -56.95 2.4
      vertex 59 -56.95 2.75
    endloop
  endfacet
  facet normal 0 -1 0
    outer loop
      vertex 6 -53 0
      vertex 59 -53 2.4
      vertex 6 -53 2.4
    endloop
  endfacet
  facet normal 0 -1 -0
    outer loop
      vertex 59 -53 2.4
      vertex 6 -53 0
      vertex 59 -53 0
    endloop
  endfacet
  facet normal 0 0 -1
    outer loop
      vertex 6 -56.95 4.35
      vertex 2.85503 -56.35 4.35
      vertex 6 -56.35 4.35
    endloop
  endfacet
  facet normal 0 0 -1
    outer loop
      vertex 2.60649 -56.95 4.35
      vertex 2.85503 -56.35 4.35
      vertex 6 -56.95 4.35
    endloop
  endfacet
  facet normal 0 0 -1
    outer loop
      vertex 2.60649 -56.95 4.35
      vertex -0.350006 -53.145 4.35
      vertex 2.85503 -56.35 4.35
    endloop
  endfacet
  facet normal -0 0 -1
    outer loop
      vertex -0.350006 -53.145 4.35
      vertex -0.949997 -53.3935 4.35
      vertex -0.350006 -2.85503 4.35
    endloop
  endfacet
  facet normal 0 0 -1
    outer loop
      vertex -0.949997 -53.3935 4.35
      vertex -0.350006 -53.145 4.35
      vertex 2.60649 -56.95 4.35
    endloop
  endfacet
  facet normal 0 0 -1
    outer loop
      vertex 85.95 -53.3935 4.35
      vertex 85.35 -53.145 4.35
      vertex 85.95 -2.60649 4.35
    endloop
  endfacet
  facet normal 0 0 -1
    outer loop
      vertex 82.3935 -56.95 4.35
      vertex 85.35 -53.145 4.35
      vertex 85.95 -53.3935 4.35
    endloop
  endfacet
  facet normal 0 0 -1
    outer loop
      vertex 82.3935 -56.95 4.35
      vertex 82.145 -56.35 4.35
      vertex 85.35 -53.145 4.35
    endloop
  endfacet
  facet normal 0 0 -1
    outer loop
      vertex 59 -56.95 4.35
      vertex 82.145 -56.35 4.35
      vertex 82.3935 -56.95 4.35
    endloop
  endfacet
  facet normal -0 0 -1
    outer loop
      vertex 82.145 -56.35 4.35
      vertex 59 -56.95 4.35
      vertex 59 -56.35 4.35
    endloop
  endfacet
  facet normal 0 0 -1
    outer loop
      vertex 85.35 -2.85503 4.35
      vertex 85.95 -2.60649 4.35
      vertex 85.35 -53.145 4.35
    endloop
  endfacet
  facet normal 0 0 -1
    outer loop
      vertex 85.35 -2.85503 4.35
      vertex 82.3935 0.949997 4.35
      vertex 85.95 -2.60649 4.35
    endloop
  endfacet
  facet normal 0 0 -1
    outer loop
      vertex 82.145 0.350006 4.35
      vertex 82.3935 0.949997 4.35
      vertex 85.35 -2.85503 4.35
    endloop
  endfacet
  facet normal 0 0 -1
    outer loop
      vertex 2.85503 0.350006 4.35
      vertex 82.3935 0.949997 4.35
      vertex 82.145 0.350006 4.35
    endloop
  endfacet
  facet normal 0 0 -1
    outer loop
      vertex 2.85503 0.350006 4.35
      vertex 2.60649 0.949997 4.35
      vertex 82.3935 0.949997 4.35
    endloop
  endfacet
  facet normal 0 0 -1
    outer loop
      vertex -0.350006 -2.85503 4.35
      vertex 2.60649 0.949997 4.35
      vertex 2.85503 0.350006 4.35
    endloop
  endfacet
  facet normal 0 0 -1
    outer loop
      vertex -0.350006 -2.85503 4.35
      vertex -0.949997 -2.60649 4.35
      vertex 2.60649 0.949997 4.35
    endloop
  endfacet
  facet normal 0 0 -1
    outer loop
      vertex -0.949997 -2.60649 4.35
      vertex -0.350006 -2.85503 4.35
      vertex -0.949997 -53.3935 4.35
    endloop
  endfacet
  facet normal 0 0 1
    outer loop
      vertex 85.95 -2.60649 2.75
      vertex 85.35 -2.85503 2.75
      vertex 85.95 -53.3935 2.75
    endloop
  endfacet
  facet normal 0 0 1
    outer loop
      vertex 82.3935 0.949997 2.75
      vertex 85.35 -2.85503 2.75
      vertex 85.95 -2.60649 2.75
    endloop
  endfacet
  facet normal 0 0 1
    outer loop
      vertex 82.3935 0.949997 2.75
      vertex 82.145 0.350006 2.75
      vertex 85.35 -2.85503 2.75
    endloop
  endfacet
  facet normal 0 0 1
    outer loop
      vertex 82.3935 0.949997 2.75
      vertex 2.85503 0.350006 2.75
      vertex 82.145 0.350006 2.75
    endloop
  endfacet
  facet normal -0 0 1
    outer loop
      vertex 2.60649 0.949997 2.75
      vertex 2.85503 0.350006 2.75
      vertex 82.3935 0.949997 2.75
    endloop
  endfacet
  facet normal 0 0 1
    outer loop
      vertex 2.60649 0.949997 2.75
      vertex -0.350006 -2.85503 2.75
      vertex 2.85503 0.350006 2.75
    endloop
  endfacet
  facet normal 0 0 1
    outer loop
      vertex -0.350006 -2.85503 2.75
      vertex -0.949997 -2.60649 2.75
      vertex -0.350006 -53.145 2.75
    endloop
  endfacet
  facet normal -0 0 1
    outer loop
      vertex -0.949997 -2.60649 2.75
      vertex -0.350006 -2.85503 2.75
      vertex 2.60649 0.949997 2.75
    endloop
  endfacet
  facet normal -0 0 1
    outer loop
      vertex 85.35 -53.145 2.75
      vertex 85.95 -53.3935 2.75
      vertex 85.35 -2.85503 2.75
    endloop
  endfacet
  facet normal 0 0 1
    outer loop
      vertex 85.35 -53.145 2.75
      vertex 82.3935 -56.95 2.75
      vertex 85.95 -53.3935 2.75
    endloop
  endfacet
  facet normal -0 0 1
    outer loop
      vertex 82.145 -56.35 2.75
      vertex 82.3935 -56.95 2.75
      vertex 85.35 -53.145 2.75
    endloop
  endfacet
  facet normal 0 0 1
    outer loop
      vertex 59 -56.95 2.75
      vertex 82.145 -56.35 2.75
      vertex 59 -56.35 2.75
    endloop
  endfacet
  facet normal 0 0 1
    outer loop
      vertex 82.145 -56.35 2.75
      vertex 59 -56.95 2.75
      vertex 82.3935 -56.95 2.75
    endloop
  endfacet
  facet normal -0 0 1
    outer loop
      vertex 2.85503 -56.35 2.75
      vertex 6 -56.95 2.75
      vertex 6 -56.35 2.75
    endloop
  endfacet
  facet normal 0 0 1
    outer loop
      vertex 2.85503 -56.35 2.75
      vertex 2.60649 -56.95 2.75
      vertex 6 -56.95 2.75
    endloop
  endfacet
  facet normal 0 0 1
    outer loop
      vertex -0.350006 -53.145 2.75
      vertex 2.60649 -56.95 2.75
      vertex 2.85503 -56.35 2.75
    endloop
  endfacet
  facet normal 0 0 1
    outer loop
      vertex -0.350006 -53.145 2.75
      vertex -0.949997 -53.3935 2.75
      vertex 2.60649 -56.95 2.75
    endloop
  endfacet
  facet normal 0 0 1
    outer loop
      vertex -0.949997 -53.3935 2.75
      vertex -0.350006 -53.145 2.75
      vertex -0.949997 -2.60649 2.75
    endloop
  endfacet
  facet normal -0.707107 0.707107 0
    outer loop
      vertex -0.350006 -2.85503 2.75
      vertex 2.85503 0.350006 4.35
      vertex 2.85503 0.350006 2.75
    endloop
  endfacet
  facet normal -0.707107 0.707107 0
    outer loop
      vertex 2.85503 0.350006 4.35
      vertex -0.350006 -2.85503 2.75
      vertex -0.350006 -2.85503 4.35
    endloop
  endfacet
  facet normal -1 0 0
    outer loop
      vertex -0.350006 -53.145 2.75
      vertex -0.350006 -2.85503 4.35
      vertex -0.350006 -2.85503 2.75
    endloop
  endfacet
  facet normal -1 -0 0
    outer loop
      vertex -0.350006 -2.85503 4.35
      vertex -0.350006 -53.145 2.75
      vertex -0.350006 -53.145 4.35
    endloop
  endfacet
  facet normal -0.707103 -0.707111 0
    outer loop
      vertex 2.85503 -56.35 2.75
      vertex -0.350006 -53.145 4.35
      vertex -0.350006 -53.145 2.75
    endloop
  endfacet
  facet normal -0.707103 -0.707111 0
    outer loop
      vertex -0.350006 -53.145 4.35
      vertex 2.85503 -56.35 2.75
      vertex 2.85503 -56.35 4.35
    endloop
  endfacet
  facet normal 0 -1 0
    outer loop
      vertex 59 -56.35 2.75
      vertex 82.145 -56.35 4.35
      vertex 59 -56.35 4.35
    endloop
  endfacet
  facet normal 0 -1 -0
    outer loop
      vertex 82.145 -56.35 4.35
      vertex 59 -56.35 2.75
      vertex 82.145 -56.35 2.75
    endloop
  endfacet
  facet normal 0 -1 0
    outer loop
      vertex 2.85503 -56.35 2.75
      vertex 6 -56.35 4.35
      vertex 2.85503 -56.35 4.35
    endloop
  endfacet
  facet normal 0 -1 -0
    outer loop
      vertex 6 -56.35 4.35
      vertex 2.85503 -56.35 2.75
      vertex 6 -56.35 2.75
    endloop
  endfacet
  facet normal 0.707107 -0.707107 0
    outer loop
      vertex 82.145 -56.35 4.35
      vertex 85.35 -53.145 2.75
      vertex 85.35 -53.145 4.35
    endloop
  endfacet
  facet normal 0.707107 -0.707107 0
    outer loop
      vertex 85.35 -53.145 2.75
      vertex 82.145 -56.35 4.35
      vertex 82.145 -56.35 2.75
    endloop
  endfacet
  facet normal 1 -0 0
    outer loop
      vertex 85.35 -53.145 4.35
      vertex 85.35 -2.85503 2.75
      vertex 85.35 -2.85503 4.35
    endloop
  endfacet
  facet normal 1 0 0
    outer loop
      vertex 85.35 -2.85503 2.75
      vertex 85.35 -53.145 4.35
      vertex 85.35 -53.145 2.75
    endloop
  endfacet
  facet normal 0.707111 0.707103 0
    outer loop
      vertex 85.35 -2.85503 4.35
      vertex 82.145 0.350006 2.75
      vertex 82.145 0.350006 4.35
    endloop
  endfacet
  facet normal 0.707111 0.707103 0
    outer loop
      vertex 82.145 0.350006 2.75
      vertex 85.35 -2.85503 4.35
      vertex 85.35 -2.85503 2.75
    endloop
  endfacet
  facet normal 0 1 -0
    outer loop
      vertex 82.145 0.350006 2.75
      vertex 2.85503 0.350006 4.35
      vertex 82.145 0.350006 4.35
    endloop
  endfacet
  facet normal 0 1 0
    outer loop
      vertex 2.85503 0.350006 4.35
      vertex 82.145 0.350006 2.75
      vertex 2.85503 0.350006 2.75
    endloop
  endfacet
endsolid OpenSCAD_Model
