solid OpenSCAD_Model
  facet normal 0 0 1
    outer loop
      vertex 85.3 -2.87573 5.4
      vertex 83.9 -3.45563 5.4
      vertex 85.3 -53.1243 5.4
    endloop
  endfacet
  facet normal 0 0 1
    outer loop
      vertex 82.1243 0.300003 5.4
      vertex 83.9 -3.45563 5.4
      vertex 85.3 -2.87573 5.4
    endloop
  endfacet
  facet normal 0 0 1
    outer loop
      vertex 82.1243 0.300003 5.4
      vertex 81.5444 -1.10001 5.4
      vertex 83.9 -3.45563 5.4
    endloop
  endfacet
  facet normal 0 0 1
    outer loop
      vertex 82.1243 0.300003 5.4
      vertex 3.45563 -1.10001 5.4
      vertex 81.5444 -1.10001 5.4
    endloop
  endfacet
  facet normal -0 0 1
    outer loop
      vertex 2.87573 0.300003 5.4
      vertex 3.45563 -1.10001 5.4
      vertex 82.1243 0.300003 5.4
    endloop
  endfacet
  facet normal 0 0 1
    outer loop
      vertex 2.87573 0.300003 5.4
      vertex 1.10001 -3.45563 5.4
      vertex 3.45563 -1.10001 5.4
    endloop
  endfacet
  facet normal 0 0 1
    outer loop
      vertex 1.10001 -3.45563 5.4
      vertex -0.300003 -2.87573 5.4
      vertex 1.10001 -52.5444 5.4
    endloop
  endfacet
  facet normal -0 0 1
    outer loop
      vertex -0.300003 -2.87573 5.4
      vertex 1.10001 -3.45563 5.4
      vertex 2.87573 0.300003 5.4
    endloop
  endfacet
  facet normal -0 0 1
    outer loop
      vertex 83.9 -52.5444 5.4
      vertex 85.3 -53.1243 5.4
      vertex 83.9 -3.45563 5.4
    endloop
  endfacet
  facet normal 0 0 1
    outer loop
      vertex 83.9 -52.5444 5.4
      vertex 82.1243 -56.3 5.4
      vertex 85.3 -53.1243 5.4
    endloop
  endfacet
  facet normal -0 0 1
    outer loop
      vertex 81.5444 -54.9 5.4
      vertex 82.1243 -56.3 5.4
      vertex 83.9 -52.5444 5.4
    endloop
  endfacet
  facet normal -0 0 1
    outer loop
      vertex 3.45563 -54.9 5.4
      vertex 82.1243 -56.3 5.4
      vertex 81.5444 -54.9 5.4
    endloop
  endfacet
  facet normal 0 0 1
    outer loop
      vertex 3.45563 -54.9 5.4
      vertex 2.87573 -56.3 5.4
      vertex 82.1243 -56.3 5.4
    endloop
  endfacet
  facet normal 0 0 1
    outer loop
      vertex 1.10001 -52.5444 5.4
      vertex 2.87573 -56.3 5.4
      vertex 3.45563 -54.9 5.4
    endloop
  endfacet
  facet normal 0 0 1
    outer loop
      vertex 1.10001 -52.5444 5.4
      vertex -0.300003 -53.1243 5.4
      vertex 2.87573 -56.3 5.4
    endloop
  endfacet
  facet normal 0 0 1
    outer loop
      vertex -0.300003 -53.1243 5.4
      vertex 1.10001 -52.5444 5.4
      vertex -0.300003 -2.87573 5.4
    endloop
  endfacet
  facet normal 0 0 1
    outer loop
      vertex 85.7 -2.71005 4.6
      vertex 85.3 -2.87573 4.6
      vertex 85.7 -53.2899 4.6
    endloop
  endfacet
  facet normal 0 0 1
    outer loop
      vertex 82.2899 0.699997 4.6
      vertex 85.3 -2.87573 4.6
      vertex 85.7 -2.71005 4.6
    endloop
  endfacet
  facet normal 0 0 1
    outer loop
      vertex 82.2899 0.699997 4.6
      vertex 82.1243 0.300003 4.6
      vertex 85.3 -2.87573 4.6
    endloop
  endfacet
  facet normal 0 0 1
    outer loop
      vertex 82.2899 0.699997 4.6
      vertex 2.87573 0.300003 4.6
      vertex 82.1243 0.300003 4.6
    endloop
  endfacet
  facet normal -0 0 1
    outer loop
      vertex 2.71005 0.699997 4.6
      vertex 2.87573 0.300003 4.6
      vertex 82.2899 0.699997 4.6
    endloop
  endfacet
  facet normal 0 0 1
    outer loop
      vertex 2.71005 0.699997 4.6
      vertex -0.300003 -2.87573 4.6
      vertex 2.87573 0.300003 4.6
    endloop
  endfacet
  facet normal 0 0 1
    outer loop
      vertex -0.300003 -2.87573 4.6
      vertex -0.699997 -2.71005 4.6
      vertex -0.300003 -53.1243 4.6
    endloop
  endfacet
  facet normal -0 0 1
    outer loop
      vertex -0.699997 -2.71005 4.6
      vertex -0.300003 -2.87573 4.6
      vertex 2.71005 0.699997 4.6
    endloop
  endfacet
  facet normal -0 0 1
    outer loop
      vertex 85.3 -53.1243 4.6
      vertex 85.7 -53.2899 4.6
      vertex 85.3 -2.87573 4.6
    endloop
  endfacet
  facet normal 0 0 1
    outer loop
      vertex 85.3 -53.1243 4.6
      vertex 82.2899 -56.7 4.6
      vertex 85.7 -53.2899 4.6
    endloop
  endfacet
  facet normal -0 0 1
    outer loop
      vertex 82.1243 -56.3 4.6
      vertex 82.2899 -56.7 4.6
      vertex 85.3 -53.1243 4.6
    endloop
  endfacet
  facet normal -0 0 1
    outer loop
      vertex 2.87573 -56.3 4.6
      vertex 82.2899 -56.7 4.6
      vertex 82.1243 -56.3 4.6
    endloop
  endfacet
  facet normal 0 0 1
    outer loop
      vertex 2.87573 -56.3 4.6
      vertex 2.71005 -56.7 4.6
      vertex 82.2899 -56.7 4.6
    endloop
  endfacet
  facet normal 0 0 1
    outer loop
      vertex -0.300003 -53.1243 4.6
      vertex 2.71005 -56.7 4.6
      vertex 2.87573 -56.3 4.6
    endloop
  endfacet
  facet normal 0 0 1
    outer loop
      vertex -0.300003 -53.1243 4.6
      vertex -0.699997 -53.2899 4.6
      vertex 2.71005 -56.7 4.6
    endloop
  endfacet
  facet normal 0 0 1
    outer loop
      vertex -0.699997 -53.2899 4.6
      vertex -0.300003 -53.1243 4.6
      vertex -0.699997 -2.71005 4.6
    endloop
  endfacet
  facet normal 1 -0 0
    outer loop
      vertex 85.3 -53.1243 5.4
      vertex 85.3 -2.87573 4.6
      vertex 85.3 -2.87573 5.4
    endloop
  endfacet
  facet normal 1 0 0
    outer loop
      vertex 85.3 -2.87573 4.6
      vertex 85.3 -53.1243 5.4
      vertex 85.3 -53.1243 4.6
    endloop
  endfacet
  facet normal 0.707107 -0.707107 0
    outer loop
      vertex 82.1243 -56.3 5.4
      vertex 85.3 -53.1243 4.6
      vertex 85.3 -53.1243 5.4
    endloop
  endfacet
  facet normal 0.707107 -0.707107 0
    outer loop
      vertex 85.3 -53.1243 4.6
      vertex 82.1243 -56.3 5.4
      vertex 82.1243 -56.3 4.6
    endloop
  endfacet
  facet normal 0 -1 0
    outer loop
      vertex 2.87573 -56.3 4.6
      vertex 82.1243 -56.3 5.4
      vertex 2.87573 -56.3 5.4
    endloop
  endfacet
  facet normal 0 -1 -0
    outer loop
      vertex 82.1243 -56.3 5.4
      vertex 2.87573 -56.3 4.6
      vertex 82.1243 -56.3 4.6
    endloop
  endfacet
  facet normal -0.707103 -0.70711 0
    outer loop
      vertex 2.87573 -56.3 4.6
      vertex -0.300003 -53.1243 5.4
      vertex -0.300003 -53.1243 4.6
    endloop
  endfacet
  facet normal -0.707103 -0.70711 0
    outer loop
      vertex -0.300003 -53.1243 5.4
      vertex 2.87573 -56.3 4.6
      vertex 2.87573 -56.3 5.4
    endloop
  endfacet
  facet normal -1 0 0
    outer loop
      vertex -0.300003 -53.1243 4.6
      vertex -0.300003 -2.87573 5.4
      vertex -0.300003 -2.87573 4.6
    endloop
  endfacet
  facet normal -1 -0 0
    outer loop
      vertex -0.300003 -2.87573 5.4
      vertex -0.300003 -53.1243 4.6
      vertex -0.300003 -53.1243 5.4
    endloop
  endfacet
  facet normal -0.707107 0.707107 0
    outer loop
      vertex -0.300003 -2.87573 4.6
      vertex 2.87573 0.300003 5.4
      vertex 2.87573 0.300003 4.6
    endloop
  endfacet
  facet normal -0.707107 0.707107 0
    outer loop
      vertex 2.87573 0.300003 5.4
      vertex -0.300003 -2.87573 4.6
      vertex -0.300003 -2.87573 5.4
    endloop
  endfacet
  facet normal 0 1 -0
    outer loop
      vertex 82.1243 0.300003 4.6
      vertex 2.87573 0.300003 5.4
      vertex 82.1243 0.300003 5.4
    endloop
  endfacet
  facet normal 0 1 0
    outer loop
      vertex 2.87573 0.300003 5.4
      vertex 82.1243 0.300003 4.6
      vertex 2.87573 0.300003 4.6
    endloop
  endfacet
  facet normal 0.70711 0.707103 0
    outer loop
      vertex 85.3 -2.87573 5.4
      vertex 82.1243 0.300003 4.6
      vertex 82.1243 0.300003 5.4
    endloop
  endfacet
  facet normal 0.70711 0.707103 0
    outer loop
      vertex 82.1243 0.300003 4.6
      vertex 85.3 -2.87573 5.4
      vertex 85.3 -2.87573 4.6
    endloop
  endfacet
  facet normal 0.707107 -0.707107 0
    outer loop
      vertex 1.10001 -3.45563 5.4
      vertex 3.45563 -1.10001 2.4
      vertex 3.45563 -1.10001 5.4
    endloop
  endfacet
  facet normal 0.707107 -0.707107 0
    outer loop
      vertex 3.45563 -1.10001 2.4
      vertex 1.10001 -3.45563 5.4
      vertex 1.10001 -3.45563 2.4
    endloop
  endfacet
  facet normal 1 -0 0
    outer loop
      vertex 1.10001 -52.5444 5.4
      vertex 1.10001 -3.45563 2.4
      vertex 1.10001 -3.45563 5.4
    endloop
  endfacet
  facet normal 1 0 0
    outer loop
      vertex 1.10001 -3.45563 2.4
      vertex 1.10001 -52.5444 5.4
      vertex 1.10001 -52.5444 2.4
    endloop
  endfacet
  facet normal 0.707104 0.70711 0
    outer loop
      vertex 3.45563 -54.9 5.4
      vertex 1.10001 -52.5444 2.4
      vertex 1.10001 -52.5444 5.4
    endloop
  endfacet
  facet normal 0.707104 0.70711 0
    outer loop
      vertex 1.10001 -52.5444 2.4
      vertex 3.45563 -54.9 5.4
      vertex 3.45563 -54.9 2.4
    endloop
  endfacet
  facet normal 0 1 0
    outer loop
      vertex 81.5444 -54.9 5.4
      vertex 59 -54.9 2.5
      vertex 3.45563 -54.9 5.4
    endloop
  endfacet
  facet normal 0 1 -0
    outer loop
      vertex 81.5444 -54.9 2.4
      vertex 59 -54.9 2.5
      vertex 81.5444 -54.9 5.4
    endloop
  endfacet
  facet normal 0 1 0
    outer loop
      vertex 59 -54.9 2.5
      vertex 81.5444 -54.9 2.4
      vertex 59 -54.9 2.4
    endloop
  endfacet
  facet normal 0 1 -0
    outer loop
      vertex 6 -54.9 2.5
      vertex 3.45563 -54.9 5.4
      vertex 59 -54.9 2.5
    endloop
  endfacet
  facet normal 0 1 0
    outer loop
      vertex 3.45563 -54.9 2.4
      vertex 6 -54.9 2.5
      vertex 6 -54.9 2.4
    endloop
  endfacet
  facet normal 0 1 0
    outer loop
      vertex 6 -54.9 2.5
      vertex 3.45563 -54.9 2.4
      vertex 3.45563 -54.9 5.4
    endloop
  endfacet
  facet normal -0.707107 0.707107 0
    outer loop
      vertex 81.5444 -54.9 2.4
      vertex 83.9 -52.5444 5.4
      vertex 83.9 -52.5444 2.4
    endloop
  endfacet
  facet normal -0.707107 0.707107 0
    outer loop
      vertex 83.9 -52.5444 5.4
      vertex 81.5444 -54.9 2.4
      vertex 81.5444 -54.9 5.4
    endloop
  endfacet
  facet normal -1 0 0
    outer loop
      vertex 83.9 -52.5444 2.4
      vertex 83.9 -3.45563 5.4
      vertex 83.9 -3.45563 2.4
    endloop
  endfacet
  facet normal -1 -0 0
    outer loop
      vertex 83.9 -3.45563 5.4
      vertex 83.9 -52.5444 2.4
      vertex 83.9 -52.5444 5.4
    endloop
  endfacet
  facet normal -0.70711 -0.707104 0
    outer loop
      vertex 83.9 -3.45563 2.4
      vertex 81.5444 -1.10001 5.4
      vertex 81.5444 -1.10001 2.4
    endloop
  endfacet
  facet normal -0.70711 -0.707104 0
    outer loop
      vertex 81.5444 -1.10001 5.4
      vertex 83.9 -3.45563 2.4
      vertex 83.9 -3.45563 5.4
    endloop
  endfacet
  facet normal 0 -1 0
    outer loop
      vertex 3.45563 -1.10001 2.4
      vertex 81.5444 -1.10001 5.4
      vertex 3.45563 -1.10001 5.4
    endloop
  endfacet
  facet normal 0 -1 -0
    outer loop
      vertex 81.5444 -1.10001 5.4
      vertex 3.45563 -1.10001 2.4
      vertex 81.5444 -1.10001 2.4
    endloop
  endfacet
  facet normal 1 -0 0
    outer loop
      vertex 85.7 -53.2899 4.6
      vertex 85.7 -2.71005 4.35
      vertex 85.7 -2.71005 4.6
    endloop
  endfacet
  facet normal 1 0 0
    outer loop
      vertex 85.7 -2.71005 4.35
      vertex 85.7 -53.2899 4.6
      vertex 85.7 -53.2899 4.35
    endloop
  endfacet
  facet normal 1 -0 0
    outer loop
      vertex 85.7 -53.2899 2.75
      vertex 85.7 -2.71005 2.4
      vertex 85.7 -2.71005 2.75
    endloop
  endfacet
  facet normal 1 0 0
    outer loop
      vertex 85.7 -2.71005 2.4
      vertex 85.7 -53.2899 2.75
      vertex 85.7 -53.2899 2.4
    endloop
  endfacet
  facet normal 0.707107 -0.707107 0
    outer loop
      vertex 82.2899 -56.7 4.6
      vertex 85.7 -53.2899 4.35
      vertex 85.7 -53.2899 4.6
    endloop
  endfacet
  facet normal 0.707107 -0.707107 0
    outer loop
      vertex 85.7 -53.2899 4.35
      vertex 82.2899 -56.7 4.6
      vertex 82.2899 -56.7 4.35
    endloop
  endfacet
  facet normal 0.707107 -0.707107 0
    outer loop
      vertex 82.2899 -56.7 2.75
      vertex 85.7 -53.2899 2.4
      vertex 85.7 -53.2899 2.75
    endloop
  endfacet
  facet normal 0.707107 -0.707107 0
    outer loop
      vertex 85.7 -53.2899 2.4
      vertex 82.2899 -56.7 2.75
      vertex 82.2899 -56.7 2.4
    endloop
  endfacet
  facet normal 0 -1 0
    outer loop
      vertex 2.71005 -56.7 4.35
      vertex 82.2899 -56.7 4.6
      vertex 2.71005 -56.7 4.6
    endloop
  endfacet
  facet normal 0 -1 -0
    outer loop
      vertex 82.2899 -56.7 4.6
      vertex 2.71005 -56.7 4.35
      vertex 82.2899 -56.7 4.35
    endloop
  endfacet
  facet normal 0 -1 0
    outer loop
      vertex 59 -56.7 2.5
      vertex 2.71005 -56.7 2.75
      vertex 6 -56.7 2.5
    endloop
  endfacet
  facet normal 0 -1 0
    outer loop
      vertex 2.71005 -56.7 2.4
      vertex 6 -56.7 2.5
      vertex 2.71005 -56.7 2.75
    endloop
  endfacet
  facet normal 0 -1 -0
    outer loop
      vertex 6 -56.7 2.5
      vertex 2.71005 -56.7 2.4
      vertex 6 -56.7 2.4
    endloop
  endfacet
  facet normal 0 -1 0
    outer loop
      vertex 2.71005 -56.7 2.75
      vertex 59 -56.7 2.5
      vertex 82.2899 -56.7 2.75
    endloop
  endfacet
  facet normal 0 -1 0
    outer loop
      vertex 82.2899 -56.7 2.4
      vertex 59 -56.7 2.5
      vertex 59 -56.7 2.4
    endloop
  endfacet
  facet normal 0 -1 0
    outer loop
      vertex 59 -56.7 2.5
      vertex 82.2899 -56.7 2.4
      vertex 82.2899 -56.7 2.75
    endloop
  endfacet
  facet normal -0.707112 -0.707101 0
    outer loop
      vertex 2.71005 -56.7 4.35
      vertex -0.699997 -53.2899 4.6
      vertex -0.699997 -53.2899 4.35
    endloop
  endfacet
  facet normal -0.707112 -0.707101 0
    outer loop
      vertex -0.699997 -53.2899 4.6
      vertex 2.71005 -56.7 4.35
      vertex 2.71005 -56.7 4.6
    endloop
  endfacet
  facet normal -0.707112 -0.707101 0
    outer loop
      vertex 2.71005 -56.7 2.4
      vertex -0.699997 -53.2899 2.75
      vertex -0.699997 -53.2899 2.4
    endloop
  endfacet
  facet normal -0.707112 -0.707101 0
    outer loop
      vertex -0.699997 -53.2899 2.75
      vertex 2.71005 -56.7 2.4
      vertex 2.71005 -56.7 2.75
    endloop
  endfacet
  facet normal -1 0 0
    outer loop
      vertex -0.699997 -53.2899 4.35
      vertex -0.699997 -2.71005 4.6
      vertex -0.699997 -2.71005 4.35
    endloop
  endfacet
  facet normal -1 -0 0
    outer loop
      vertex -0.699997 -2.71005 4.6
      vertex -0.699997 -53.2899 4.35
      vertex -0.699997 -53.2899 4.6
    endloop
  endfacet
  facet normal -1 0 0
    outer loop
      vertex -0.699997 -53.2899 2.4
      vertex -0.699997 -2.71005 2.75
      vertex -0.699997 -2.71005 2.4
    endloop
  endfacet
  facet normal -1 -0 0
    outer loop
      vertex -0.699997 -2.71005 2.75
      vertex -0.699997 -53.2899 2.4
      vertex -0.699997 -53.2899 2.75
    endloop
  endfacet
  facet normal -0.707107 0.707107 0
    outer loop
      vertex -0.699997 -2.71005 4.35
      vertex 2.71005 0.699997 4.6
      vertex 2.71005 0.699997 4.35
    endloop
  endfacet
  facet normal -0.707107 0.707107 0
    outer loop
      vertex 2.71005 0.699997 4.6
      vertex -0.699997 -2.71005 4.35
      vertex -0.699997 -2.71005 4.6
    endloop
  endfacet
  facet normal -0.707107 0.707107 0
    outer loop
      vertex -0.699997 -2.71005 2.4
      vertex 2.71005 0.699997 2.75
      vertex 2.71005 0.699997 2.4
    endloop
  endfacet
  facet normal -0.707107 0.707107 0
    outer loop
      vertex 2.71005 0.699997 2.75
      vertex -0.699997 -2.71005 2.4
      vertex -0.699997 -2.71005 2.75
    endloop
  endfacet
  facet normal 0 1 -0
    outer loop
      vertex 82.2899 0.699997 4.35
      vertex 2.71005 0.699997 4.6
      vertex 82.2899 0.699997 4.6
    endloop
  endfacet
  facet normal 0 1 0
    outer loop
      vertex 2.71005 0.699997 4.6
      vertex 82.2899 0.699997 4.35
      vertex 2.71005 0.699997 4.35
    endloop
  endfacet
  facet normal 0 1 -0
    outer loop
      vertex 82.2899 0.699997 2.4
      vertex 2.71005 0.699997 2.75
      vertex 82.2899 0.699997 2.75
    endloop
  endfacet
  facet normal 0 1 0
    outer loop
      vertex 2.71005 0.699997 2.75
      vertex 82.2899 0.699997 2.4
      vertex 2.71005 0.699997 2.4
    endloop
  endfacet
  facet normal 0.707101 0.707112 0
    outer loop
      vertex 85.7 -2.71005 4.6
      vertex 82.2899 0.699997 4.35
      vertex 82.2899 0.699997 4.6
    endloop
  endfacet
  facet normal 0.707101 0.707112 0
    outer loop
      vertex 82.2899 0.699997 4.35
      vertex 85.7 -2.71005 4.6
      vertex 85.7 -2.71005 4.35
    endloop
  endfacet
  facet normal 0.707101 0.707112 0
    outer loop
      vertex 85.7 -2.71005 2.75
      vertex 82.2899 0.699997 2.4
      vertex 82.2899 0.699997 2.75
    endloop
  endfacet
  facet normal 0.707101 0.707112 0
    outer loop
      vertex 82.2899 0.699997 2.4
      vertex 85.7 -2.71005 2.75
      vertex 85.7 -2.71005 2.4
    endloop
  endfacet
  facet normal 0.707107 -0.707107 0
    outer loop
      vertex 83.2426 -59 2.4
      vertex 88 -54.2426 1.39
      vertex 88 -54.2426 2.4
    endloop
  endfacet
  facet normal 0.707107 -0.707107 0
    outer loop
      vertex 88 -54.2426 1.39
      vertex 83.2426 -59 2.4
      vertex 83.2426 -59 1.39
    endloop
  endfacet
  facet normal -1 0 0
    outer loop
      vertex -3 -54.2426 1.39
      vertex -3 -1.75735 2.4
      vertex -3 -1.75735 1.39
    endloop
  endfacet
  facet normal -1 -0 0
    outer loop
      vertex -3 -1.75735 2.4
      vertex -3 -54.2426 1.39
      vertex -3 -54.2426 2.4
    endloop
  endfacet
  facet normal 1 -0 0
    outer loop
      vertex 88 -54.2426 2.4
      vertex 88 -1.75735 1.39
      vertex 88 -1.75735 2.4
    endloop
  endfacet
  facet normal 1 0 0
    outer loop
      vertex 88 -1.75735 1.39
      vertex 88 -54.2426 2.4
      vertex 88 -54.2426 1.39
    endloop
  endfacet
  facet normal 0 0 1
    outer loop
      vertex 88 -1.75735 2.4
      vertex 85.7 -2.71005 2.4
      vertex 88 -54.2426 2.4
    endloop
  endfacet
  facet normal 0 0 1
    outer loop
      vertex 83.2426 3 2.4
      vertex 85.7 -2.71005 2.4
      vertex 88 -1.75735 2.4
    endloop
  endfacet
  facet normal 0 0 1
    outer loop
      vertex 83.2426 3 2.4
      vertex 82.2899 0.699997 2.4
      vertex 85.7 -2.71005 2.4
    endloop
  endfacet
  facet normal 0 0 1
    outer loop
      vertex 83.2426 3 2.4
      vertex 2.71005 0.699997 2.4
      vertex 82.2899 0.699997 2.4
    endloop
  endfacet
  facet normal -0 0 1
    outer loop
      vertex 1.75735 3 2.4
      vertex 2.71005 0.699997 2.4
      vertex 83.2426 3 2.4
    endloop
  endfacet
  facet normal 0 0 1
    outer loop
      vertex 1.75735 3 2.4
      vertex -0.699997 -2.71005 2.4
      vertex 2.71005 0.699997 2.4
    endloop
  endfacet
  facet normal 0 0 1
    outer loop
      vertex -0.699997 -2.71005 2.4
      vertex -3 -1.75735 2.4
      vertex -0.699997 -53.2899 2.4
    endloop
  endfacet
  facet normal -0 0 1
    outer loop
      vertex -3 -1.75735 2.4
      vertex -0.699997 -2.71005 2.4
      vertex 1.75735 3 2.4
    endloop
  endfacet
  facet normal -0 0 1
    outer loop
      vertex 85.7 -53.2899 2.4
      vertex 88 -54.2426 2.4
      vertex 85.7 -2.71005 2.4
    endloop
  endfacet
  facet normal 0 0 1
    outer loop
      vertex 85.7 -53.2899 2.4
      vertex 83.2426 -59 2.4
      vertex 88 -54.2426 2.4
    endloop
  endfacet
  facet normal -0 0 1
    outer loop
      vertex 82.2899 -56.7 2.4
      vertex 83.2426 -59 2.4
      vertex 85.7 -53.2899 2.4
    endloop
  endfacet
  facet normal 0 0 1
    outer loop
      vertex 59 -59 2.4
      vertex 82.2899 -56.7 2.4
      vertex 59 -56.7 2.4
    endloop
  endfacet
  facet normal 0 0 1
    outer loop
      vertex 82.2899 -56.7 2.4
      vertex 59 -59 2.4
      vertex 83.2426 -59 2.4
    endloop
  endfacet
  facet normal -0 0 1
    outer loop
      vertex 2.71005 -56.7 2.4
      vertex 6 -59 2.4
      vertex 6 -56.7 2.4
    endloop
  endfacet
  facet normal 0 0 1
    outer loop
      vertex 2.71005 -56.7 2.4
      vertex 1.75735 -59 2.4
      vertex 6 -59 2.4
    endloop
  endfacet
  facet normal 0 0 1
    outer loop
      vertex -0.699997 -53.2899 2.4
      vertex 1.75735 -59 2.4
      vertex 2.71005 -56.7 2.4
    endloop
  endfacet
  facet normal 0 0 1
    outer loop
      vertex -0.699997 -53.2899 2.4
      vertex -3 -54.2426 2.4
      vertex 1.75735 -59 2.4
    endloop
  endfacet
  facet normal 0 0 1
    outer loop
      vertex -3 -54.2426 2.4
      vertex -0.699997 -53.2899 2.4
      vertex -3 -1.75735 2.4
    endloop
  endfacet
  facet normal -0 0 1
    outer loop
      vertex 57 -45.36 2.4
      vertex 59 -53 2.4
      vertex 59.6 -45.36 2.4
    endloop
  endfacet
  facet normal 0 0 1
    outer loop
      vertex 54.6 -45.36 2.4
      vertex 57 -45.36 2.4
      vertex 54.6 -10.64 2.4
    endloop
  endfacet
  facet normal -0 0 1
    outer loop
      vertex 54.6 -45.36 2.4
      vertex 59 -53 2.4
      vertex 57 -45.36 2.4
    endloop
  endfacet
  facet normal -0 0 1
    outer loop
      vertex 52 -45.36 2.4
      vertex 59 -53 2.4
      vertex 54.6 -45.36 2.4
    endloop
  endfacet
  facet normal 0 0 1
    outer loop
      vertex 49.6 -45.36 2.4
      vertex 52 -45.36 2.4
      vertex 49.6 -10.64 2.4
    endloop
  endfacet
  facet normal -0 0 1
    outer loop
      vertex 49.6 -45.36 2.4
      vertex 59 -53 2.4
      vertex 52 -45.36 2.4
    endloop
  endfacet
  facet normal -0 0 1
    outer loop
      vertex 47 -45.36 2.4
      vertex 59 -53 2.4
      vertex 49.6 -45.36 2.4
    endloop
  endfacet
  facet normal 0 0 1
    outer loop
      vertex 44.6 -45.36 2.4
      vertex 47 -45.36 2.4
      vertex 44.6 -10.64 2.4
    endloop
  endfacet
  facet normal -0 0 1
    outer loop
      vertex 44.6 -45.36 2.4
      vertex 59 -53 2.4
      vertex 47 -45.36 2.4
    endloop
  endfacet
  facet normal -0 0 1
    outer loop
      vertex 42 -45.36 2.4
      vertex 59 -53 2.4
      vertex 44.6 -45.36 2.4
    endloop
  endfacet
  facet normal 0 0 1
    outer loop
      vertex 39.6 -45.36 2.4
      vertex 42 -45.36 2.4
      vertex 39.6 -10.64 2.4
    endloop
  endfacet
  facet normal -0 0 1
    outer loop
      vertex 39.6 -45.36 2.4
      vertex 59 -53 2.4
      vertex 42 -45.36 2.4
    endloop
  endfacet
  facet normal -0 0 1
    outer loop
      vertex 37 -45.36 2.4
      vertex 59 -53 2.4
      vertex 39.6 -45.36 2.4
    endloop
  endfacet
  facet normal 0 0 1
    outer loop
      vertex 34.6 -45.36 2.4
      vertex 37 -45.36 2.4
      vertex 34.6 -10.64 2.4
    endloop
  endfacet
  facet normal -0 0 1
    outer loop
      vertex 34.6 -45.36 2.4
      vertex 59 -53 2.4
      vertex 37 -45.36 2.4
    endloop
  endfacet
  facet normal -0 0 1
    outer loop
      vertex 32 -45.36 2.4
      vertex 59 -53 2.4
      vertex 34.6 -45.36 2.4
    endloop
  endfacet
  facet normal 0 0 1
    outer loop
      vertex 29.6 -45.36 2.4
      vertex 32 -45.36 2.4
      vertex 29.6 -10.64 2.4
    endloop
  endfacet
  facet normal 0 0 1
    outer loop
      vertex 6 -53 2.4
      vertex 32 -45.36 2.4
      vertex 29.6 -45.36 2.4
    endloop
  endfacet
  facet normal 0 0 1
    outer loop
      vertex 6 -53 2.4
      vertex 29.6 -45.36 2.4
      vertex 27 -45.36 2.4
    endloop
  endfacet
  facet normal 0 0 1
    outer loop
      vertex 24.6 -45.36 2.4
      vertex 27 -45.36 2.4
      vertex 24.6 -10.64 2.4
    endloop
  endfacet
  facet normal 0 0 1
    outer loop
      vertex 6 -53 2.4
      vertex 27 -45.36 2.4
      vertex 24.6 -45.36 2.4
    endloop
  endfacet
  facet normal 0 0 1
    outer loop
      vertex 6 -53 2.4
      vertex 24.6 -45.36 2.4
      vertex 22 -45.36 2.4
    endloop
  endfacet
  facet normal 0 0 1
    outer loop
      vertex 19.6 -45.36 2.4
      vertex 22 -45.36 2.4
      vertex 19.6 -10.64 2.4
    endloop
  endfacet
  facet normal 0 0 1
    outer loop
      vertex 6 -53 2.4
      vertex 22 -45.36 2.4
      vertex 19.6 -45.36 2.4
    endloop
  endfacet
  facet normal 0 0 1
    outer loop
      vertex 6 -53 2.4
      vertex 19.6 -45.36 2.4
      vertex 17 -45.36 2.4
    endloop
  endfacet
  facet normal 0 0 1
    outer loop
      vertex 14.6 -45.36 2.4
      vertex 17 -45.36 2.4
      vertex 14.6 -10.64 2.4
    endloop
  endfacet
  facet normal 0 0 1
    outer loop
      vertex 6 -53 2.4
      vertex 17 -45.36 2.4
      vertex 14.6 -45.36 2.4
    endloop
  endfacet
  facet normal 0 0 1
    outer loop
      vertex 6 -53 2.4
      vertex 14.6 -45.36 2.4
      vertex 12 -45.36 2.4
    endloop
  endfacet
  facet normal 0 0 1
    outer loop
      vertex 32 -45.36 2.4
      vertex 6 -53 2.4
      vertex 59 -53 2.4
    endloop
  endfacet
  facet normal 0 0 1
    outer loop
      vertex 69.6 -10.64 2.4
      vertex 83.9 -3.45563 2.4
      vertex 81.5444 -1.10001 2.4
    endloop
  endfacet
  facet normal 0 0 1
    outer loop
      vertex 83.9 -3.45563 2.4
      vertex 69.6 -10.64 2.4
      vertex 83.9 -52.5444 2.4
    endloop
  endfacet
  facet normal -0 0 1
    outer loop
      vertex 69.6 -45.36 2.4
      vertex 83.9 -52.5444 2.4
      vertex 69.6 -10.64 2.4
    endloop
  endfacet
  facet normal 0 0 1
    outer loop
      vertex 81.5444 -1.10001 2.4
      vertex 67 -10.64 2.4
      vertex 69.6 -10.64 2.4
    endloop
  endfacet
  facet normal 0 0 1
    outer loop
      vertex 67 -10.64 2.4
      vertex 64.6 -10.64 2.4
      vertex 67 -45.36 2.4
    endloop
  endfacet
  facet normal 0 0 1
    outer loop
      vertex 81.5444 -1.10001 2.4
      vertex 64.6 -10.64 2.4
      vertex 67 -10.64 2.4
    endloop
  endfacet
  facet normal 0 0 1
    outer loop
      vertex 81.5444 -1.10001 2.4
      vertex 62 -10.64 2.4
      vertex 64.6 -10.64 2.4
    endloop
  endfacet
  facet normal 0 0 1
    outer loop
      vertex 62 -10.64 2.4
      vertex 59.6 -10.64 2.4
      vertex 62 -45.36 2.4
    endloop
  endfacet
  facet normal 0 0 1
    outer loop
      vertex 81.5444 -1.10001 2.4
      vertex 59.6 -10.64 2.4
      vertex 62 -10.64 2.4
    endloop
  endfacet
  facet normal 0 0 1
    outer loop
      vertex 81.5444 -1.10001 2.4
      vertex 57 -10.64 2.4
      vertex 59.6 -10.64 2.4
    endloop
  endfacet
  facet normal 0 0 1
    outer loop
      vertex 57 -10.64 2.4
      vertex 54.6 -10.64 2.4
      vertex 57 -45.36 2.4
    endloop
  endfacet
  facet normal 0 0 1
    outer loop
      vertex 81.5444 -1.10001 2.4
      vertex 54.6 -10.64 2.4
      vertex 57 -10.64 2.4
    endloop
  endfacet
  facet normal 0 0 1
    outer loop
      vertex 81.5444 -1.10001 2.4
      vertex 52 -10.64 2.4
      vertex 54.6 -10.64 2.4
    endloop
  endfacet
  facet normal 0 0 1
    outer loop
      vertex 52 -10.64 2.4
      vertex 49.6 -10.64 2.4
      vertex 52 -45.36 2.4
    endloop
  endfacet
  facet normal 0 0 1
    outer loop
      vertex 81.5444 -1.10001 2.4
      vertex 49.6 -10.64 2.4
      vertex 52 -10.64 2.4
    endloop
  endfacet
  facet normal 0 0 1
    outer loop
      vertex 81.5444 -1.10001 2.4
      vertex 47 -10.64 2.4
      vertex 49.6 -10.64 2.4
    endloop
  endfacet
  facet normal 0 0 1
    outer loop
      vertex 47 -10.64 2.4
      vertex 44.6 -10.64 2.4
      vertex 47 -45.36 2.4
    endloop
  endfacet
  facet normal 0 0 1
    outer loop
      vertex 81.5444 -1.10001 2.4
      vertex 44.6 -10.64 2.4
      vertex 47 -10.64 2.4
    endloop
  endfacet
  facet normal 0 0 1
    outer loop
      vertex 81.5444 -1.10001 2.4
      vertex 42 -10.64 2.4
      vertex 44.6 -10.64 2.4
    endloop
  endfacet
  facet normal 0 0 1
    outer loop
      vertex 42 -10.64 2.4
      vertex 39.6 -10.64 2.4
      vertex 42 -45.36 2.4
    endloop
  endfacet
  facet normal -0 0 1
    outer loop
      vertex 3.45563 -1.10001 2.4
      vertex 42 -10.64 2.4
      vertex 81.5444 -1.10001 2.4
    endloop
  endfacet
  facet normal 0 0 1
    outer loop
      vertex 42 -10.64 2.4
      vertex 3.45563 -1.10001 2.4
      vertex 39.6 -10.64 2.4
    endloop
  endfacet
  facet normal 0 0 1
    outer loop
      vertex 37 -10.64 2.4
      vertex 34.6 -10.64 2.4
      vertex 37 -45.36 2.4
    endloop
  endfacet
  facet normal 0 0 1
    outer loop
      vertex 39.6 -10.64 2.4
      vertex 3.45563 -1.10001 2.4
      vertex 37 -10.64 2.4
    endloop
  endfacet
  facet normal 0 0 1
    outer loop
      vertex 37 -10.64 2.4
      vertex 3.45563 -1.10001 2.4
      vertex 34.6 -10.64 2.4
    endloop
  endfacet
  facet normal 0 0 1
    outer loop
      vertex 32 -10.64 2.4
      vertex 29.6 -10.64 2.4
      vertex 32 -45.36 2.4
    endloop
  endfacet
  facet normal 0 0 1
    outer loop
      vertex 34.6 -10.64 2.4
      vertex 3.45563 -1.10001 2.4
      vertex 32 -10.64 2.4
    endloop
  endfacet
  facet normal 0 0 1
    outer loop
      vertex 32 -10.64 2.4
      vertex 3.45563 -1.10001 2.4
      vertex 29.6 -10.64 2.4
    endloop
  endfacet
  facet normal 0 0 1
    outer loop
      vertex 27 -10.64 2.4
      vertex 24.6 -10.64 2.4
      vertex 27 -45.36 2.4
    endloop
  endfacet
  facet normal 0 0 1
    outer loop
      vertex 29.6 -10.64 2.4
      vertex 3.45563 -1.10001 2.4
      vertex 27 -10.64 2.4
    endloop
  endfacet
  facet normal 0 0 1
    outer loop
      vertex 27 -10.64 2.4
      vertex 3.45563 -1.10001 2.4
      vertex 24.6 -10.64 2.4
    endloop
  endfacet
  facet normal 0 0 1
    outer loop
      vertex 22 -10.64 2.4
      vertex 19.6 -10.64 2.4
      vertex 22 -45.36 2.4
    endloop
  endfacet
  facet normal 0 0 1
    outer loop
      vertex 24.6 -10.64 2.4
      vertex 3.45563 -1.10001 2.4
      vertex 22 -10.64 2.4
    endloop
  endfacet
  facet normal 0 0 1
    outer loop
      vertex 22 -10.64 2.4
      vertex 3.45563 -1.10001 2.4
      vertex 19.6 -10.64 2.4
    endloop
  endfacet
  facet normal 0 0 1
    outer loop
      vertex 17 -10.64 2.4
      vertex 14.6 -10.64 2.4
      vertex 17 -45.36 2.4
    endloop
  endfacet
  facet normal 0 0 1
    outer loop
      vertex 19.6 -10.64 2.4
      vertex 3.45563 -1.10001 2.4
      vertex 17 -10.64 2.4
    endloop
  endfacet
  facet normal 0 0 1
    outer loop
      vertex 17 -10.64 2.4
      vertex 3.45563 -1.10001 2.4
      vertex 14.6 -10.64 2.4
    endloop
  endfacet
  facet normal 0 0 1
    outer loop
      vertex 1.10001 -52.5444 2.4
      vertex 12 -45.36 2.4
      vertex 12 -10.64 2.4
    endloop
  endfacet
  facet normal 0 0 1
    outer loop
      vertex 14.6 -10.64 2.4
      vertex 3.45563 -1.10001 2.4
      vertex 12 -10.64 2.4
    endloop
  endfacet
  facet normal -0 0 1
    outer loop
      vertex 1.10001 -3.45563 2.4
      vertex 12 -10.64 2.4
      vertex 3.45563 -1.10001 2.4
    endloop
  endfacet
  facet normal 0 0 1
    outer loop
      vertex 1.10001 -52.5444 2.4
      vertex 12 -10.64 2.4
      vertex 1.10001 -3.45563 2.4
    endloop
  endfacet
  facet normal 0 0 1
    outer loop
      vertex 12 -45.36 2.4
      vertex 1.10001 -52.5444 2.4
      vertex 6 -53 2.4
    endloop
  endfacet
  facet normal 0 -0 1
    outer loop
      vertex 3.45563 -54.9 2.4
      vertex 6 -53 2.4
      vertex 1.10001 -52.5444 2.4
    endloop
  endfacet
  facet normal 0 0 1
    outer loop
      vertex 6 -53 2.4
      vertex 3.45563 -54.9 2.4
      vertex 6 -54.9 2.4
    endloop
  endfacet
  facet normal 0 0 1
    outer loop
      vertex 83.9 -52.5444 2.4
      vertex 69.6 -45.36 2.4
      vertex 81.5444 -54.9 2.4
    endloop
  endfacet
  facet normal 0 0 1
    outer loop
      vertex 59 -54.9 2.4
      vertex 69.6 -45.36 2.4
      vertex 67 -45.36 2.4
    endloop
  endfacet
  facet normal 0 0 1
    outer loop
      vertex 64.6 -45.36 2.4
      vertex 67 -45.36 2.4
      vertex 64.6 -10.64 2.4
    endloop
  endfacet
  facet normal 0 0 1
    outer loop
      vertex 59 -53 2.4
      vertex 67 -45.36 2.4
      vertex 64.6 -45.36 2.4
    endloop
  endfacet
  facet normal 0 0 1
    outer loop
      vertex 59 -53 2.4
      vertex 64.6 -45.36 2.4
      vertex 62 -45.36 2.4
    endloop
  endfacet
  facet normal 0 0 1
    outer loop
      vertex 59.6 -45.36 2.4
      vertex 62 -45.36 2.4
      vertex 59.6 -10.64 2.4
    endloop
  endfacet
  facet normal 0 0 1
    outer loop
      vertex 59 -53 2.4
      vertex 62 -45.36 2.4
      vertex 59.6 -45.36 2.4
    endloop
  endfacet
  facet normal 0 0 1
    outer loop
      vertex 67 -45.36 2.4
      vertex 59 -53 2.4
      vertex 59 -54.9 2.4
    endloop
  endfacet
  facet normal 0 0 1
    outer loop
      vertex 69.6 -45.36 2.4
      vertex 59 -54.9 2.4
      vertex 81.5444 -54.9 2.4
    endloop
  endfacet
  facet normal 0 -1 0
    outer loop
      vertex 59 -59 1.39
      vertex 83.2426 -59 2.4
      vertex 59 -59 2.4
    endloop
  endfacet
  facet normal 0 -1 -0
    outer loop
      vertex 83.2426 -59 2.4
      vertex 59 -59 1.39
      vertex 83.2426 -59 1.39
    endloop
  endfacet
  facet normal 0 -1 0
    outer loop
      vertex 1.75735 -59 1.39
      vertex 6 -59 2.4
      vertex 1.75735 -59 2.4
    endloop
  endfacet
  facet normal 0 -1 -0
    outer loop
      vertex 6 -59 2.4
      vertex 1.75735 -59 1.39
      vertex 6 -59 1.39
    endloop
  endfacet
  facet normal -0.707107 0.707107 0
    outer loop
      vertex -3 -1.75735 1.39
      vertex 1.75735 3 2.4
      vertex 1.75735 3 1.39
    endloop
  endfacet
  facet normal -0.707107 0.707107 0
    outer loop
      vertex 1.75735 3 2.4
      vertex -3 -1.75735 1.39
      vertex -3 -1.75735 2.4
    endloop
  endfacet
  facet normal 0.707103 0.70711 0
    outer loop
      vertex 88 -1.75735 2.4
      vertex 83.2426 3 1.39
      vertex 83.2426 3 2.4
    endloop
  endfacet
  facet normal 0.707103 0.70711 0
    outer loop
      vertex 83.2426 3 1.39
      vertex 88 -1.75735 2.4
      vertex 88 -1.75735 1.39
    endloop
  endfacet
  facet normal -0.70711 -0.707103 0
    outer loop
      vertex 1.75735 -59 1.39
      vertex -3 -54.2426 2.4
      vertex -3 -54.2426 1.39
    endloop
  endfacet
  facet normal -0.70711 -0.707103 0
    outer loop
      vertex -3 -54.2426 2.4
      vertex 1.75735 -59 1.39
      vertex 1.75735 -59 2.4
    endloop
  endfacet
  facet normal 0 1 -0
    outer loop
      vertex 83.2426 3 1.39
      vertex 1.75735 3 2.4
      vertex 83.2426 3 2.4
    endloop
  endfacet
  facet normal 0 1 0
    outer loop
      vertex 1.75735 3 2.4
      vertex 83.2426 3 1.39
      vertex 1.75735 3 1.39
    endloop
  endfacet
  facet normal 0.704568 0 -0.709637
    outer loop
      vertex 86.6 -53.6627 0
      vertex 88 -1.75735 1.39
      vertex 88 -54.2426 1.39
    endloop
  endfacet
  facet normal 0.704568 0 -0.709637
    outer loop
      vertex 88 -1.75735 1.39
      vertex 86.6 -53.6627 0
      vertex 86.6 -2.33727 0
    endloop
  endfacet
  facet normal -0.70457 0 -0.709634
    outer loop
      vertex -3 -54.2426 1.39
      vertex -1.60001 -2.33727 0
      vertex -1.60001 -53.6627 0
    endloop
  endfacet
  facet normal -0.70457 0 -0.709634
    outer loop
      vertex -1.60001 -2.33727 0
      vertex -3 -54.2426 1.39
      vertex -3 -1.75735 1.39
    endloop
  endfacet
  facet normal -0.498203 0.498203 -0.709639
    outer loop
      vertex -1.60001 -2.33727 0
      vertex 1.75735 3 1.39
      vertex 2.33727 1.60001 0
    endloop
  endfacet
  facet normal -0.498203 0.498203 -0.709639
    outer loop
      vertex 1.75735 3 1.39
      vertex -1.60001 -2.33727 0
      vertex -3 -1.75735 1.39
    endloop
  endfacet
  facet normal 0 0 -1
    outer loop
      vertex 6 -57.6 0
      vertex 2.33727 -57.6 0
      vertex 6 -53 0
    endloop
  endfacet
  facet normal 0 0 -1
    outer loop
      vertex 69.6 -45.36 0
      vertex 86.6 -53.6627 0
      vertex 82.6627 -57.6 0
    endloop
  endfacet
  facet normal 0 0 -1
    outer loop
      vertex 86.6 -53.6627 0
      vertex 69.6 -45.36 0
      vertex 86.6 -2.33727 0
    endloop
  endfacet
  facet normal 0 0 -1
    outer loop
      vertex 69.6 -10.64 0
      vertex 86.6 -2.33727 0
      vertex 69.6 -45.36 0
    endloop
  endfacet
  facet normal 0 0 -1
    outer loop
      vertex 59 -57.6 0
      vertex 69.6 -45.36 0
      vertex 82.6627 -57.6 0
    endloop
  endfacet
  facet normal 0 0 -1
    outer loop
      vertex 67 -45.36 0
      vertex 64.6 -45.36 0
      vertex 67 -10.64 0
    endloop
  endfacet
  facet normal 0 0 -1
    outer loop
      vertex 59 -53 0
      vertex 69.6 -45.36 0
      vertex 59 -57.6 0
    endloop
  endfacet
  facet normal -0 0 -1
    outer loop
      vertex 69.6 -45.36 0
      vertex 59 -53 0
      vertex 67 -45.36 0
    endloop
  endfacet
  facet normal 0 0 -1
    outer loop
      vertex 62 -45.36 0
      vertex 59.6 -45.36 0
      vertex 62 -10.64 0
    endloop
  endfacet
  facet normal -0 0 -1
    outer loop
      vertex 64.6 -45.36 0
      vertex 59 -53 0
      vertex 62 -45.36 0
    endloop
  endfacet
  facet normal -0 0 -1
    outer loop
      vertex 67 -45.36 0
      vertex 59 -53 0
      vertex 64.6 -45.36 0
    endloop
  endfacet
  facet normal -0 0 -1
    outer loop
      vertex 62 -45.36 0
      vertex 59 -53 0
      vertex 59.6 -45.36 0
    endloop
  endfacet
  facet normal 0 0 -1
    outer loop
      vertex 59 -53 0
      vertex 57 -45.36 0
      vertex 59.6 -45.36 0
    endloop
  endfacet
  facet normal 0 0 -1
    outer loop
      vertex 57 -45.36 0
      vertex 54.6 -45.36 0
      vertex 57 -10.64 0
    endloop
  endfacet
  facet normal 0 0 -1
    outer loop
      vertex 59 -53 0
      vertex 54.6 -45.36 0
      vertex 57 -45.36 0
    endloop
  endfacet
  facet normal 0 0 -1
    outer loop
      vertex 59 -53 0
      vertex 52 -45.36 0
      vertex 54.6 -45.36 0
    endloop
  endfacet
  facet normal 0 0 -1
    outer loop
      vertex 52 -45.36 0
      vertex 49.6 -45.36 0
      vertex 52 -10.64 0
    endloop
  endfacet
  facet normal 0 0 -1
    outer loop
      vertex 59 -53 0
      vertex 49.6 -45.36 0
      vertex 52 -45.36 0
    endloop
  endfacet
  facet normal 0 0 -1
    outer loop
      vertex 59 -53 0
      vertex 47 -45.36 0
      vertex 49.6 -45.36 0
    endloop
  endfacet
  facet normal 0 0 -1
    outer loop
      vertex 47 -45.36 0
      vertex 44.6 -45.36 0
      vertex 47 -10.64 0
    endloop
  endfacet
  facet normal 0 0 -1
    outer loop
      vertex 59 -53 0
      vertex 44.6 -45.36 0
      vertex 47 -45.36 0
    endloop
  endfacet
  facet normal 0 0 -1
    outer loop
      vertex 59 -53 0
      vertex 42 -45.36 0
      vertex 44.6 -45.36 0
    endloop
  endfacet
  facet normal 0 0 -1
    outer loop
      vertex 42 -45.36 0
      vertex 39.6 -45.36 0
      vertex 42 -10.64 0
    endloop
  endfacet
  facet normal 0 0 -1
    outer loop
      vertex 59 -53 0
      vertex 39.6 -45.36 0
      vertex 42 -45.36 0
    endloop
  endfacet
  facet normal 0 0 -1
    outer loop
      vertex 59 -53 0
      vertex 37 -45.36 0
      vertex 39.6 -45.36 0
    endloop
  endfacet
  facet normal 0 0 -1
    outer loop
      vertex 37 -45.36 0
      vertex 34.6 -45.36 0
      vertex 37 -10.64 0
    endloop
  endfacet
  facet normal 0 0 -1
    outer loop
      vertex 59 -53 0
      vertex 34.6 -45.36 0
      vertex 37 -45.36 0
    endloop
  endfacet
  facet normal 0 0 -1
    outer loop
      vertex 59 -53 0
      vertex 32 -45.36 0
      vertex 34.6 -45.36 0
    endloop
  endfacet
  facet normal 0 0 -1
    outer loop
      vertex 32 -45.36 0
      vertex 29.6 -45.36 0
      vertex 32 -10.64 0
    endloop
  endfacet
  facet normal 0 0 -1
    outer loop
      vertex 6 -53 0
      vertex 32 -45.36 0
      vertex 59 -53 0
    endloop
  endfacet
  facet normal -0 0 -1
    outer loop
      vertex 32 -45.36 0
      vertex 6 -53 0
      vertex 29.6 -45.36 0
    endloop
  endfacet
  facet normal 0 0 -1
    outer loop
      vertex 27 -45.36 0
      vertex 24.6 -45.36 0
      vertex 27 -10.64 0
    endloop
  endfacet
  facet normal -0 0 -1
    outer loop
      vertex 29.6 -45.36 0
      vertex 6 -53 0
      vertex 27 -45.36 0
    endloop
  endfacet
  facet normal -0 0 -1
    outer loop
      vertex 27 -45.36 0
      vertex 6 -53 0
      vertex 24.6 -45.36 0
    endloop
  endfacet
  facet normal 0 0 -1
    outer loop
      vertex 22 -45.36 0
      vertex 19.6 -45.36 0
      vertex 22 -10.64 0
    endloop
  endfacet
  facet normal -0 0 -1
    outer loop
      vertex 24.6 -45.36 0
      vertex 6 -53 0
      vertex 22 -45.36 0
    endloop
  endfacet
  facet normal -0 0 -1
    outer loop
      vertex 22 -45.36 0
      vertex 6 -53 0
      vertex 19.6 -45.36 0
    endloop
  endfacet
  facet normal 0 0 -1
    outer loop
      vertex 17 -45.36 0
      vertex 14.6 -45.36 0
      vertex 17 -10.64 0
    endloop
  endfacet
  facet normal -0 0 -1
    outer loop
      vertex 19.6 -45.36 0
      vertex 6 -53 0
      vertex 17 -45.36 0
    endloop
  endfacet
  facet normal -0 0 -1
    outer loop
      vertex 17 -45.36 0
      vertex 6 -53 0
      vertex 14.6 -45.36 0
    endloop
  endfacet
  facet normal 0 0 -1
    outer loop
      vertex -1.60001 -53.6627 0
      vertex 12 -45.36 0
      vertex 6 -53 0
    endloop
  endfacet
  facet normal -0 0 -1
    outer loop
      vertex 14.6 -45.36 0
      vertex 6 -53 0
      vertex 12 -45.36 0
    endloop
  endfacet
  facet normal -0 0 -1
    outer loop
      vertex 86.6 -2.33727 0
      vertex 69.6 -10.64 0
      vertex 82.6627 1.60001 0
    endloop
  endfacet
  facet normal 0 0 -1
    outer loop
      vertex 67 -10.64 0
      vertex 82.6627 1.60001 0
      vertex 69.6 -10.64 0
    endloop
  endfacet
  facet normal 0 0 -1
    outer loop
      vertex 64.6 -10.64 0
      vertex 67 -10.64 0
      vertex 64.6 -45.36 0
    endloop
  endfacet
  facet normal 0 0 -1
    outer loop
      vertex 64.6 -10.64 0
      vertex 82.6627 1.60001 0
      vertex 67 -10.64 0
    endloop
  endfacet
  facet normal 0 0 -1
    outer loop
      vertex 62 -10.64 0
      vertex 82.6627 1.60001 0
      vertex 64.6 -10.64 0
    endloop
  endfacet
  facet normal 0 0 -1
    outer loop
      vertex 59.6 -10.64 0
      vertex 62 -10.64 0
      vertex 59.6 -45.36 0
    endloop
  endfacet
  facet normal 0 0 -1
    outer loop
      vertex 59.6 -10.64 0
      vertex 82.6627 1.60001 0
      vertex 62 -10.64 0
    endloop
  endfacet
  facet normal 0 0 -1
    outer loop
      vertex 57 -10.64 0
      vertex 82.6627 1.60001 0
      vertex 59.6 -10.64 0
    endloop
  endfacet
  facet normal 0 0 -1
    outer loop
      vertex 54.6 -10.64 0
      vertex 57 -10.64 0
      vertex 54.6 -45.36 0
    endloop
  endfacet
  facet normal 0 0 -1
    outer loop
      vertex 54.6 -10.64 0
      vertex 82.6627 1.60001 0
      vertex 57 -10.64 0
    endloop
  endfacet
  facet normal 0 0 -1
    outer loop
      vertex 52 -10.64 0
      vertex 82.6627 1.60001 0
      vertex 54.6 -10.64 0
    endloop
  endfacet
  facet normal 0 0 -1
    outer loop
      vertex 49.6 -10.64 0
      vertex 52 -10.64 0
      vertex 49.6 -45.36 0
    endloop
  endfacet
  facet normal 0 0 -1
    outer loop
      vertex 49.6 -10.64 0
      vertex 82.6627 1.60001 0
      vertex 52 -10.64 0
    endloop
  endfacet
  facet normal 0 0 -1
    outer loop
      vertex 47 -10.64 0
      vertex 82.6627 1.60001 0
      vertex 49.6 -10.64 0
    endloop
  endfacet
  facet normal 0 0 -1
    outer loop
      vertex 44.6 -10.64 0
      vertex 47 -10.64 0
      vertex 44.6 -45.36 0
    endloop
  endfacet
  facet normal 0 0 -1
    outer loop
      vertex 44.6 -10.64 0
      vertex 82.6627 1.60001 0
      vertex 47 -10.64 0
    endloop
  endfacet
  facet normal 0 0 -1
    outer loop
      vertex 42 -10.64 0
      vertex 82.6627 1.60001 0
      vertex 44.6 -10.64 0
    endloop
  endfacet
  facet normal 0 0 -1
    outer loop
      vertex 39.6 -10.64 0
      vertex 42 -10.64 0
      vertex 39.6 -45.36 0
    endloop
  endfacet
  facet normal 0 0 -1
    outer loop
      vertex 2.33727 1.60001 0
      vertex 42 -10.64 0
      vertex 39.6 -10.64 0
    endloop
  endfacet
  facet normal 0 0 -1
    outer loop
      vertex 2.33727 1.60001 0
      vertex 39.6 -10.64 0
      vertex 37 -10.64 0
    endloop
  endfacet
  facet normal 0 0 -1
    outer loop
      vertex 34.6 -10.64 0
      vertex 37 -10.64 0
      vertex 34.6 -45.36 0
    endloop
  endfacet
  facet normal 0 0 -1
    outer loop
      vertex 2.33727 1.60001 0
      vertex 37 -10.64 0
      vertex 34.6 -10.64 0
    endloop
  endfacet
  facet normal 0 0 -1
    outer loop
      vertex 2.33727 1.60001 0
      vertex 34.6 -10.64 0
      vertex 32 -10.64 0
    endloop
  endfacet
  facet normal 0 0 -1
    outer loop
      vertex 29.6 -10.64 0
      vertex 32 -10.64 0
      vertex 29.6 -45.36 0
    endloop
  endfacet
  facet normal 0 0 -1
    outer loop
      vertex 2.33727 1.60001 0
      vertex 32 -10.64 0
      vertex 29.6 -10.64 0
    endloop
  endfacet
  facet normal 0 0 -1
    outer loop
      vertex 2.33727 1.60001 0
      vertex 29.6 -10.64 0
      vertex 27 -10.64 0
    endloop
  endfacet
  facet normal 0 0 -1
    outer loop
      vertex 24.6 -10.64 0
      vertex 27 -10.64 0
      vertex 24.6 -45.36 0
    endloop
  endfacet
  facet normal 0 0 -1
    outer loop
      vertex 2.33727 1.60001 0
      vertex 27 -10.64 0
      vertex 24.6 -10.64 0
    endloop
  endfacet
  facet normal 0 0 -1
    outer loop
      vertex 2.33727 1.60001 0
      vertex 24.6 -10.64 0
      vertex 22 -10.64 0
    endloop
  endfacet
  facet normal 0 0 -1
    outer loop
      vertex 19.6 -10.64 0
      vertex 22 -10.64 0
      vertex 19.6 -45.36 0
    endloop
  endfacet
  facet normal 0 0 -1
    outer loop
      vertex 2.33727 1.60001 0
      vertex 22 -10.64 0
      vertex 19.6 -10.64 0
    endloop
  endfacet
  facet normal 0 0 -1
    outer loop
      vertex 2.33727 1.60001 0
      vertex 19.6 -10.64 0
      vertex 17 -10.64 0
    endloop
  endfacet
  facet normal 0 0 -1
    outer loop
      vertex 14.6 -10.64 0
      vertex 17 -10.64 0
      vertex 14.6 -45.36 0
    endloop
  endfacet
  facet normal 0 0 -1
    outer loop
      vertex 2.33727 1.60001 0
      vertex 17 -10.64 0
      vertex 14.6 -10.64 0
    endloop
  endfacet
  facet normal 0 0 -1
    outer loop
      vertex 2.33727 1.60001 0
      vertex 14.6 -10.64 0
      vertex 12 -10.64 0
    endloop
  endfacet
  facet normal 0 0 -1
    outer loop
      vertex -1.60001 -53.6627 0
      vertex 6 -53 0
      vertex 2.33727 -57.6 0
    endloop
  endfacet
  facet normal 0 0 -1
    outer loop
      vertex 42 -10.64 0
      vertex 2.33727 1.60001 0
      vertex 82.6627 1.60001 0
    endloop
  endfacet
  facet normal -0 0 -1
    outer loop
      vertex 12 -45.36 0
      vertex -1.60001 -53.6627 0
      vertex 12 -10.64 0
    endloop
  endfacet
  facet normal 0 0 -1
    outer loop
      vertex -1.60001 -2.33727 0
      vertex 12 -10.64 0
      vertex -1.60001 -53.6627 0
    endloop
  endfacet
  facet normal 0 0 -1
    outer loop
      vertex 12 -10.64 0
      vertex -1.60001 -2.33727 0
      vertex 2.33727 1.60001 0
    endloop
  endfacet
  facet normal 0.4982 0.498205 -0.70964
    outer loop
      vertex 86.6 -2.33727 0
      vertex 83.2426 3 1.39
      vertex 88 -1.75735 1.39
    endloop
  endfacet
  facet normal 0.498204 0.498207 -0.709635
    outer loop
      vertex 83.2426 3 1.39
      vertex 86.6 -2.33727 0
      vertex 82.6627 1.60001 0
    endloop
  endfacet
  facet normal 0.498205 -0.498205 -0.709637
    outer loop
      vertex 83.2426 -59 1.39
      vertex 86.6 -53.6627 0
      vertex 88 -54.2426 1.39
    endloop
  endfacet
  facet normal 0.498205 -0.498205 -0.709637
    outer loop
      vertex 86.6 -53.6627 0
      vertex 83.2426 -59 1.39
      vertex 82.6627 -57.6 0
    endloop
  endfacet
  facet normal 0 0.70457 -0.709634
    outer loop
      vertex 2.33727 1.60001 0
      vertex 83.2426 3 1.39
      vertex 82.6627 1.60001 0
    endloop
  endfacet
  facet normal 0 0.70457 -0.709634
    outer loop
      vertex 83.2426 3 1.39
      vertex 2.33727 1.60001 0
      vertex 1.75735 3 1.39
    endloop
  endfacet
  facet normal -0.498204 -0.498201 -0.70964
    outer loop
      vertex 1.75735 -59 1.39
      vertex -1.60001 -53.6627 0
      vertex 2.33727 -57.6 0
    endloop
  endfacet
  facet normal -0.498208 -0.498203 -0.709636
    outer loop
      vertex -1.60001 -53.6627 0
      vertex 1.75735 -59 1.39
      vertex -3 -54.2426 1.39
    endloop
  endfacet
  facet normal 0 -0.704568 -0.709637
    outer loop
      vertex 59 -59 1.39
      vertex 82.6627 -57.6 0
      vertex 83.2426 -59 1.39
    endloop
  endfacet
  facet normal -0 -0.704568 -0.709637
    outer loop
      vertex 82.6627 -57.6 0
      vertex 59 -59 1.39
      vertex 59 -57.6 0
    endloop
  endfacet
  facet normal 0 -0.704568 -0.709637
    outer loop
      vertex 6 -59 1.39
      vertex 2.33727 -57.6 0
      vertex 6 -57.6 0
    endloop
  endfacet
  facet normal 0 -0.704568 -0.709637
    outer loop
      vertex 2.33727 -57.6 0
      vertex 6 -59 1.39
      vertex 1.75735 -59 1.39
    endloop
  endfacet
  facet normal 1 -0 0
    outer loop
      vertex 12 -45.36 2.4
      vertex 12 -10.64 0
      vertex 12 -10.64 2.4
    endloop
  endfacet
  facet normal 1 0 0
    outer loop
      vertex 12 -10.64 0
      vertex 12 -45.36 2.4
      vertex 12 -45.36 0
    endloop
  endfacet
  facet normal -1 0 0
    outer loop
      vertex 14.6 -45.36 0
      vertex 14.6 -10.64 2.4
      vertex 14.6 -10.64 0
    endloop
  endfacet
  facet normal -1 -0 0
    outer loop
      vertex 14.6 -10.64 2.4
      vertex 14.6 -45.36 0
      vertex 14.6 -45.36 2.4
    endloop
  endfacet
  facet normal 0 1 -0
    outer loop
      vertex 14.6 -45.36 0
      vertex 12 -45.36 2.4
      vertex 14.6 -45.36 2.4
    endloop
  endfacet
  facet normal 0 1 0
    outer loop
      vertex 12 -45.36 2.4
      vertex 14.6 -45.36 0
      vertex 12 -45.36 0
    endloop
  endfacet
  facet normal 0 -1 0
    outer loop
      vertex 12 -10.64 0
      vertex 14.6 -10.64 2.4
      vertex 12 -10.64 2.4
    endloop
  endfacet
  facet normal 0 -1 -0
    outer loop
      vertex 14.6 -10.64 2.4
      vertex 12 -10.64 0
      vertex 14.6 -10.64 0
    endloop
  endfacet
  facet normal 1 -0 0
    outer loop
      vertex 17 -45.36 2.4
      vertex 17 -10.64 0
      vertex 17 -10.64 2.4
    endloop
  endfacet
  facet normal 1 0 0
    outer loop
      vertex 17 -10.64 0
      vertex 17 -45.36 2.4
      vertex 17 -45.36 0
    endloop
  endfacet
  facet normal -1 0 0
    outer loop
      vertex 19.6 -45.36 0
      vertex 19.6 -10.64 2.4
      vertex 19.6 -10.64 0
    endloop
  endfacet
  facet normal -1 -0 0
    outer loop
      vertex 19.6 -10.64 2.4
      vertex 19.6 -45.36 0
      vertex 19.6 -45.36 2.4
    endloop
  endfacet
  facet normal 0 1 -0
    outer loop
      vertex 19.6 -45.36 0
      vertex 17 -45.36 2.4
      vertex 19.6 -45.36 2.4
    endloop
  endfacet
  facet normal 0 1 0
    outer loop
      vertex 17 -45.36 2.4
      vertex 19.6 -45.36 0
      vertex 17 -45.36 0
    endloop
  endfacet
  facet normal 0 -1 0
    outer loop
      vertex 17 -10.64 0
      vertex 19.6 -10.64 2.4
      vertex 17 -10.64 2.4
    endloop
  endfacet
  facet normal 0 -1 -0
    outer loop
      vertex 19.6 -10.64 2.4
      vertex 17 -10.64 0
      vertex 19.6 -10.64 0
    endloop
  endfacet
  facet normal 1 -0 0
    outer loop
      vertex 22 -45.36 2.4
      vertex 22 -10.64 0
      vertex 22 -10.64 2.4
    endloop
  endfacet
  facet normal 1 0 0
    outer loop
      vertex 22 -10.64 0
      vertex 22 -45.36 2.4
      vertex 22 -45.36 0
    endloop
  endfacet
  facet normal -1 0 0
    outer loop
      vertex 24.6 -45.36 0
      vertex 24.6 -10.64 2.4
      vertex 24.6 -10.64 0
    endloop
  endfacet
  facet normal -1 -0 0
    outer loop
      vertex 24.6 -10.64 2.4
      vertex 24.6 -45.36 0
      vertex 24.6 -45.36 2.4
    endloop
  endfacet
  facet normal 0 1 -0
    outer loop
      vertex 24.6 -45.36 0
      vertex 22 -45.36 2.4
      vertex 24.6 -45.36 2.4
    endloop
  endfacet
  facet normal 0 1 0
    outer loop
      vertex 22 -45.36 2.4
      vertex 24.6 -45.36 0
      vertex 22 -45.36 0
    endloop
  endfacet
  facet normal 0 -1 0
    outer loop
      vertex 22 -10.64 0
      vertex 24.6 -10.64 2.4
      vertex 22 -10.64 2.4
    endloop
  endfacet
  facet normal 0 -1 -0
    outer loop
      vertex 24.6 -10.64 2.4
      vertex 22 -10.64 0
      vertex 24.6 -10.64 0
    endloop
  endfacet
  facet normal 1 -0 0
    outer loop
      vertex 27 -45.36 2.4
      vertex 27 -10.64 0
      vertex 27 -10.64 2.4
    endloop
  endfacet
  facet normal 1 0 0
    outer loop
      vertex 27 -10.64 0
      vertex 27 -45.36 2.4
      vertex 27 -45.36 0
    endloop
  endfacet
  facet normal -1 0 0
    outer loop
      vertex 29.6 -45.36 0
      vertex 29.6 -10.64 2.4
      vertex 29.6 -10.64 0
    endloop
  endfacet
  facet normal -1 -0 0
    outer loop
      vertex 29.6 -10.64 2.4
      vertex 29.6 -45.36 0
      vertex 29.6 -45.36 2.4
    endloop
  endfacet
  facet normal 0 1 -0
    outer loop
      vertex 29.6 -45.36 0
      vertex 27 -45.36 2.4
      vertex 29.6 -45.36 2.4
    endloop
  endfacet
  facet normal 0 1 0
    outer loop
      vertex 27 -45.36 2.4
      vertex 29.6 -45.36 0
      vertex 27 -45.36 0
    endloop
  endfacet
  facet normal 0 -1 0
    outer loop
      vertex 27 -10.64 0
      vertex 29.6 -10.64 2.4
      vertex 27 -10.64 2.4
    endloop
  endfacet
  facet normal 0 -1 -0
    outer loop
      vertex 29.6 -10.64 2.4
      vertex 27 -10.64 0
      vertex 29.6 -10.64 0
    endloop
  endfacet
  facet normal 1 -0 0
    outer loop
      vertex 32 -45.36 2.4
      vertex 32 -10.64 0
      vertex 32 -10.64 2.4
    endloop
  endfacet
  facet normal 1 0 0
    outer loop
      vertex 32 -10.64 0
      vertex 32 -45.36 2.4
      vertex 32 -45.36 0
    endloop
  endfacet
  facet normal -1 0 0
    outer loop
      vertex 34.6 -45.36 0
      vertex 34.6 -10.64 2.4
      vertex 34.6 -10.64 0
    endloop
  endfacet
  facet normal -1 -0 0
    outer loop
      vertex 34.6 -10.64 2.4
      vertex 34.6 -45.36 0
      vertex 34.6 -45.36 2.4
    endloop
  endfacet
  facet normal 0 1 -0
    outer loop
      vertex 34.6 -45.36 0
      vertex 32 -45.36 2.4
      vertex 34.6 -45.36 2.4
    endloop
  endfacet
  facet normal 0 1 0
    outer loop
      vertex 32 -45.36 2.4
      vertex 34.6 -45.36 0
      vertex 32 -45.36 0
    endloop
  endfacet
  facet normal 0 -1 0
    outer loop
      vertex 32 -10.64 0
      vertex 34.6 -10.64 2.4
      vertex 32 -10.64 2.4
    endloop
  endfacet
  facet normal 0 -1 -0
    outer loop
      vertex 34.6 -10.64 2.4
      vertex 32 -10.64 0
      vertex 34.6 -10.64 0
    endloop
  endfacet
  facet normal 1 -0 0
    outer loop
      vertex 37 -45.36 2.4
      vertex 37 -10.64 0
      vertex 37 -10.64 2.4
    endloop
  endfacet
  facet normal 1 0 0
    outer loop
      vertex 37 -10.64 0
      vertex 37 -45.36 2.4
      vertex 37 -45.36 0
    endloop
  endfacet
  facet normal -1 0 0
    outer loop
      vertex 39.6 -45.36 0
      vertex 39.6 -10.64 2.4
      vertex 39.6 -10.64 0
    endloop
  endfacet
  facet normal -1 -0 0
    outer loop
      vertex 39.6 -10.64 2.4
      vertex 39.6 -45.36 0
      vertex 39.6 -45.36 2.4
    endloop
  endfacet
  facet normal 0 -1 0
    outer loop
      vertex 37 -10.64 0
      vertex 39.6 -10.64 2.4
      vertex 37 -10.64 2.4
    endloop
  endfacet
  facet normal 0 -1 -0
    outer loop
      vertex 39.6 -10.64 2.4
      vertex 37 -10.64 0
      vertex 39.6 -10.64 0
    endloop
  endfacet
  facet normal 0 1 -0
    outer loop
      vertex 39.6 -45.36 0
      vertex 37 -45.36 2.4
      vertex 39.6 -45.36 2.4
    endloop
  endfacet
  facet normal 0 1 0
    outer loop
      vertex 37 -45.36 2.4
      vertex 39.6 -45.36 0
      vertex 37 -45.36 0
    endloop
  endfacet
  facet normal 1 -0 0
    outer loop
      vertex 42 -45.36 2.4
      vertex 42 -10.64 0
      vertex 42 -10.64 2.4
    endloop
  endfacet
  facet normal 1 0 0
    outer loop
      vertex 42 -10.64 0
      vertex 42 -45.36 2.4
      vertex 42 -45.36 0
    endloop
  endfacet
  facet normal -1 0 0
    outer loop
      vertex 44.6 -45.36 0
      vertex 44.6 -10.64 2.4
      vertex 44.6 -10.64 0
    endloop
  endfacet
  facet normal -1 -0 0
    outer loop
      vertex 44.6 -10.64 2.4
      vertex 44.6 -45.36 0
      vertex 44.6 -45.36 2.4
    endloop
  endfacet
  facet normal 0 1 -0
    outer loop
      vertex 44.6 -45.36 0
      vertex 42 -45.36 2.4
      vertex 44.6 -45.36 2.4
    endloop
  endfacet
  facet normal 0 1 0
    outer loop
      vertex 42 -45.36 2.4
      vertex 44.6 -45.36 0
      vertex 42 -45.36 0
    endloop
  endfacet
  facet normal 0 -1 0
    outer loop
      vertex 42 -10.64 0
      vertex 44.6 -10.64 2.4
      vertex 42 -10.64 2.4
    endloop
  endfacet
  facet normal 0 -1 -0
    outer loop
      vertex 44.6 -10.64 2.4
      vertex 42 -10.64 0
      vertex 44.6 -10.64 0
    endloop
  endfacet
  facet normal 1 -0 0
    outer loop
      vertex 47 -45.36 2.4
      vertex 47 -10.64 0
      vertex 47 -10.64 2.4
    endloop
  endfacet
  facet normal 1 0 0
    outer loop
      vertex 47 -10.64 0
      vertex 47 -45.36 2.4
      vertex 47 -45.36 0
    endloop
  endfacet
  facet normal -1 0 0
    outer loop
      vertex 49.6 -45.36 0
      vertex 49.6 -10.64 2.4
      vertex 49.6 -10.64 0
    endloop
  endfacet
  facet normal -1 -0 0
    outer loop
      vertex 49.6 -10.64 2.4
      vertex 49.6 -45.36 0
      vertex 49.6 -45.36 2.4
    endloop
  endfacet
  facet normal 0 1 -0
    outer loop
      vertex 49.6 -45.36 0
      vertex 47 -45.36 2.4
      vertex 49.6 -45.36 2.4
    endloop
  endfacet
  facet normal 0 1 0
    outer loop
      vertex 47 -45.36 2.4
      vertex 49.6 -45.36 0
      vertex 47 -45.36 0
    endloop
  endfacet
  facet normal 0 -1 0
    outer loop
      vertex 47 -10.64 0
      vertex 49.6 -10.64 2.4
      vertex 47 -10.64 2.4
    endloop
  endfacet
  facet normal 0 -1 -0
    outer loop
      vertex 49.6 -10.64 2.4
      vertex 47 -10.64 0
      vertex 49.6 -10.64 0
    endloop
  endfacet
  facet normal 1 -0 0
    outer loop
      vertex 52 -45.36 2.4
      vertex 52 -10.64 0
      vertex 52 -10.64 2.4
    endloop
  endfacet
  facet normal 1 0 0
    outer loop
      vertex 52 -10.64 0
      vertex 52 -45.36 2.4
      vertex 52 -45.36 0
    endloop
  endfacet
  facet normal -1 0 0
    outer loop
      vertex 54.6 -45.36 0
      vertex 54.6 -10.64 2.4
      vertex 54.6 -10.64 0
    endloop
  endfacet
  facet normal -1 -0 0
    outer loop
      vertex 54.6 -10.64 2.4
      vertex 54.6 -45.36 0
      vertex 54.6 -45.36 2.4
    endloop
  endfacet
  facet normal 0 -1 0
    outer loop
      vertex 52 -10.64 0
      vertex 54.6 -10.64 2.4
      vertex 52 -10.64 2.4
    endloop
  endfacet
  facet normal 0 -1 -0
    outer loop
      vertex 54.6 -10.64 2.4
      vertex 52 -10.64 0
      vertex 54.6 -10.64 0
    endloop
  endfacet
  facet normal 0 1 -0
    outer loop
      vertex 54.6 -45.36 0
      vertex 52 -45.36 2.4
      vertex 54.6 -45.36 2.4
    endloop
  endfacet
  facet normal 0 1 0
    outer loop
      vertex 52 -45.36 2.4
      vertex 54.6 -45.36 0
      vertex 52 -45.36 0
    endloop
  endfacet
  facet normal 1 -0 0
    outer loop
      vertex 57 -45.36 2.4
      vertex 57 -10.64 0
      vertex 57 -10.64 2.4
    endloop
  endfacet
  facet normal 1 0 0
    outer loop
      vertex 57 -10.64 0
      vertex 57 -45.36 2.4
      vertex 57 -45.36 0
    endloop
  endfacet
  facet normal -1 0 0
    outer loop
      vertex 59.6 -45.36 0
      vertex 59.6 -10.64 2.4
      vertex 59.6 -10.64 0
    endloop
  endfacet
  facet normal -1 -0 0
    outer loop
      vertex 59.6 -10.64 2.4
      vertex 59.6 -45.36 0
      vertex 59.6 -45.36 2.4
    endloop
  endfacet
  facet normal 0 1 -0
    outer loop
      vertex 59.6 -45.36 0
      vertex 57 -45.36 2.4
      vertex 59.6 -45.36 2.4
    endloop
  endfacet
  facet normal 0 1 0
    outer loop
      vertex 57 -45.36 2.4
      vertex 59.6 -45.36 0
      vertex 57 -45.36 0
    endloop
  endfacet
  facet normal 0 -1 0
    outer loop
      vertex 57 -10.64 0
      vertex 59.6 -10.64 2.4
      vertex 57 -10.64 2.4
    endloop
  endfacet
  facet normal 0 -1 -0
    outer loop
      vertex 59.6 -10.64 2.4
      vertex 57 -10.64 0
      vertex 59.6 -10.64 0
    endloop
  endfacet
  facet normal 1 -0 0
    outer loop
      vertex 62 -45.36 2.4
      vertex 62 -10.64 0
      vertex 62 -10.64 2.4
    endloop
  endfacet
  facet normal 1 0 0
    outer loop
      vertex 62 -10.64 0
      vertex 62 -45.36 2.4
      vertex 62 -45.36 0
    endloop
  endfacet
  facet normal -1 0 0
    outer loop
      vertex 64.6 -45.36 0
      vertex 64.6 -10.64 2.4
      vertex 64.6 -10.64 0
    endloop
  endfacet
  facet normal -1 -0 0
    outer loop
      vertex 64.6 -10.64 2.4
      vertex 64.6 -45.36 0
      vertex 64.6 -45.36 2.4
    endloop
  endfacet
  facet normal 0 1 -0
    outer loop
      vertex 64.6 -45.36 0
      vertex 62 -45.36 2.4
      vertex 64.6 -45.36 2.4
    endloop
  endfacet
  facet normal 0 1 0
    outer loop
      vertex 62 -45.36 2.4
      vertex 64.6 -45.36 0
      vertex 62 -45.36 0
    endloop
  endfacet
  facet normal 0 -1 0
    outer loop
      vertex 62 -10.64 0
      vertex 64.6 -10.64 2.4
      vertex 62 -10.64 2.4
    endloop
  endfacet
  facet normal 0 -1 -0
    outer loop
      vertex 64.6 -10.64 2.4
      vertex 62 -10.64 0
      vertex 64.6 -10.64 0
    endloop
  endfacet
  facet normal 1 -0 0
    outer loop
      vertex 67 -45.36 2.4
      vertex 67 -10.64 0
      vertex 67 -10.64 2.4
    endloop
  endfacet
  facet normal 1 0 0
    outer loop
      vertex 67 -10.64 0
      vertex 67 -45.36 2.4
      vertex 67 -45.36 0
    endloop
  endfacet
  facet normal -1 0 0
    outer loop
      vertex 69.6 -45.36 0
      vertex 69.6 -10.64 2.4
      vertex 69.6 -10.64 0
    endloop
  endfacet
  facet normal -1 -0 0
    outer loop
      vertex 69.6 -10.64 2.4
      vertex 69.6 -45.36 0
      vertex 69.6 -45.36 2.4
    endloop
  endfacet
  facet normal 0 1 -0
    outer loop
      vertex 69.6 -45.36 0
      vertex 67 -45.36 2.4
      vertex 69.6 -45.36 2.4
    endloop
  endfacet
  facet normal 0 1 0
    outer loop
      vertex 67 -45.36 2.4
      vertex 69.6 -45.36 0
      vertex 67 -45.36 0
    endloop
  endfacet
  facet normal 0 -1 0
    outer loop
      vertex 67 -10.64 0
      vertex 69.6 -10.64 2.4
      vertex 67 -10.64 2.4
    endloop
  endfacet
  facet normal 0 -1 -0
    outer loop
      vertex 69.6 -10.64 2.4
      vertex 67 -10.64 0
      vertex 69.6 -10.64 0
    endloop
  endfacet
  facet normal 1 -0 0
    outer loop
      vertex 6 -54.9 2.4
      vertex 6 -53 0
      vertex 6 -53 2.4
    endloop
  endfacet
  facet normal 1 0 0
    outer loop
      vertex 6 -56.7 2.4
      vertex 6 -54.9 2.4
      vertex 6 -56.7 2.5
    endloop
  endfacet
  facet normal 1 0 0
    outer loop
      vertex 6 -57.6 0
      vertex 6 -54.9 2.4
      vertex 6 -56.7 2.4
    endloop
  endfacet
  facet normal 1 0 0
    outer loop
      vertex 6 -54.9 2.4
      vertex 6 -57.6 0
      vertex 6 -53 0
    endloop
  endfacet
  facet normal 1 0 0
    outer loop
      vertex 6 -59 1.39
      vertex 6 -56.7 2.4
      vertex 6 -59 2.4
    endloop
  endfacet
  facet normal 1 0 0
    outer loop
      vertex 6 -56.7 2.4
      vertex 6 -59 1.39
      vertex 6 -57.6 0
    endloop
  endfacet
  facet normal 1 0 0
    outer loop
      vertex 6 -54.9 2.5
      vertex 6 -56.7 2.5
      vertex 6 -54.9 2.4
    endloop
  endfacet
  facet normal -1 0 0
    outer loop
      vertex 59 -53 0
      vertex 59 -54.9 2.4
      vertex 59 -53 2.4
    endloop
  endfacet
  facet normal -1 0 0
    outer loop
      vertex 59 -54.9 2.4
      vertex 59 -56.7 2.4
      vertex 59 -54.9 2.5
    endloop
  endfacet
  facet normal -1 0 0
    outer loop
      vertex 59 -57.6 0
      vertex 59 -54.9 2.4
      vertex 59 -53 0
    endloop
  endfacet
  facet normal -1 -0 0
    outer loop
      vertex 59 -54.9 2.4
      vertex 59 -57.6 0
      vertex 59 -56.7 2.4
    endloop
  endfacet
  facet normal -1 0 0
    outer loop
      vertex 59 -59 1.39
      vertex 59 -56.7 2.4
      vertex 59 -57.6 0
    endloop
  endfacet
  facet normal -1 -0 0
    outer loop
      vertex 59 -56.7 2.4
      vertex 59 -59 1.39
      vertex 59 -59 2.4
    endloop
  endfacet
  facet normal -1 -0 0
    outer loop
      vertex 59 -54.9 2.5
      vertex 59 -56.7 2.4
      vertex 59 -56.7 2.5
    endloop
  endfacet
  facet normal 0 0 -1
    outer loop
      vertex 6 -56.7 2.5
      vertex 59 -54.9 2.5
      vertex 59 -56.7 2.5
    endloop
  endfacet
  facet normal -0 0 -1
    outer loop
      vertex 59 -54.9 2.5
      vertex 6 -56.7 2.5
      vertex 6 -54.9 2.5
    endloop
  endfacet
  facet normal 0 -1 0
    outer loop
      vertex 6 -53 0
      vertex 59 -53 2.4
      vertex 6 -53 2.4
    endloop
  endfacet
  facet normal 0 -1 -0
    outer loop
      vertex 59 -53 2.4
      vertex 6 -53 0
      vertex 59 -53 0
    endloop
  endfacet
  facet normal 0 0 -1
    outer loop
      vertex 85.7 -53.2899 4.35
      vertex 85.2 -53.0828 4.35
      vertex 85.7 -2.71005 4.35
    endloop
  endfacet
  facet normal 0 0 -1
    outer loop
      vertex 82.2899 -56.7 4.35
      vertex 85.2 -53.0828 4.35
      vertex 85.7 -53.2899 4.35
    endloop
  endfacet
  facet normal 0 0 -1
    outer loop
      vertex 82.2899 -56.7 4.35
      vertex 82.0828 -56.2 4.35
      vertex 85.2 -53.0828 4.35
    endloop
  endfacet
  facet normal 0 0 -1
    outer loop
      vertex 82.2899 -56.7 4.35
      vertex 2.91716 -56.2 4.35
      vertex 82.0828 -56.2 4.35
    endloop
  endfacet
  facet normal 0 0 -1
    outer loop
      vertex 2.71005 -56.7 4.35
      vertex 2.91716 -56.2 4.35
      vertex 82.2899 -56.7 4.35
    endloop
  endfacet
  facet normal 0 0 -1
    outer loop
      vertex 2.71005 -56.7 4.35
      vertex -0.199997 -53.0828 4.35
      vertex 2.91716 -56.2 4.35
    endloop
  endfacet
  facet normal -0 0 -1
    outer loop
      vertex -0.199997 -53.0828 4.35
      vertex -0.699997 -53.2899 4.35
      vertex -0.199997 -2.91716 4.35
    endloop
  endfacet
  facet normal 0 0 -1
    outer loop
      vertex -0.699997 -53.2899 4.35
      vertex -0.199997 -53.0828 4.35
      vertex 2.71005 -56.7 4.35
    endloop
  endfacet
  facet normal 0 0 -1
    outer loop
      vertex 85.2 -2.91716 4.35
      vertex 85.7 -2.71005 4.35
      vertex 85.2 -53.0828 4.35
    endloop
  endfacet
  facet normal 0 0 -1
    outer loop
      vertex 85.2 -2.91716 4.35
      vertex 82.2899 0.699997 4.35
      vertex 85.7 -2.71005 4.35
    endloop
  endfacet
  facet normal 0 0 -1
    outer loop
      vertex 82.0828 0.199997 4.35
      vertex 82.2899 0.699997 4.35
      vertex 85.2 -2.91716 4.35
    endloop
  endfacet
  facet normal 0 0 -1
    outer loop
      vertex 2.91716 0.199997 4.35
      vertex 82.2899 0.699997 4.35
      vertex 82.0828 0.199997 4.35
    endloop
  endfacet
  facet normal 0 0 -1
    outer loop
      vertex 2.91716 0.199997 4.35
      vertex 2.71005 0.699997 4.35
      vertex 82.2899 0.699997 4.35
    endloop
  endfacet
  facet normal 0 0 -1
    outer loop
      vertex -0.199997 -2.91716 4.35
      vertex 2.71005 0.699997 4.35
      vertex 2.91716 0.199997 4.35
    endloop
  endfacet
  facet normal 0 0 -1
    outer loop
      vertex -0.199997 -2.91716 4.35
      vertex -0.699997 -2.71005 4.35
      vertex 2.71005 0.699997 4.35
    endloop
  endfacet
  facet normal 0 0 -1
    outer loop
      vertex -0.699997 -2.71005 4.35
      vertex -0.199997 -2.91716 4.35
      vertex -0.699997 -53.2899 4.35
    endloop
  endfacet
  facet normal 0 0 1
    outer loop
      vertex 85.7 -2.71005 2.75
      vertex 85.2 -2.91716 2.75
      vertex 85.7 -53.2899 2.75
    endloop
  endfacet
  facet normal 0 0 1
    outer loop
      vertex 82.2899 0.699997 2.75
      vertex 85.2 -2.91716 2.75
      vertex 85.7 -2.71005 2.75
    endloop
  endfacet
  facet normal 0 0 1
    outer loop
      vertex 82.2899 0.699997 2.75
      vertex 82.0828 0.199997 2.75
      vertex 85.2 -2.91716 2.75
    endloop
  endfacet
  facet normal 0 0 1
    outer loop
      vertex 82.2899 0.699997 2.75
      vertex 2.91716 0.199997 2.75
      vertex 82.0828 0.199997 2.75
    endloop
  endfacet
  facet normal -0 0 1
    outer loop
      vertex 2.71005 0.699997 2.75
      vertex 2.91716 0.199997 2.75
      vertex 82.2899 0.699997 2.75
    endloop
  endfacet
  facet normal 0 0 1
    outer loop
      vertex 2.71005 0.699997 2.75
      vertex -0.199997 -2.91716 2.75
      vertex 2.91716 0.199997 2.75
    endloop
  endfacet
  facet normal 0 0 1
    outer loop
      vertex -0.199997 -2.91716 2.75
      vertex -0.699997 -2.71005 2.75
      vertex -0.199997 -53.0828 2.75
    endloop
  endfacet
  facet normal -0 0 1
    outer loop
      vertex -0.699997 -2.71005 2.75
      vertex -0.199997 -2.91716 2.75
      vertex 2.71005 0.699997 2.75
    endloop
  endfacet
  facet normal -0 0 1
    outer loop
      vertex 85.2 -53.0828 2.75
      vertex 85.7 -53.2899 2.75
      vertex 85.2 -2.91716 2.75
    endloop
  endfacet
  facet normal 0 0 1
    outer loop
      vertex 85.2 -53.0828 2.75
      vertex 82.2899 -56.7 2.75
      vertex 85.7 -53.2899 2.75
    endloop
  endfacet
  facet normal -0 0 1
    outer loop
      vertex 82.0828 -56.2 2.75
      vertex 82.2899 -56.7 2.75
      vertex 85.2 -53.0828 2.75
    endloop
  endfacet
  facet normal -0 0 1
    outer loop
      vertex 2.91716 -56.2 2.75
      vertex 82.2899 -56.7 2.75
      vertex 82.0828 -56.2 2.75
    endloop
  endfacet
  facet normal 0 0 1
    outer loop
      vertex 2.91716 -56.2 2.75
      vertex 2.71005 -56.7 2.75
      vertex 82.2899 -56.7 2.75
    endloop
  endfacet
  facet normal 0 0 1
    outer loop
      vertex -0.199997 -53.0828 2.75
      vertex 2.71005 -56.7 2.75
      vertex 2.91716 -56.2 2.75
    endloop
  endfacet
  facet normal 0 0 1
    outer loop
      vertex -0.199997 -53.0828 2.75
      vertex -0.699997 -53.2899 2.75
      vertex 2.71005 -56.7 2.75
    endloop
  endfacet
  facet normal 0 0 1
    outer loop
      vertex -0.699997 -53.2899 2.75
      vertex -0.199997 -53.0828 2.75
      vertex -0.699997 -2.71005 2.75
    endloop
  endfacet
  facet normal -0.707107 0.707107 0
    outer loop
      vertex -0.199997 -2.91716 2.75
      vertex 2.91716 0.199997 4.35
      vertex 2.91716 0.199997 2.75
    endloop
  endfacet
  facet normal -0.707107 0.707107 0
    outer loop
      vertex 2.91716 0.199997 4.35
      vertex -0.199997 -2.91716 2.75
      vertex -0.199997 -2.91716 4.35
    endloop
  endfacet
  facet normal -1 0 0
    outer loop
      vertex -0.199997 -53.0828 2.75
      vertex -0.199997 -2.91716 4.35
      vertex -0.199997 -2.91716 2.75
    endloop
  endfacet
  facet normal -1 -0 0
    outer loop
      vertex -0.199997 -2.91716 4.35
      vertex -0.199997 -53.0828 2.75
      vertex -0.199997 -53.0828 4.35
    endloop
  endfacet
  facet normal -0.707112 -0.707102 0
    outer loop
      vertex 2.91716 -56.2 2.75
      vertex -0.199997 -53.0828 4.35
      vertex -0.199997 -53.0828 2.75
    endloop
  endfacet
  facet normal -0.707112 -0.707102 0
    outer loop
      vertex -0.199997 -53.0828 4.35
      vertex 2.91716 -56.2 2.75
      vertex 2.91716 -56.2 4.35
    endloop
  endfacet
  facet normal 0 -1 0
    outer loop
      vertex 2.91716 -56.2 2.75
      vertex 82.0828 -56.2 4.35
      vertex 2.91716 -56.2 4.35
    endloop
  endfacet
  facet normal 0 -1 -0
    outer loop
      vertex 82.0828 -56.2 4.35
      vertex 2.91716 -56.2 2.75
      vertex 82.0828 -56.2 2.75
    endloop
  endfacet
  facet normal 0.707107 -0.707107 0
    outer loop
      vertex 82.0828 -56.2 4.35
      vertex 85.2 -53.0828 2.75
      vertex 85.2 -53.0828 4.35
    endloop
  endfacet
  facet normal 0.707107 -0.707107 0
    outer loop
      vertex 85.2 -53.0828 2.75
      vertex 82.0828 -56.2 4.35
      vertex 82.0828 -56.2 2.75
    endloop
  endfacet
  facet normal 1 -0 0
    outer loop
      vertex 85.2 -53.0828 4.35
      vertex 85.2 -2.91716 2.75
      vertex 85.2 -2.91716 4.35
    endloop
  endfacet
  facet normal 1 0 0
    outer loop
      vertex 85.2 -2.91716 2.75
      vertex 85.2 -53.0828 4.35
      vertex 85.2 -53.0828 2.75
    endloop
  endfacet
  facet normal 0.707102 0.707112 0
    outer loop
      vertex 85.2 -2.91716 4.35
      vertex 82.0828 0.199997 2.75
      vertex 82.0828 0.199997 4.35
    endloop
  endfacet
  facet normal 0.707102 0.707112 0
    outer loop
      vertex 82.0828 0.199997 2.75
      vertex 85.2 -2.91716 4.35
      vertex 85.2 -2.91716 2.75
    endloop
  endfacet
  facet normal 0 1 -0
    outer loop
      vertex 82.0828 0.199997 2.75
      vertex 2.91716 0.199997 4.35
      vertex 82.0828 0.199997 4.35
    endloop
  endfacet
  facet normal 0 1 0
    outer loop
      vertex 2.91716 0.199997 4.35
      vertex 82.0828 0.199997 2.75
      vertex 2.91716 0.199997 2.75
    endloop
  endfacet
endsolid OpenSCAD_Model
