solid OpenSCAD_Model
  facet normal 0 0 1
    outer loop
      vertex 85.4 -2.83432 5.4
      vertex 84 -3.41422 5.4
      vertex 85.4 -53.1657 5.4
    endloop
  endfacet
  facet normal 0 0 1
    outer loop
      vertex 82.1657 0.399994 5.4
      vertex 84 -3.41422 5.4
      vertex 85.4 -2.83432 5.4
    endloop
  endfacet
  facet normal 0 0 1
    outer loop
      vertex 82.1657 0.399994 5.4
      vertex 81.5858 -1 5.4
      vertex 84 -3.41422 5.4
    endloop
  endfacet
  facet normal 0 0 1
    outer loop
      vertex 82.1657 0.399994 5.4
      vertex 3.41422 -1 5.4
      vertex 81.5858 -1 5.4
    endloop
  endfacet
  facet normal -0 0 1
    outer loop
      vertex 2.83432 0.399994 5.4
      vertex 3.41422 -1 5.4
      vertex 82.1657 0.399994 5.4
    endloop
  endfacet
  facet normal 0 0 1
    outer loop
      vertex 2.83432 0.399994 5.4
      vertex 1 -3.41422 5.4
      vertex 3.41422 -1 5.4
    endloop
  endfacet
  facet normal 0 0 1
    outer loop
      vertex 1 -3.41422 5.4
      vertex -0.399994 -2.83432 5.4
      vertex 1 -52.5858 5.4
    endloop
  endfacet
  facet normal -0 0 1
    outer loop
      vertex -0.399994 -2.83432 5.4
      vertex 1 -3.41422 5.4
      vertex 2.83432 0.399994 5.4
    endloop
  endfacet
  facet normal -0 0 1
    outer loop
      vertex 84 -52.5858 5.4
      vertex 85.4 -53.1657 5.4
      vertex 84 -3.41422 5.4
    endloop
  endfacet
  facet normal 0 0 1
    outer loop
      vertex 84 -52.5858 5.4
      vertex 82.1657 -56.4 5.4
      vertex 85.4 -53.1657 5.4
    endloop
  endfacet
  facet normal -0 0 1
    outer loop
      vertex 81.5858 -55 5.4
      vertex 82.1657 -56.4 5.4
      vertex 84 -52.5858 5.4
    endloop
  endfacet
  facet normal -0 0 1
    outer loop
      vertex 3.41422 -55 5.4
      vertex 82.1657 -56.4 5.4
      vertex 81.5858 -55 5.4
    endloop
  endfacet
  facet normal 0 0 1
    outer loop
      vertex 3.41422 -55 5.4
      vertex 2.83432 -56.4 5.4
      vertex 82.1657 -56.4 5.4
    endloop
  endfacet
  facet normal 0 0 1
    outer loop
      vertex 1 -52.5858 5.4
      vertex 2.83432 -56.4 5.4
      vertex 3.41422 -55 5.4
    endloop
  endfacet
  facet normal 0 0 1
    outer loop
      vertex 1 -52.5858 5.4
      vertex -0.399994 -53.1657 5.4
      vertex 2.83432 -56.4 5.4
    endloop
  endfacet
  facet normal 0 0 1
    outer loop
      vertex -0.399994 -53.1657 5.4
      vertex 1 -52.5858 5.4
      vertex -0.399994 -2.83432 5.4
    endloop
  endfacet
  facet normal 0 0 1
    outer loop
      vertex 85.8 -2.66862 4.6
      vertex 85.4 -2.83432 4.6
      vertex 85.8 -53.3314 4.6
    endloop
  endfacet
  facet normal 0 0 1
    outer loop
      vertex 82.3314 0.800003 4.6
      vertex 85.4 -2.83432 4.6
      vertex 85.8 -2.66862 4.6
    endloop
  endfacet
  facet normal 0 0 1
    outer loop
      vertex 82.3314 0.800003 4.6
      vertex 82.1657 0.399994 4.6
      vertex 85.4 -2.83432 4.6
    endloop
  endfacet
  facet normal 0 0 1
    outer loop
      vertex 82.3314 0.800003 4.6
      vertex 2.83432 0.399994 4.6
      vertex 82.1657 0.399994 4.6
    endloop
  endfacet
  facet normal -0 0 1
    outer loop
      vertex 2.66862 0.800003 4.6
      vertex 2.83432 0.399994 4.6
      vertex 82.3314 0.800003 4.6
    endloop
  endfacet
  facet normal 0 0 1
    outer loop
      vertex 2.66862 0.800003 4.6
      vertex -0.399994 -2.83432 4.6
      vertex 2.83432 0.399994 4.6
    endloop
  endfacet
  facet normal 0 0 1
    outer loop
      vertex -0.399994 -2.83432 4.6
      vertex -0.800003 -2.66862 4.6
      vertex -0.399994 -53.1657 4.6
    endloop
  endfacet
  facet normal -0 0 1
    outer loop
      vertex -0.800003 -2.66862 4.6
      vertex -0.399994 -2.83432 4.6
      vertex 2.66862 0.800003 4.6
    endloop
  endfacet
  facet normal -0 0 1
    outer loop
      vertex 85.4 -53.1657 4.6
      vertex 85.8 -53.3314 4.6
      vertex 85.4 -2.83432 4.6
    endloop
  endfacet
  facet normal 0 0 1
    outer loop
      vertex 85.4 -53.1657 4.6
      vertex 82.3314 -56.8 4.6
      vertex 85.8 -53.3314 4.6
    endloop
  endfacet
  facet normal -0 0 1
    outer loop
      vertex 82.1657 -56.4 4.6
      vertex 82.3314 -56.8 4.6
      vertex 85.4 -53.1657 4.6
    endloop
  endfacet
  facet normal -0 0 1
    outer loop
      vertex 2.83432 -56.4 4.6
      vertex 82.3314 -56.8 4.6
      vertex 82.1657 -56.4 4.6
    endloop
  endfacet
  facet normal 0 0 1
    outer loop
      vertex 2.83432 -56.4 4.6
      vertex 2.66862 -56.8 4.6
      vertex 82.3314 -56.8 4.6
    endloop
  endfacet
  facet normal 0 0 1
    outer loop
      vertex -0.399994 -53.1657 4.6
      vertex 2.66862 -56.8 4.6
      vertex 2.83432 -56.4 4.6
    endloop
  endfacet
  facet normal 0 0 1
    outer loop
      vertex -0.399994 -53.1657 4.6
      vertex -0.800003 -53.3314 4.6
      vertex 2.66862 -56.8 4.6
    endloop
  endfacet
  facet normal 0 0 1
    outer loop
      vertex -0.800003 -53.3314 4.6
      vertex -0.399994 -53.1657 4.6
      vertex -0.800003 -2.66862 4.6
    endloop
  endfacet
  facet normal 1 -0 0
    outer loop
      vertex 85.4 -53.1657 5.4
      vertex 85.4 -2.83432 4.6
      vertex 85.4 -2.83432 5.4
    endloop
  endfacet
  facet normal 1 0 0
    outer loop
      vertex 85.4 -2.83432 4.6
      vertex 85.4 -53.1657 5.4
      vertex 85.4 -53.1657 4.6
    endloop
  endfacet
  facet normal 0.707107 -0.707107 0
    outer loop
      vertex 82.1657 -56.4 5.4
      vertex 85.4 -53.1657 4.6
      vertex 85.4 -53.1657 5.4
    endloop
  endfacet
  facet normal 0.707107 -0.707107 0
    outer loop
      vertex 85.4 -53.1657 4.6
      vertex 82.1657 -56.4 5.4
      vertex 82.1657 -56.4 4.6
    endloop
  endfacet
  facet normal 0 -1 0
    outer loop
      vertex 2.83432 -56.4 4.6
      vertex 82.1657 -56.4 5.4
      vertex 2.83432 -56.4 5.4
    endloop
  endfacet
  facet normal 0 -1 -0
    outer loop
      vertex 82.1657 -56.4 5.4
      vertex 2.83432 -56.4 4.6
      vertex 82.1657 -56.4 4.6
    endloop
  endfacet
  facet normal -0.707105 -0.707108 0
    outer loop
      vertex 2.83432 -56.4 4.6
      vertex -0.399994 -53.1657 5.4
      vertex -0.399994 -53.1657 4.6
    endloop
  endfacet
  facet normal -0.707105 -0.707108 0
    outer loop
      vertex -0.399994 -53.1657 5.4
      vertex 2.83432 -56.4 4.6
      vertex 2.83432 -56.4 5.4
    endloop
  endfacet
  facet normal -1 0 0
    outer loop
      vertex -0.399994 -53.1657 4.6
      vertex -0.399994 -2.83432 5.4
      vertex -0.399994 -2.83432 4.6
    endloop
  endfacet
  facet normal -1 -0 0
    outer loop
      vertex -0.399994 -2.83432 5.4
      vertex -0.399994 -53.1657 4.6
      vertex -0.399994 -53.1657 5.4
    endloop
  endfacet
  facet normal -0.707107 0.707107 0
    outer loop
      vertex -0.399994 -2.83432 4.6
      vertex 2.83432 0.399994 5.4
      vertex 2.83432 0.399994 4.6
    endloop
  endfacet
  facet normal -0.707107 0.707107 0
    outer loop
      vertex 2.83432 0.399994 5.4
      vertex -0.399994 -2.83432 4.6
      vertex -0.399994 -2.83432 5.4
    endloop
  endfacet
  facet normal 0 1 -0
    outer loop
      vertex 82.1657 0.399994 4.6
      vertex 2.83432 0.399994 5.4
      vertex 82.1657 0.399994 5.4
    endloop
  endfacet
  facet normal 0 1 0
    outer loop
      vertex 2.83432 0.399994 5.4
      vertex 82.1657 0.399994 4.6
      vertex 2.83432 0.399994 4.6
    endloop
  endfacet
  facet normal 0.707108 0.707105 0
    outer loop
      vertex 85.4 -2.83432 5.4
      vertex 82.1657 0.399994 4.6
      vertex 82.1657 0.399994 5.4
    endloop
  endfacet
  facet normal 0.707108 0.707105 0
    outer loop
      vertex 82.1657 0.399994 4.6
      vertex 85.4 -2.83432 5.4
      vertex 85.4 -2.83432 4.6
    endloop
  endfacet
  facet normal 0.707107 -0.707107 0
    outer loop
      vertex 1 -3.41422 5.4
      vertex 3.41422 -1 2.4
      vertex 3.41422 -1 5.4
    endloop
  endfacet
  facet normal 0.707107 -0.707107 0
    outer loop
      vertex 3.41422 -1 2.4
      vertex 1 -3.41422 5.4
      vertex 1 -3.41422 2.4
    endloop
  endfacet
  facet normal 1 -0 0
    outer loop
      vertex 1 -52.5858 5.4
      vertex 1 -3.41422 2.4
      vertex 1 -3.41422 5.4
    endloop
  endfacet
  facet normal 1 0 0
    outer loop
      vertex 1 -3.41422 2.4
      vertex 1 -52.5858 5.4
      vertex 1 -52.5858 2.4
    endloop
  endfacet
  facet normal 0.707104 0.70711 0
    outer loop
      vertex 3.41422 -55 5.4
      vertex 1 -52.5858 2.4
      vertex 1 -52.5858 5.4
    endloop
  endfacet
  facet normal 0.707104 0.70711 0
    outer loop
      vertex 1 -52.5858 2.4
      vertex 3.41422 -55 5.4
      vertex 3.41422 -55 2.4
    endloop
  endfacet
  facet normal 0 1 0
    outer loop
      vertex 81.5858 -55 5.4
      vertex 59 -55 2.5
      vertex 3.41422 -55 5.4
    endloop
  endfacet
  facet normal 0 1 -0
    outer loop
      vertex 81.5858 -55 2.4
      vertex 59 -55 2.5
      vertex 81.5858 -55 5.4
    endloop
  endfacet
  facet normal 0 1 0
    outer loop
      vertex 59 -55 2.5
      vertex 81.5858 -55 2.4
      vertex 59 -55 2.4
    endloop
  endfacet
  facet normal 0 1 -0
    outer loop
      vertex 6 -55 2.5
      vertex 3.41422 -55 5.4
      vertex 59 -55 2.5
    endloop
  endfacet
  facet normal 0 1 0
    outer loop
      vertex 3.41422 -55 2.4
      vertex 6 -55 2.5
      vertex 6 -55 2.4
    endloop
  endfacet
  facet normal 0 1 0
    outer loop
      vertex 6 -55 2.5
      vertex 3.41422 -55 2.4
      vertex 3.41422 -55 5.4
    endloop
  endfacet
  facet normal -0.707107 0.707107 0
    outer loop
      vertex 81.5858 -55 2.4
      vertex 84 -52.5858 5.4
      vertex 84 -52.5858 2.4
    endloop
  endfacet
  facet normal -0.707107 0.707107 0
    outer loop
      vertex 84 -52.5858 5.4
      vertex 81.5858 -55 2.4
      vertex 81.5858 -55 5.4
    endloop
  endfacet
  facet normal -1 0 0
    outer loop
      vertex 84 -52.5858 2.4
      vertex 84 -3.41422 5.4
      vertex 84 -3.41422 2.4
    endloop
  endfacet
  facet normal -1 -0 0
    outer loop
      vertex 84 -3.41422 5.4
      vertex 84 -52.5858 2.4
      vertex 84 -52.5858 5.4
    endloop
  endfacet
  facet normal -0.70711 -0.707104 0
    outer loop
      vertex 84 -3.41422 2.4
      vertex 81.5858 -1 5.4
      vertex 81.5858 -1 2.4
    endloop
  endfacet
  facet normal -0.70711 -0.707104 0
    outer loop
      vertex 81.5858 -1 5.4
      vertex 84 -3.41422 2.4
      vertex 84 -3.41422 5.4
    endloop
  endfacet
  facet normal 0 -1 0
    outer loop
      vertex 3.41422 -1 2.4
      vertex 81.5858 -1 5.4
      vertex 3.41422 -1 5.4
    endloop
  endfacet
  facet normal 0 -1 -0
    outer loop
      vertex 81.5858 -1 5.4
      vertex 3.41422 -1 2.4
      vertex 81.5858 -1 2.4
    endloop
  endfacet
  facet normal 1 -0 0
    outer loop
      vertex 85.8 -53.3314 4.6
      vertex 85.8 -2.66862 2.4
      vertex 85.8 -2.66862 4.6
    endloop
  endfacet
  facet normal 1 0 0
    outer loop
      vertex 85.8 -2.66862 2.4
      vertex 85.8 -53.3314 4.6
      vertex 85.8 -53.3314 2.4
    endloop
  endfacet
  facet normal 0.707107 -0.707107 0
    outer loop
      vertex 82.3314 -56.8 4.6
      vertex 85.8 -53.3314 2.4
      vertex 85.8 -53.3314 4.6
    endloop
  endfacet
  facet normal 0.707107 -0.707107 0
    outer loop
      vertex 85.8 -53.3314 2.4
      vertex 82.3314 -56.8 4.6
      vertex 82.3314 -56.8 2.4
    endloop
  endfacet
  facet normal 0 -1 0
    outer loop
      vertex 59 -56.8 2.5
      vertex 2.66862 -56.8 4.6
      vertex 6 -56.8 2.5
    endloop
  endfacet
  facet normal 0 -1 0
    outer loop
      vertex 2.66862 -56.8 2.4
      vertex 6 -56.8 2.5
      vertex 2.66862 -56.8 4.6
    endloop
  endfacet
  facet normal 0 -1 -0
    outer loop
      vertex 6 -56.8 2.5
      vertex 2.66862 -56.8 2.4
      vertex 6 -56.8 2.4
    endloop
  endfacet
  facet normal 0 -1 0
    outer loop
      vertex 2.66862 -56.8 4.6
      vertex 59 -56.8 2.5
      vertex 82.3314 -56.8 4.6
    endloop
  endfacet
  facet normal 0 -1 0
    outer loop
      vertex 82.3314 -56.8 2.4
      vertex 59 -56.8 2.5
      vertex 59 -56.8 2.4
    endloop
  endfacet
  facet normal 0 -1 0
    outer loop
      vertex 59 -56.8 2.5
      vertex 82.3314 -56.8 2.4
      vertex 82.3314 -56.8 4.6
    endloop
  endfacet
  facet normal -0.707104 -0.707109 0
    outer loop
      vertex 2.66862 -56.8 2.4
      vertex -0.800003 -53.3314 4.6
      vertex -0.800003 -53.3314 2.4
    endloop
  endfacet
  facet normal -0.707104 -0.707109 0
    outer loop
      vertex -0.800003 -53.3314 4.6
      vertex 2.66862 -56.8 2.4
      vertex 2.66862 -56.8 4.6
    endloop
  endfacet
  facet normal -1 0 0
    outer loop
      vertex -0.800003 -53.3314 2.4
      vertex -0.800003 -2.66862 4.6
      vertex -0.800003 -2.66862 2.4
    endloop
  endfacet
  facet normal -1 -0 0
    outer loop
      vertex -0.800003 -2.66862 4.6
      vertex -0.800003 -53.3314 2.4
      vertex -0.800003 -53.3314 4.6
    endloop
  endfacet
  facet normal -0.707107 0.707107 0
    outer loop
      vertex -0.800003 -2.66862 2.4
      vertex 2.66862 0.800003 4.6
      vertex 2.66862 0.800003 2.4
    endloop
  endfacet
  facet normal -0.707107 0.707107 0
    outer loop
      vertex 2.66862 0.800003 4.6
      vertex -0.800003 -2.66862 2.4
      vertex -0.800003 -2.66862 4.6
    endloop
  endfacet
  facet normal 0 1 -0
    outer loop
      vertex 82.3314 0.800003 2.4
      vertex 2.66862 0.800003 4.6
      vertex 82.3314 0.800003 4.6
    endloop
  endfacet
  facet normal 0 1 0
    outer loop
      vertex 2.66862 0.800003 4.6
      vertex 82.3314 0.800003 2.4
      vertex 2.66862 0.800003 2.4
    endloop
  endfacet
  facet normal 0.707109 0.707104 0
    outer loop
      vertex 85.8 -2.66862 4.6
      vertex 82.3314 0.800003 2.4
      vertex 82.3314 0.800003 4.6
    endloop
  endfacet
  facet normal 0.707109 0.707104 0
    outer loop
      vertex 82.3314 0.800003 2.4
      vertex 85.8 -2.66862 4.6
      vertex 85.8 -2.66862 2.4
    endloop
  endfacet
  facet normal 0.707107 -0.707107 0
    outer loop
      vertex 83.2012 -58.9 2.4
      vertex 87.9 -54.2012 1.39
      vertex 87.9 -54.2012 2.4
    endloop
  endfacet
  facet normal 0.707107 -0.707107 0
    outer loop
      vertex 87.9 -54.2012 1.39
      vertex 83.2012 -58.9 2.4
      vertex 83.2012 -58.9 1.39
    endloop
  endfacet
  facet normal -1 0 0
    outer loop
      vertex -2.89999 -54.2012 1.39
      vertex -2.89999 -1.79878 2.4
      vertex -2.89999 -1.79878 1.39
    endloop
  endfacet
  facet normal -1 -0 0
    outer loop
      vertex -2.89999 -1.79878 2.4
      vertex -2.89999 -54.2012 1.39
      vertex -2.89999 -54.2012 2.4
    endloop
  endfacet
  facet normal 1 -0 0
    outer loop
      vertex 87.9 -54.2012 2.4
      vertex 87.9 -1.79878 1.39
      vertex 87.9 -1.79878 2.4
    endloop
  endfacet
  facet normal 1 0 0
    outer loop
      vertex 87.9 -1.79878 1.39
      vertex 87.9 -54.2012 2.4
      vertex 87.9 -54.2012 1.39
    endloop
  endfacet
  facet normal 0 0 1
    outer loop
      vertex 87.9 -1.79878 2.4
      vertex 85.8 -2.66862 2.4
      vertex 87.9 -54.2012 2.4
    endloop
  endfacet
  facet normal 0 0 1
    outer loop
      vertex 83.2012 2.89999 2.4
      vertex 85.8 -2.66862 2.4
      vertex 87.9 -1.79878 2.4
    endloop
  endfacet
  facet normal 0 0 1
    outer loop
      vertex 83.2012 2.89999 2.4
      vertex 82.3314 0.800003 2.4
      vertex 85.8 -2.66862 2.4
    endloop
  endfacet
  facet normal 0 0 1
    outer loop
      vertex 83.2012 2.89999 2.4
      vertex 2.66862 0.800003 2.4
      vertex 82.3314 0.800003 2.4
    endloop
  endfacet
  facet normal -0 0 1
    outer loop
      vertex 1.79878 2.89999 2.4
      vertex 2.66862 0.800003 2.4
      vertex 83.2012 2.89999 2.4
    endloop
  endfacet
  facet normal 0 0 1
    outer loop
      vertex 1.79878 2.89999 2.4
      vertex -0.800003 -2.66862 2.4
      vertex 2.66862 0.800003 2.4
    endloop
  endfacet
  facet normal 0 0 1
    outer loop
      vertex -0.800003 -2.66862 2.4
      vertex -2.89999 -1.79878 2.4
      vertex -0.800003 -53.3314 2.4
    endloop
  endfacet
  facet normal -0 0 1
    outer loop
      vertex -2.89999 -1.79878 2.4
      vertex -0.800003 -2.66862 2.4
      vertex 1.79878 2.89999 2.4
    endloop
  endfacet
  facet normal -0 0 1
    outer loop
      vertex 85.8 -53.3314 2.4
      vertex 87.9 -54.2012 2.4
      vertex 85.8 -2.66862 2.4
    endloop
  endfacet
  facet normal 0 0 1
    outer loop
      vertex 85.8 -53.3314 2.4
      vertex 83.2012 -58.9 2.4
      vertex 87.9 -54.2012 2.4
    endloop
  endfacet
  facet normal -0 0 1
    outer loop
      vertex 82.3314 -56.8 2.4
      vertex 83.2012 -58.9 2.4
      vertex 85.8 -53.3314 2.4
    endloop
  endfacet
  facet normal 0 0 1
    outer loop
      vertex 59 -58.9 2.4
      vertex 82.3314 -56.8 2.4
      vertex 59 -56.8 2.4
    endloop
  endfacet
  facet normal 0 0 1
    outer loop
      vertex 82.3314 -56.8 2.4
      vertex 59 -58.9 2.4
      vertex 83.2012 -58.9 2.4
    endloop
  endfacet
  facet normal -0 0 1
    outer loop
      vertex 2.66862 -56.8 2.4
      vertex 6 -58.9 2.4
      vertex 6 -56.8 2.4
    endloop
  endfacet
  facet normal 0 0 1
    outer loop
      vertex 2.66862 -56.8 2.4
      vertex 1.79878 -58.9 2.4
      vertex 6 -58.9 2.4
    endloop
  endfacet
  facet normal 0 0 1
    outer loop
      vertex -0.800003 -53.3314 2.4
      vertex 1.79878 -58.9 2.4
      vertex 2.66862 -56.8 2.4
    endloop
  endfacet
  facet normal 0 0 1
    outer loop
      vertex -0.800003 -53.3314 2.4
      vertex -2.89999 -54.2012 2.4
      vertex 1.79878 -58.9 2.4
    endloop
  endfacet
  facet normal 0 0 1
    outer loop
      vertex -2.89999 -54.2012 2.4
      vertex -0.800003 -53.3314 2.4
      vertex -2.89999 -1.79878 2.4
    endloop
  endfacet
  facet normal -0 0 1
    outer loop
      vertex 57 -45.36 2.4
      vertex 59 -53 2.4
      vertex 59.6 -45.36 2.4
    endloop
  endfacet
  facet normal 0 0 1
    outer loop
      vertex 54.6 -45.36 2.4
      vertex 57 -45.36 2.4
      vertex 54.6 -10.64 2.4
    endloop
  endfacet
  facet normal -0 0 1
    outer loop
      vertex 54.6 -45.36 2.4
      vertex 59 -53 2.4
      vertex 57 -45.36 2.4
    endloop
  endfacet
  facet normal -0 0 1
    outer loop
      vertex 52 -45.36 2.4
      vertex 59 -53 2.4
      vertex 54.6 -45.36 2.4
    endloop
  endfacet
  facet normal 0 0 1
    outer loop
      vertex 49.6 -45.36 2.4
      vertex 52 -45.36 2.4
      vertex 49.6 -10.64 2.4
    endloop
  endfacet
  facet normal -0 0 1
    outer loop
      vertex 49.6 -45.36 2.4
      vertex 59 -53 2.4
      vertex 52 -45.36 2.4
    endloop
  endfacet
  facet normal -0 0 1
    outer loop
      vertex 47 -45.36 2.4
      vertex 59 -53 2.4
      vertex 49.6 -45.36 2.4
    endloop
  endfacet
  facet normal 0 0 1
    outer loop
      vertex 44.6 -45.36 2.4
      vertex 47 -45.36 2.4
      vertex 44.6 -10.64 2.4
    endloop
  endfacet
  facet normal -0 0 1
    outer loop
      vertex 44.6 -45.36 2.4
      vertex 59 -53 2.4
      vertex 47 -45.36 2.4
    endloop
  endfacet
  facet normal -0 0 1
    outer loop
      vertex 42 -45.36 2.4
      vertex 59 -53 2.4
      vertex 44.6 -45.36 2.4
    endloop
  endfacet
  facet normal 0 0 1
    outer loop
      vertex 39.6 -45.36 2.4
      vertex 42 -45.36 2.4
      vertex 39.6 -10.64 2.4
    endloop
  endfacet
  facet normal -0 0 1
    outer loop
      vertex 39.6 -45.36 2.4
      vertex 59 -53 2.4
      vertex 42 -45.36 2.4
    endloop
  endfacet
  facet normal -0 0 1
    outer loop
      vertex 37 -45.36 2.4
      vertex 59 -53 2.4
      vertex 39.6 -45.36 2.4
    endloop
  endfacet
  facet normal 0 0 1
    outer loop
      vertex 34.6 -45.36 2.4
      vertex 37 -45.36 2.4
      vertex 34.6 -10.64 2.4
    endloop
  endfacet
  facet normal -0 0 1
    outer loop
      vertex 34.6 -45.36 2.4
      vertex 59 -53 2.4
      vertex 37 -45.36 2.4
    endloop
  endfacet
  facet normal -0 0 1
    outer loop
      vertex 32 -45.36 2.4
      vertex 59 -53 2.4
      vertex 34.6 -45.36 2.4
    endloop
  endfacet
  facet normal 0 0 1
    outer loop
      vertex 29.6 -45.36 2.4
      vertex 32 -45.36 2.4
      vertex 29.6 -10.64 2.4
    endloop
  endfacet
  facet normal 0 0 1
    outer loop
      vertex 6 -53 2.4
      vertex 32 -45.36 2.4
      vertex 29.6 -45.36 2.4
    endloop
  endfacet
  facet normal 0 0 1
    outer loop
      vertex 6 -53 2.4
      vertex 29.6 -45.36 2.4
      vertex 27 -45.36 2.4
    endloop
  endfacet
  facet normal 0 0 1
    outer loop
      vertex 24.6 -45.36 2.4
      vertex 27 -45.36 2.4
      vertex 24.6 -10.64 2.4
    endloop
  endfacet
  facet normal 0 0 1
    outer loop
      vertex 6 -53 2.4
      vertex 27 -45.36 2.4
      vertex 24.6 -45.36 2.4
    endloop
  endfacet
  facet normal 0 0 1
    outer loop
      vertex 6 -53 2.4
      vertex 24.6 -45.36 2.4
      vertex 22 -45.36 2.4
    endloop
  endfacet
  facet normal 0 0 1
    outer loop
      vertex 19.6 -45.36 2.4
      vertex 22 -45.36 2.4
      vertex 19.6 -10.64 2.4
    endloop
  endfacet
  facet normal 0 0 1
    outer loop
      vertex 6 -53 2.4
      vertex 22 -45.36 2.4
      vertex 19.6 -45.36 2.4
    endloop
  endfacet
  facet normal 0 0 1
    outer loop
      vertex 6 -53 2.4
      vertex 19.6 -45.36 2.4
      vertex 17 -45.36 2.4
    endloop
  endfacet
  facet normal 0 0 1
    outer loop
      vertex 14.6 -45.36 2.4
      vertex 17 -45.36 2.4
      vertex 14.6 -10.64 2.4
    endloop
  endfacet
  facet normal 0 0 1
    outer loop
      vertex 6 -53 2.4
      vertex 17 -45.36 2.4
      vertex 14.6 -45.36 2.4
    endloop
  endfacet
  facet normal 0 0 1
    outer loop
      vertex 6 -53 2.4
      vertex 14.6 -45.36 2.4
      vertex 12 -45.36 2.4
    endloop
  endfacet
  facet normal 0 0 1
    outer loop
      vertex 32 -45.36 2.4
      vertex 6 -53 2.4
      vertex 59 -53 2.4
    endloop
  endfacet
  facet normal 0 0 1
    outer loop
      vertex 69.6 -10.64 2.4
      vertex 84 -3.41422 2.4
      vertex 81.5858 -1 2.4
    endloop
  endfacet
  facet normal 0 0 1
    outer loop
      vertex 84 -3.41422 2.4
      vertex 69.6 -10.64 2.4
      vertex 84 -52.5858 2.4
    endloop
  endfacet
  facet normal -0 0 1
    outer loop
      vertex 69.6 -45.36 2.4
      vertex 84 -52.5858 2.4
      vertex 69.6 -10.64 2.4
    endloop
  endfacet
  facet normal 0 0 1
    outer loop
      vertex 81.5858 -1 2.4
      vertex 67 -10.64 2.4
      vertex 69.6 -10.64 2.4
    endloop
  endfacet
  facet normal 0 0 1
    outer loop
      vertex 67 -10.64 2.4
      vertex 64.6 -10.64 2.4
      vertex 67 -45.36 2.4
    endloop
  endfacet
  facet normal 0 0 1
    outer loop
      vertex 81.5858 -1 2.4
      vertex 64.6 -10.64 2.4
      vertex 67 -10.64 2.4
    endloop
  endfacet
  facet normal 0 0 1
    outer loop
      vertex 81.5858 -1 2.4
      vertex 62 -10.64 2.4
      vertex 64.6 -10.64 2.4
    endloop
  endfacet
  facet normal 0 0 1
    outer loop
      vertex 62 -10.64 2.4
      vertex 59.6 -10.64 2.4
      vertex 62 -45.36 2.4
    endloop
  endfacet
  facet normal 0 0 1
    outer loop
      vertex 81.5858 -1 2.4
      vertex 59.6 -10.64 2.4
      vertex 62 -10.64 2.4
    endloop
  endfacet
  facet normal 0 0 1
    outer loop
      vertex 81.5858 -1 2.4
      vertex 57 -10.64 2.4
      vertex 59.6 -10.64 2.4
    endloop
  endfacet
  facet normal 0 0 1
    outer loop
      vertex 57 -10.64 2.4
      vertex 54.6 -10.64 2.4
      vertex 57 -45.36 2.4
    endloop
  endfacet
  facet normal 0 0 1
    outer loop
      vertex 81.5858 -1 2.4
      vertex 54.6 -10.64 2.4
      vertex 57 -10.64 2.4
    endloop
  endfacet
  facet normal 0 0 1
    outer loop
      vertex 81.5858 -1 2.4
      vertex 52 -10.64 2.4
      vertex 54.6 -10.64 2.4
    endloop
  endfacet
  facet normal 0 0 1
    outer loop
      vertex 52 -10.64 2.4
      vertex 49.6 -10.64 2.4
      vertex 52 -45.36 2.4
    endloop
  endfacet
  facet normal 0 0 1
    outer loop
      vertex 81.5858 -1 2.4
      vertex 49.6 -10.64 2.4
      vertex 52 -10.64 2.4
    endloop
  endfacet
  facet normal 0 0 1
    outer loop
      vertex 81.5858 -1 2.4
      vertex 47 -10.64 2.4
      vertex 49.6 -10.64 2.4
    endloop
  endfacet
  facet normal 0 0 1
    outer loop
      vertex 47 -10.64 2.4
      vertex 44.6 -10.64 2.4
      vertex 47 -45.36 2.4
    endloop
  endfacet
  facet normal 0 0 1
    outer loop
      vertex 81.5858 -1 2.4
      vertex 44.6 -10.64 2.4
      vertex 47 -10.64 2.4
    endloop
  endfacet
  facet normal 0 0 1
    outer loop
      vertex 81.5858 -1 2.4
      vertex 42 -10.64 2.4
      vertex 44.6 -10.64 2.4
    endloop
  endfacet
  facet normal 0 0 1
    outer loop
      vertex 42 -10.64 2.4
      vertex 39.6 -10.64 2.4
      vertex 42 -45.36 2.4
    endloop
  endfacet
  facet normal -0 0 1
    outer loop
      vertex 3.41422 -1 2.4
      vertex 42 -10.64 2.4
      vertex 81.5858 -1 2.4
    endloop
  endfacet
  facet normal 0 0 1
    outer loop
      vertex 42 -10.64 2.4
      vertex 3.41422 -1 2.4
      vertex 39.6 -10.64 2.4
    endloop
  endfacet
  facet normal 0 0 1
    outer loop
      vertex 37 -10.64 2.4
      vertex 34.6 -10.64 2.4
      vertex 37 -45.36 2.4
    endloop
  endfacet
  facet normal 0 0 1
    outer loop
      vertex 39.6 -10.64 2.4
      vertex 3.41422 -1 2.4
      vertex 37 -10.64 2.4
    endloop
  endfacet
  facet normal 0 0 1
    outer loop
      vertex 37 -10.64 2.4
      vertex 3.41422 -1 2.4
      vertex 34.6 -10.64 2.4
    endloop
  endfacet
  facet normal 0 0 1
    outer loop
      vertex 32 -10.64 2.4
      vertex 29.6 -10.64 2.4
      vertex 32 -45.36 2.4
    endloop
  endfacet
  facet normal 0 0 1
    outer loop
      vertex 34.6 -10.64 2.4
      vertex 3.41422 -1 2.4
      vertex 32 -10.64 2.4
    endloop
  endfacet
  facet normal 0 0 1
    outer loop
      vertex 32 -10.64 2.4
      vertex 3.41422 -1 2.4
      vertex 29.6 -10.64 2.4
    endloop
  endfacet
  facet normal 0 0 1
    outer loop
      vertex 27 -10.64 2.4
      vertex 24.6 -10.64 2.4
      vertex 27 -45.36 2.4
    endloop
  endfacet
  facet normal 0 0 1
    outer loop
      vertex 29.6 -10.64 2.4
      vertex 3.41422 -1 2.4
      vertex 27 -10.64 2.4
    endloop
  endfacet
  facet normal 0 0 1
    outer loop
      vertex 27 -10.64 2.4
      vertex 3.41422 -1 2.4
      vertex 24.6 -10.64 2.4
    endloop
  endfacet
  facet normal 0 0 1
    outer loop
      vertex 22 -10.64 2.4
      vertex 19.6 -10.64 2.4
      vertex 22 -45.36 2.4
    endloop
  endfacet
  facet normal 0 0 1
    outer loop
      vertex 24.6 -10.64 2.4
      vertex 3.41422 -1 2.4
      vertex 22 -10.64 2.4
    endloop
  endfacet
  facet normal 0 0 1
    outer loop
      vertex 22 -10.64 2.4
      vertex 3.41422 -1 2.4
      vertex 19.6 -10.64 2.4
    endloop
  endfacet
  facet normal 0 0 1
    outer loop
      vertex 17 -10.64 2.4
      vertex 14.6 -10.64 2.4
      vertex 17 -45.36 2.4
    endloop
  endfacet
  facet normal 0 0 1
    outer loop
      vertex 19.6 -10.64 2.4
      vertex 3.41422 -1 2.4
      vertex 17 -10.64 2.4
    endloop
  endfacet
  facet normal 0 0 1
    outer loop
      vertex 17 -10.64 2.4
      vertex 3.41422 -1 2.4
      vertex 14.6 -10.64 2.4
    endloop
  endfacet
  facet normal 0 0 1
    outer loop
      vertex 1 -52.5858 2.4
      vertex 12 -45.36 2.4
      vertex 12 -10.64 2.4
    endloop
  endfacet
  facet normal 0 0 1
    outer loop
      vertex 14.6 -10.64 2.4
      vertex 3.41422 -1 2.4
      vertex 12 -10.64 2.4
    endloop
  endfacet
  facet normal -0 0 1
    outer loop
      vertex 1 -3.41422 2.4
      vertex 12 -10.64 2.4
      vertex 3.41422 -1 2.4
    endloop
  endfacet
  facet normal 0 0 1
    outer loop
      vertex 1 -52.5858 2.4
      vertex 12 -10.64 2.4
      vertex 1 -3.41422 2.4
    endloop
  endfacet
  facet normal 0 0 1
    outer loop
      vertex 12 -45.36 2.4
      vertex 1 -52.5858 2.4
      vertex 6 -53 2.4
    endloop
  endfacet
  facet normal 0 -0 1
    outer loop
      vertex 3.41422 -55 2.4
      vertex 6 -53 2.4
      vertex 1 -52.5858 2.4
    endloop
  endfacet
  facet normal 0 0 1
    outer loop
      vertex 6 -53 2.4
      vertex 3.41422 -55 2.4
      vertex 6 -55 2.4
    endloop
  endfacet
  facet normal 0 0 1
    outer loop
      vertex 84 -52.5858 2.4
      vertex 69.6 -45.36 2.4
      vertex 81.5858 -55 2.4
    endloop
  endfacet
  facet normal 0 0 1
    outer loop
      vertex 59 -55 2.4
      vertex 69.6 -45.36 2.4
      vertex 67 -45.36 2.4
    endloop
  endfacet
  facet normal 0 0 1
    outer loop
      vertex 64.6 -45.36 2.4
      vertex 67 -45.36 2.4
      vertex 64.6 -10.64 2.4
    endloop
  endfacet
  facet normal 0 0 1
    outer loop
      vertex 59 -53 2.4
      vertex 67 -45.36 2.4
      vertex 64.6 -45.36 2.4
    endloop
  endfacet
  facet normal 0 0 1
    outer loop
      vertex 59 -53 2.4
      vertex 64.6 -45.36 2.4
      vertex 62 -45.36 2.4
    endloop
  endfacet
  facet normal 0 0 1
    outer loop
      vertex 59.6 -45.36 2.4
      vertex 62 -45.36 2.4
      vertex 59.6 -10.64 2.4
    endloop
  endfacet
  facet normal 0 0 1
    outer loop
      vertex 59 -53 2.4
      vertex 62 -45.36 2.4
      vertex 59.6 -45.36 2.4
    endloop
  endfacet
  facet normal 0 0 1
    outer loop
      vertex 67 -45.36 2.4
      vertex 59 -53 2.4
      vertex 59 -55 2.4
    endloop
  endfacet
  facet normal 0 0 1
    outer loop
      vertex 69.6 -45.36 2.4
      vertex 59 -55 2.4
      vertex 81.5858 -55 2.4
    endloop
  endfacet
  facet normal 0 -1 0
    outer loop
      vertex 59 -58.9 1.39
      vertex 83.2012 -58.9 2.4
      vertex 59 -58.9 2.4
    endloop
  endfacet
  facet normal 0 -1 -0
    outer loop
      vertex 83.2012 -58.9 2.4
      vertex 59 -58.9 1.39
      vertex 83.2012 -58.9 1.39
    endloop
  endfacet
  facet normal 0 -1 0
    outer loop
      vertex 1.79878 -58.9 1.39
      vertex 6 -58.9 2.4
      vertex 1.79878 -58.9 2.4
    endloop
  endfacet
  facet normal 0 -1 -0
    outer loop
      vertex 6 -58.9 2.4
      vertex 1.79878 -58.9 1.39
      vertex 6 -58.9 1.39
    endloop
  endfacet
  facet normal -0.707107 0.707107 0
    outer loop
      vertex -2.89999 -1.79878 1.39
      vertex 1.79878 2.89999 2.4
      vertex 1.79878 2.89999 1.39
    endloop
  endfacet
  facet normal -0.707107 0.707107 0
    outer loop
      vertex 1.79878 2.89999 2.4
      vertex -2.89999 -1.79878 1.39
      vertex -2.89999 -1.79878 2.4
    endloop
  endfacet
  facet normal 0.707105 0.707109 0
    outer loop
      vertex 87.9 -1.79878 2.4
      vertex 83.2012 2.89999 1.39
      vertex 83.2012 2.89999 2.4
    endloop
  endfacet
  facet normal 0.707105 0.707109 0
    outer loop
      vertex 83.2012 2.89999 1.39
      vertex 87.9 -1.79878 2.4
      vertex 87.9 -1.79878 1.39
    endloop
  endfacet
  facet normal -0.707109 -0.707105 0
    outer loop
      vertex 1.79878 -58.9 1.39
      vertex -2.89999 -54.2012 2.4
      vertex -2.89999 -54.2012 1.39
    endloop
  endfacet
  facet normal -0.707109 -0.707105 0
    outer loop
      vertex -2.89999 -54.2012 2.4
      vertex 1.79878 -58.9 1.39
      vertex 1.79878 -58.9 2.4
    endloop
  endfacet
  facet normal 0 1 -0
    outer loop
      vertex 83.2012 2.89999 1.39
      vertex 1.79878 2.89999 2.4
      vertex 83.2012 2.89999 2.4
    endloop
  endfacet
  facet normal 0 1 0
    outer loop
      vertex 1.79878 2.89999 2.4
      vertex 83.2012 2.89999 1.39
      vertex 1.79878 2.89999 1.39
    endloop
  endfacet
  facet normal 0.704568 0 -0.709637
    outer loop
      vertex 86.5 -53.6213 0
      vertex 87.9 -1.79878 1.39
      vertex 87.9 -54.2012 1.39
    endloop
  endfacet
  facet normal 0.704568 0 -0.709637
    outer loop
      vertex 87.9 -1.79878 1.39
      vertex 86.5 -53.6213 0
      vertex 86.5 -2.37868 0
    endloop
  endfacet
  facet normal 0 -0.704568 -0.709637
    outer loop
      vertex 6 -58.9 1.39
      vertex 2.37868 -57.5 0
      vertex 6 -57.5 0
    endloop
  endfacet
  facet normal 0 -0.704568 -0.709637
    outer loop
      vertex 2.37868 -57.5 0
      vertex 6 -58.9 1.39
      vertex 1.79878 -58.9 1.39
    endloop
  endfacet
  facet normal 0 -0.704568 -0.709637
    outer loop
      vertex 59 -58.9 1.39
      vertex 82.6213 -57.5 0
      vertex 83.2012 -58.9 1.39
    endloop
  endfacet
  facet normal -0 -0.704568 -0.709637
    outer loop
      vertex 82.6213 -57.5 0
      vertex 59 -58.9 1.39
      vertex 59 -57.5 0
    endloop
  endfacet
  facet normal -0.70457 0 -0.709634
    outer loop
      vertex -2.89999 -54.2012 1.39
      vertex -1.5 -2.37868 0
      vertex -1.5 -53.6213 0
    endloop
  endfacet
  facet normal -0.70457 0 -0.709634
    outer loop
      vertex -1.5 -2.37868 0
      vertex -2.89999 -54.2012 1.39
      vertex -2.89999 -1.79878 1.39
    endloop
  endfacet
  facet normal 0 0 -1
    outer loop
      vertex 6 -57.5 0
      vertex 2.37868 -57.5 0
      vertex 6 -53 0
    endloop
  endfacet
  facet normal 0 0 -1
    outer loop
      vertex 69.6 -45.36 0
      vertex 86.5 -53.6213 0
      vertex 82.6213 -57.5 0
    endloop
  endfacet
  facet normal 0 0 -1
    outer loop
      vertex 86.5 -53.6213 0
      vertex 69.6 -45.36 0
      vertex 86.5 -2.37868 0
    endloop
  endfacet
  facet normal 0 0 -1
    outer loop
      vertex 69.6 -10.64 0
      vertex 86.5 -2.37868 0
      vertex 69.6 -45.36 0
    endloop
  endfacet
  facet normal 0 0 -1
    outer loop
      vertex 59 -57.5 0
      vertex 69.6 -45.36 0
      vertex 82.6213 -57.5 0
    endloop
  endfacet
  facet normal 0 0 -1
    outer loop
      vertex 67 -45.36 0
      vertex 64.6 -45.36 0
      vertex 67 -10.64 0
    endloop
  endfacet
  facet normal 0 0 -1
    outer loop
      vertex 59 -53 0
      vertex 69.6 -45.36 0
      vertex 59 -57.5 0
    endloop
  endfacet
  facet normal -0 0 -1
    outer loop
      vertex 69.6 -45.36 0
      vertex 59 -53 0
      vertex 67 -45.36 0
    endloop
  endfacet
  facet normal 0 0 -1
    outer loop
      vertex 62 -45.36 0
      vertex 59.6 -45.36 0
      vertex 62 -10.64 0
    endloop
  endfacet
  facet normal -0 0 -1
    outer loop
      vertex 64.6 -45.36 0
      vertex 59 -53 0
      vertex 62 -45.36 0
    endloop
  endfacet
  facet normal -0 0 -1
    outer loop
      vertex 67 -45.36 0
      vertex 59 -53 0
      vertex 64.6 -45.36 0
    endloop
  endfacet
  facet normal -0 0 -1
    outer loop
      vertex 62 -45.36 0
      vertex 59 -53 0
      vertex 59.6 -45.36 0
    endloop
  endfacet
  facet normal 0 0 -1
    outer loop
      vertex 59 -53 0
      vertex 57 -45.36 0
      vertex 59.6 -45.36 0
    endloop
  endfacet
  facet normal 0 0 -1
    outer loop
      vertex 57 -45.36 0
      vertex 54.6 -45.36 0
      vertex 57 -10.64 0
    endloop
  endfacet
  facet normal 0 0 -1
    outer loop
      vertex 59 -53 0
      vertex 54.6 -45.36 0
      vertex 57 -45.36 0
    endloop
  endfacet
  facet normal 0 0 -1
    outer loop
      vertex 59 -53 0
      vertex 52 -45.36 0
      vertex 54.6 -45.36 0
    endloop
  endfacet
  facet normal 0 0 -1
    outer loop
      vertex 52 -45.36 0
      vertex 49.6 -45.36 0
      vertex 52 -10.64 0
    endloop
  endfacet
  facet normal 0 0 -1
    outer loop
      vertex 59 -53 0
      vertex 49.6 -45.36 0
      vertex 52 -45.36 0
    endloop
  endfacet
  facet normal 0 0 -1
    outer loop
      vertex 59 -53 0
      vertex 47 -45.36 0
      vertex 49.6 -45.36 0
    endloop
  endfacet
  facet normal 0 0 -1
    outer loop
      vertex 47 -45.36 0
      vertex 44.6 -45.36 0
      vertex 47 -10.64 0
    endloop
  endfacet
  facet normal 0 0 -1
    outer loop
      vertex 59 -53 0
      vertex 44.6 -45.36 0
      vertex 47 -45.36 0
    endloop
  endfacet
  facet normal 0 0 -1
    outer loop
      vertex 59 -53 0
      vertex 42 -45.36 0
      vertex 44.6 -45.36 0
    endloop
  endfacet
  facet normal 0 0 -1
    outer loop
      vertex 42 -45.36 0
      vertex 39.6 -45.36 0
      vertex 42 -10.64 0
    endloop
  endfacet
  facet normal 0 0 -1
    outer loop
      vertex 59 -53 0
      vertex 39.6 -45.36 0
      vertex 42 -45.36 0
    endloop
  endfacet
  facet normal 0 0 -1
    outer loop
      vertex 59 -53 0
      vertex 37 -45.36 0
      vertex 39.6 -45.36 0
    endloop
  endfacet
  facet normal 0 0 -1
    outer loop
      vertex 37 -45.36 0
      vertex 34.6 -45.36 0
      vertex 37 -10.64 0
    endloop
  endfacet
  facet normal 0 0 -1
    outer loop
      vertex 59 -53 0
      vertex 34.6 -45.36 0
      vertex 37 -45.36 0
    endloop
  endfacet
  facet normal 0 0 -1
    outer loop
      vertex 59 -53 0
      vertex 32 -45.36 0
      vertex 34.6 -45.36 0
    endloop
  endfacet
  facet normal 0 0 -1
    outer loop
      vertex 32 -45.36 0
      vertex 29.6 -45.36 0
      vertex 32 -10.64 0
    endloop
  endfacet
  facet normal 0 0 -1
    outer loop
      vertex 6 -53 0
      vertex 32 -45.36 0
      vertex 59 -53 0
    endloop
  endfacet
  facet normal -0 0 -1
    outer loop
      vertex 32 -45.36 0
      vertex 6 -53 0
      vertex 29.6 -45.36 0
    endloop
  endfacet
  facet normal 0 0 -1
    outer loop
      vertex 27 -45.36 0
      vertex 24.6 -45.36 0
      vertex 27 -10.64 0
    endloop
  endfacet
  facet normal -0 0 -1
    outer loop
      vertex 29.6 -45.36 0
      vertex 6 -53 0
      vertex 27 -45.36 0
    endloop
  endfacet
  facet normal -0 0 -1
    outer loop
      vertex 27 -45.36 0
      vertex 6 -53 0
      vertex 24.6 -45.36 0
    endloop
  endfacet
  facet normal 0 0 -1
    outer loop
      vertex 22 -45.36 0
      vertex 19.6 -45.36 0
      vertex 22 -10.64 0
    endloop
  endfacet
  facet normal -0 0 -1
    outer loop
      vertex 24.6 -45.36 0
      vertex 6 -53 0
      vertex 22 -45.36 0
    endloop
  endfacet
  facet normal -0 0 -1
    outer loop
      vertex 22 -45.36 0
      vertex 6 -53 0
      vertex 19.6 -45.36 0
    endloop
  endfacet
  facet normal 0 0 -1
    outer loop
      vertex 17 -45.36 0
      vertex 14.6 -45.36 0
      vertex 17 -10.64 0
    endloop
  endfacet
  facet normal -0 0 -1
    outer loop
      vertex 19.6 -45.36 0
      vertex 6 -53 0
      vertex 17 -45.36 0
    endloop
  endfacet
  facet normal -0 0 -1
    outer loop
      vertex 17 -45.36 0
      vertex 6 -53 0
      vertex 14.6 -45.36 0
    endloop
  endfacet
  facet normal 0 0 -1
    outer loop
      vertex -1.5 -53.6213 0
      vertex 12 -45.36 0
      vertex 6 -53 0
    endloop
  endfacet
  facet normal -0 0 -1
    outer loop
      vertex 14.6 -45.36 0
      vertex 6 -53 0
      vertex 12 -45.36 0
    endloop
  endfacet
  facet normal -0 0 -1
    outer loop
      vertex 86.5 -2.37868 0
      vertex 69.6 -10.64 0
      vertex 82.6213 1.5 0
    endloop
  endfacet
  facet normal 0 0 -1
    outer loop
      vertex 67 -10.64 0
      vertex 82.6213 1.5 0
      vertex 69.6 -10.64 0
    endloop
  endfacet
  facet normal 0 0 -1
    outer loop
      vertex 64.6 -10.64 0
      vertex 67 -10.64 0
      vertex 64.6 -45.36 0
    endloop
  endfacet
  facet normal 0 0 -1
    outer loop
      vertex 64.6 -10.64 0
      vertex 82.6213 1.5 0
      vertex 67 -10.64 0
    endloop
  endfacet
  facet normal 0 0 -1
    outer loop
      vertex 62 -10.64 0
      vertex 82.6213 1.5 0
      vertex 64.6 -10.64 0
    endloop
  endfacet
  facet normal 0 0 -1
    outer loop
      vertex 59.6 -10.64 0
      vertex 62 -10.64 0
      vertex 59.6 -45.36 0
    endloop
  endfacet
  facet normal 0 0 -1
    outer loop
      vertex 59.6 -10.64 0
      vertex 82.6213 1.5 0
      vertex 62 -10.64 0
    endloop
  endfacet
  facet normal 0 0 -1
    outer loop
      vertex 57 -10.64 0
      vertex 82.6213 1.5 0
      vertex 59.6 -10.64 0
    endloop
  endfacet
  facet normal 0 0 -1
    outer loop
      vertex 54.6 -10.64 0
      vertex 57 -10.64 0
      vertex 54.6 -45.36 0
    endloop
  endfacet
  facet normal 0 0 -1
    outer loop
      vertex 54.6 -10.64 0
      vertex 82.6213 1.5 0
      vertex 57 -10.64 0
    endloop
  endfacet
  facet normal 0 0 -1
    outer loop
      vertex 52 -10.64 0
      vertex 82.6213 1.5 0
      vertex 54.6 -10.64 0
    endloop
  endfacet
  facet normal 0 0 -1
    outer loop
      vertex 49.6 -10.64 0
      vertex 52 -10.64 0
      vertex 49.6 -45.36 0
    endloop
  endfacet
  facet normal 0 0 -1
    outer loop
      vertex 49.6 -10.64 0
      vertex 82.6213 1.5 0
      vertex 52 -10.64 0
    endloop
  endfacet
  facet normal 0 0 -1
    outer loop
      vertex 47 -10.64 0
      vertex 82.6213 1.5 0
      vertex 49.6 -10.64 0
    endloop
  endfacet
  facet normal 0 0 -1
    outer loop
      vertex 44.6 -10.64 0
      vertex 47 -10.64 0
      vertex 44.6 -45.36 0
    endloop
  endfacet
  facet normal 0 0 -1
    outer loop
      vertex 44.6 -10.64 0
      vertex 82.6213 1.5 0
      vertex 47 -10.64 0
    endloop
  endfacet
  facet normal 0 0 -1
    outer loop
      vertex 42 -10.64 0
      vertex 82.6213 1.5 0
      vertex 44.6 -10.64 0
    endloop
  endfacet
  facet normal 0 0 -1
    outer loop
      vertex 39.6 -10.64 0
      vertex 42 -10.64 0
      vertex 39.6 -45.36 0
    endloop
  endfacet
  facet normal 0 0 -1
    outer loop
      vertex 2.37868 1.5 0
      vertex 42 -10.64 0
      vertex 39.6 -10.64 0
    endloop
  endfacet
  facet normal 0 0 -1
    outer loop
      vertex 2.37868 1.5 0
      vertex 39.6 -10.64 0
      vertex 37 -10.64 0
    endloop
  endfacet
  facet normal 0 0 -1
    outer loop
      vertex 34.6 -10.64 0
      vertex 37 -10.64 0
      vertex 34.6 -45.36 0
    endloop
  endfacet
  facet normal 0 0 -1
    outer loop
      vertex 2.37868 1.5 0
      vertex 37 -10.64 0
      vertex 34.6 -10.64 0
    endloop
  endfacet
  facet normal 0 0 -1
    outer loop
      vertex 2.37868 1.5 0
      vertex 34.6 -10.64 0
      vertex 32 -10.64 0
    endloop
  endfacet
  facet normal 0 0 -1
    outer loop
      vertex 29.6 -10.64 0
      vertex 32 -10.64 0
      vertex 29.6 -45.36 0
    endloop
  endfacet
  facet normal 0 0 -1
    outer loop
      vertex 2.37868 1.5 0
      vertex 32 -10.64 0
      vertex 29.6 -10.64 0
    endloop
  endfacet
  facet normal 0 0 -1
    outer loop
      vertex 2.37868 1.5 0
      vertex 29.6 -10.64 0
      vertex 27 -10.64 0
    endloop
  endfacet
  facet normal 0 0 -1
    outer loop
      vertex 24.6 -10.64 0
      vertex 27 -10.64 0
      vertex 24.6 -45.36 0
    endloop
  endfacet
  facet normal 0 0 -1
    outer loop
      vertex 2.37868 1.5 0
      vertex 27 -10.64 0
      vertex 24.6 -10.64 0
    endloop
  endfacet
  facet normal 0 0 -1
    outer loop
      vertex 2.37868 1.5 0
      vertex 24.6 -10.64 0
      vertex 22 -10.64 0
    endloop
  endfacet
  facet normal 0 0 -1
    outer loop
      vertex 19.6 -10.64 0
      vertex 22 -10.64 0
      vertex 19.6 -45.36 0
    endloop
  endfacet
  facet normal 0 0 -1
    outer loop
      vertex 2.37868 1.5 0
      vertex 22 -10.64 0
      vertex 19.6 -10.64 0
    endloop
  endfacet
  facet normal 0 0 -1
    outer loop
      vertex 2.37868 1.5 0
      vertex 19.6 -10.64 0
      vertex 17 -10.64 0
    endloop
  endfacet
  facet normal 0 0 -1
    outer loop
      vertex 14.6 -10.64 0
      vertex 17 -10.64 0
      vertex 14.6 -45.36 0
    endloop
  endfacet
  facet normal 0 0 -1
    outer loop
      vertex 2.37868 1.5 0
      vertex 17 -10.64 0
      vertex 14.6 -10.64 0
    endloop
  endfacet
  facet normal 0 0 -1
    outer loop
      vertex 2.37868 1.5 0
      vertex 14.6 -10.64 0
      vertex 12 -10.64 0
    endloop
  endfacet
  facet normal 0 0 -1
    outer loop
      vertex -1.5 -53.6213 0
      vertex 6 -53 0
      vertex 2.37868 -57.5 0
    endloop
  endfacet
  facet normal 0 0 -1
    outer loop
      vertex 42 -10.64 0
      vertex 2.37868 1.5 0
      vertex 82.6213 1.5 0
    endloop
  endfacet
  facet normal -0 0 -1
    outer loop
      vertex 12 -45.36 0
      vertex -1.5 -53.6213 0
      vertex 12 -10.64 0
    endloop
  endfacet
  facet normal 0 0 -1
    outer loop
      vertex -1.5 -2.37868 0
      vertex 12 -10.64 0
      vertex -1.5 -53.6213 0
    endloop
  endfacet
  facet normal 0 0 -1
    outer loop
      vertex 12 -10.64 0
      vertex -1.5 -2.37868 0
      vertex 2.37868 1.5 0
    endloop
  endfacet
  facet normal 0.498203 0.498206 -0.709636
    outer loop
      vertex 86.5 -2.37868 0
      vertex 83.2012 2.89999 1.39
      vertex 87.9 -1.79878 1.39
    endloop
  endfacet
  facet normal 0.498204 0.498207 -0.709635
    outer loop
      vertex 83.2012 2.89999 1.39
      vertex 86.5 -2.37868 0
      vertex 82.6213 1.5 0
    endloop
  endfacet
  facet normal 0.498205 -0.498205 -0.709637
    outer loop
      vertex 83.2012 -58.9 1.39
      vertex 86.5 -53.6213 0
      vertex 87.9 -54.2012 1.39
    endloop
  endfacet
  facet normal 0.498205 -0.498205 -0.709637
    outer loop
      vertex 86.5 -53.6213 0
      vertex 83.2012 -58.9 1.39
      vertex 82.6213 -57.5 0
    endloop
  endfacet
  facet normal 0 0.70457 -0.709634
    outer loop
      vertex 2.37868 1.5 0
      vertex 83.2012 2.89999 1.39
      vertex 82.6213 1.5 0
    endloop
  endfacet
  facet normal 0 0.70457 -0.709634
    outer loop
      vertex 83.2012 2.89999 1.39
      vertex 2.37868 1.5 0
      vertex 1.79878 2.89999 1.39
    endloop
  endfacet
  facet normal -0.498206 0.498206 -0.709635
    outer loop
      vertex -1.5 -2.37868 0
      vertex 1.79878 2.89999 1.39
      vertex 2.37868 1.5 0
    endloop
  endfacet
  facet normal -0.498206 0.498206 -0.709635
    outer loop
      vertex 1.79878 2.89999 1.39
      vertex -1.5 -2.37868 0
      vertex -2.89999 -1.79878 1.39
    endloop
  endfacet
  facet normal -0.498206 -0.498204 -0.709636
    outer loop
      vertex 1.79878 -58.9 1.39
      vertex -1.5 -53.6213 0
      vertex 2.37868 -57.5 0
    endloop
  endfacet
  facet normal -0.498207 -0.498204 -0.709636
    outer loop
      vertex -1.5 -53.6213 0
      vertex 1.79878 -58.9 1.39
      vertex -2.89999 -54.2012 1.39
    endloop
  endfacet
  facet normal 1 -0 0
    outer loop
      vertex 12 -45.36 2.4
      vertex 12 -10.64 0
      vertex 12 -10.64 2.4
    endloop
  endfacet
  facet normal 1 0 0
    outer loop
      vertex 12 -10.64 0
      vertex 12 -45.36 2.4
      vertex 12 -45.36 0
    endloop
  endfacet
  facet normal -1 0 0
    outer loop
      vertex 14.6 -45.36 0
      vertex 14.6 -10.64 2.4
      vertex 14.6 -10.64 0
    endloop
  endfacet
  facet normal -1 -0 0
    outer loop
      vertex 14.6 -10.64 2.4
      vertex 14.6 -45.36 0
      vertex 14.6 -45.36 2.4
    endloop
  endfacet
  facet normal 0 -1 0
    outer loop
      vertex 12 -10.64 0
      vertex 14.6 -10.64 2.4
      vertex 12 -10.64 2.4
    endloop
  endfacet
  facet normal 0 -1 -0
    outer loop
      vertex 14.6 -10.64 2.4
      vertex 12 -10.64 0
      vertex 14.6 -10.64 0
    endloop
  endfacet
  facet normal 0 1 -0
    outer loop
      vertex 14.6 -45.36 0
      vertex 12 -45.36 2.4
      vertex 14.6 -45.36 2.4
    endloop
  endfacet
  facet normal 0 1 0
    outer loop
      vertex 12 -45.36 2.4
      vertex 14.6 -45.36 0
      vertex 12 -45.36 0
    endloop
  endfacet
  facet normal 1 -0 0
    outer loop
      vertex 17 -45.36 2.4
      vertex 17 -10.64 0
      vertex 17 -10.64 2.4
    endloop
  endfacet
  facet normal 1 0 0
    outer loop
      vertex 17 -10.64 0
      vertex 17 -45.36 2.4
      vertex 17 -45.36 0
    endloop
  endfacet
  facet normal -1 0 0
    outer loop
      vertex 19.6 -45.36 0
      vertex 19.6 -10.64 2.4
      vertex 19.6 -10.64 0
    endloop
  endfacet
  facet normal -1 -0 0
    outer loop
      vertex 19.6 -10.64 2.4
      vertex 19.6 -45.36 0
      vertex 19.6 -45.36 2.4
    endloop
  endfacet
  facet normal 0 -1 0
    outer loop
      vertex 17 -10.64 0
      vertex 19.6 -10.64 2.4
      vertex 17 -10.64 2.4
    endloop
  endfacet
  facet normal 0 -1 -0
    outer loop
      vertex 19.6 -10.64 2.4
      vertex 17 -10.64 0
      vertex 19.6 -10.64 0
    endloop
  endfacet
  facet normal 0 1 -0
    outer loop
      vertex 19.6 -45.36 0
      vertex 17 -45.36 2.4
      vertex 19.6 -45.36 2.4
    endloop
  endfacet
  facet normal 0 1 0
    outer loop
      vertex 17 -45.36 2.4
      vertex 19.6 -45.36 0
      vertex 17 -45.36 0
    endloop
  endfacet
  facet normal 1 -0 0
    outer loop
      vertex 22 -45.36 2.4
      vertex 22 -10.64 0
      vertex 22 -10.64 2.4
    endloop
  endfacet
  facet normal 1 0 0
    outer loop
      vertex 22 -10.64 0
      vertex 22 -45.36 2.4
      vertex 22 -45.36 0
    endloop
  endfacet
  facet normal -1 0 0
    outer loop
      vertex 24.6 -45.36 0
      vertex 24.6 -10.64 2.4
      vertex 24.6 -10.64 0
    endloop
  endfacet
  facet normal -1 -0 0
    outer loop
      vertex 24.6 -10.64 2.4
      vertex 24.6 -45.36 0
      vertex 24.6 -45.36 2.4
    endloop
  endfacet
  facet normal 0 -1 0
    outer loop
      vertex 22 -10.64 0
      vertex 24.6 -10.64 2.4
      vertex 22 -10.64 2.4
    endloop
  endfacet
  facet normal 0 -1 -0
    outer loop
      vertex 24.6 -10.64 2.4
      vertex 22 -10.64 0
      vertex 24.6 -10.64 0
    endloop
  endfacet
  facet normal 0 1 -0
    outer loop
      vertex 24.6 -45.36 0
      vertex 22 -45.36 2.4
      vertex 24.6 -45.36 2.4
    endloop
  endfacet
  facet normal 0 1 0
    outer loop
      vertex 22 -45.36 2.4
      vertex 24.6 -45.36 0
      vertex 22 -45.36 0
    endloop
  endfacet
  facet normal 1 -0 0
    outer loop
      vertex 27 -45.36 2.4
      vertex 27 -10.64 0
      vertex 27 -10.64 2.4
    endloop
  endfacet
  facet normal 1 0 0
    outer loop
      vertex 27 -10.64 0
      vertex 27 -45.36 2.4
      vertex 27 -45.36 0
    endloop
  endfacet
  facet normal -1 0 0
    outer loop
      vertex 29.6 -45.36 0
      vertex 29.6 -10.64 2.4
      vertex 29.6 -10.64 0
    endloop
  endfacet
  facet normal -1 -0 0
    outer loop
      vertex 29.6 -10.64 2.4
      vertex 29.6 -45.36 0
      vertex 29.6 -45.36 2.4
    endloop
  endfacet
  facet normal 0 1 -0
    outer loop
      vertex 29.6 -45.36 0
      vertex 27 -45.36 2.4
      vertex 29.6 -45.36 2.4
    endloop
  endfacet
  facet normal 0 1 0
    outer loop
      vertex 27 -45.36 2.4
      vertex 29.6 -45.36 0
      vertex 27 -45.36 0
    endloop
  endfacet
  facet normal 0 -1 0
    outer loop
      vertex 27 -10.64 0
      vertex 29.6 -10.64 2.4
      vertex 27 -10.64 2.4
    endloop
  endfacet
  facet normal 0 -1 -0
    outer loop
      vertex 29.6 -10.64 2.4
      vertex 27 -10.64 0
      vertex 29.6 -10.64 0
    endloop
  endfacet
  facet normal 1 -0 0
    outer loop
      vertex 32 -45.36 2.4
      vertex 32 -10.64 0
      vertex 32 -10.64 2.4
    endloop
  endfacet
  facet normal 1 0 0
    outer loop
      vertex 32 -10.64 0
      vertex 32 -45.36 2.4
      vertex 32 -45.36 0
    endloop
  endfacet
  facet normal -1 0 0
    outer loop
      vertex 34.6 -45.36 0
      vertex 34.6 -10.64 2.4
      vertex 34.6 -10.64 0
    endloop
  endfacet
  facet normal -1 -0 0
    outer loop
      vertex 34.6 -10.64 2.4
      vertex 34.6 -45.36 0
      vertex 34.6 -45.36 2.4
    endloop
  endfacet
  facet normal 0 1 -0
    outer loop
      vertex 34.6 -45.36 0
      vertex 32 -45.36 2.4
      vertex 34.6 -45.36 2.4
    endloop
  endfacet
  facet normal 0 1 0
    outer loop
      vertex 32 -45.36 2.4
      vertex 34.6 -45.36 0
      vertex 32 -45.36 0
    endloop
  endfacet
  facet normal 0 -1 0
    outer loop
      vertex 32 -10.64 0
      vertex 34.6 -10.64 2.4
      vertex 32 -10.64 2.4
    endloop
  endfacet
  facet normal 0 -1 -0
    outer loop
      vertex 34.6 -10.64 2.4
      vertex 32 -10.64 0
      vertex 34.6 -10.64 0
    endloop
  endfacet
  facet normal 1 -0 0
    outer loop
      vertex 37 -45.36 2.4
      vertex 37 -10.64 0
      vertex 37 -10.64 2.4
    endloop
  endfacet
  facet normal 1 0 0
    outer loop
      vertex 37 -10.64 0
      vertex 37 -45.36 2.4
      vertex 37 -45.36 0
    endloop
  endfacet
  facet normal -1 0 0
    outer loop
      vertex 39.6 -45.36 0
      vertex 39.6 -10.64 2.4
      vertex 39.6 -10.64 0
    endloop
  endfacet
  facet normal -1 -0 0
    outer loop
      vertex 39.6 -10.64 2.4
      vertex 39.6 -45.36 0
      vertex 39.6 -45.36 2.4
    endloop
  endfacet
  facet normal 0 -1 0
    outer loop
      vertex 37 -10.64 0
      vertex 39.6 -10.64 2.4
      vertex 37 -10.64 2.4
    endloop
  endfacet
  facet normal 0 -1 -0
    outer loop
      vertex 39.6 -10.64 2.4
      vertex 37 -10.64 0
      vertex 39.6 -10.64 0
    endloop
  endfacet
  facet normal 0 1 -0
    outer loop
      vertex 39.6 -45.36 0
      vertex 37 -45.36 2.4
      vertex 39.6 -45.36 2.4
    endloop
  endfacet
  facet normal 0 1 0
    outer loop
      vertex 37 -45.36 2.4
      vertex 39.6 -45.36 0
      vertex 37 -45.36 0
    endloop
  endfacet
  facet normal 1 -0 0
    outer loop
      vertex 42 -45.36 2.4
      vertex 42 -10.64 0
      vertex 42 -10.64 2.4
    endloop
  endfacet
  facet normal 1 0 0
    outer loop
      vertex 42 -10.64 0
      vertex 42 -45.36 2.4
      vertex 42 -45.36 0
    endloop
  endfacet
  facet normal -1 0 0
    outer loop
      vertex 44.6 -45.36 0
      vertex 44.6 -10.64 2.4
      vertex 44.6 -10.64 0
    endloop
  endfacet
  facet normal -1 -0 0
    outer loop
      vertex 44.6 -10.64 2.4
      vertex 44.6 -45.36 0
      vertex 44.6 -45.36 2.4
    endloop
  endfacet
  facet normal 0 -1 0
    outer loop
      vertex 42 -10.64 0
      vertex 44.6 -10.64 2.4
      vertex 42 -10.64 2.4
    endloop
  endfacet
  facet normal 0 -1 -0
    outer loop
      vertex 44.6 -10.64 2.4
      vertex 42 -10.64 0
      vertex 44.6 -10.64 0
    endloop
  endfacet
  facet normal 0 1 -0
    outer loop
      vertex 44.6 -45.36 0
      vertex 42 -45.36 2.4
      vertex 44.6 -45.36 2.4
    endloop
  endfacet
  facet normal 0 1 0
    outer loop
      vertex 42 -45.36 2.4
      vertex 44.6 -45.36 0
      vertex 42 -45.36 0
    endloop
  endfacet
  facet normal 1 -0 0
    outer loop
      vertex 47 -45.36 2.4
      vertex 47 -10.64 0
      vertex 47 -10.64 2.4
    endloop
  endfacet
  facet normal 1 0 0
    outer loop
      vertex 47 -10.64 0
      vertex 47 -45.36 2.4
      vertex 47 -45.36 0
    endloop
  endfacet
  facet normal -1 0 0
    outer loop
      vertex 49.6 -45.36 0
      vertex 49.6 -10.64 2.4
      vertex 49.6 -10.64 0
    endloop
  endfacet
  facet normal -1 -0 0
    outer loop
      vertex 49.6 -10.64 2.4
      vertex 49.6 -45.36 0
      vertex 49.6 -45.36 2.4
    endloop
  endfacet
  facet normal 0 -1 0
    outer loop
      vertex 47 -10.64 0
      vertex 49.6 -10.64 2.4
      vertex 47 -10.64 2.4
    endloop
  endfacet
  facet normal 0 -1 -0
    outer loop
      vertex 49.6 -10.64 2.4
      vertex 47 -10.64 0
      vertex 49.6 -10.64 0
    endloop
  endfacet
  facet normal 0 1 -0
    outer loop
      vertex 49.6 -45.36 0
      vertex 47 -45.36 2.4
      vertex 49.6 -45.36 2.4
    endloop
  endfacet
  facet normal 0 1 0
    outer loop
      vertex 47 -45.36 2.4
      vertex 49.6 -45.36 0
      vertex 47 -45.36 0
    endloop
  endfacet
  facet normal 1 -0 0
    outer loop
      vertex 52 -45.36 2.4
      vertex 52 -10.64 0
      vertex 52 -10.64 2.4
    endloop
  endfacet
  facet normal 1 0 0
    outer loop
      vertex 52 -10.64 0
      vertex 52 -45.36 2.4
      vertex 52 -45.36 0
    endloop
  endfacet
  facet normal -1 0 0
    outer loop
      vertex 54.6 -45.36 0
      vertex 54.6 -10.64 2.4
      vertex 54.6 -10.64 0
    endloop
  endfacet
  facet normal -1 -0 0
    outer loop
      vertex 54.6 -10.64 2.4
      vertex 54.6 -45.36 0
      vertex 54.6 -45.36 2.4
    endloop
  endfacet
  facet normal 0 1 -0
    outer loop
      vertex 54.6 -45.36 0
      vertex 52 -45.36 2.4
      vertex 54.6 -45.36 2.4
    endloop
  endfacet
  facet normal 0 1 0
    outer loop
      vertex 52 -45.36 2.4
      vertex 54.6 -45.36 0
      vertex 52 -45.36 0
    endloop
  endfacet
  facet normal 0 -1 0
    outer loop
      vertex 52 -10.64 0
      vertex 54.6 -10.64 2.4
      vertex 52 -10.64 2.4
    endloop
  endfacet
  facet normal 0 -1 -0
    outer loop
      vertex 54.6 -10.64 2.4
      vertex 52 -10.64 0
      vertex 54.6 -10.64 0
    endloop
  endfacet
  facet normal 1 -0 0
    outer loop
      vertex 57 -45.36 2.4
      vertex 57 -10.64 0
      vertex 57 -10.64 2.4
    endloop
  endfacet
  facet normal 1 0 0
    outer loop
      vertex 57 -10.64 0
      vertex 57 -45.36 2.4
      vertex 57 -45.36 0
    endloop
  endfacet
  facet normal -1 0 0
    outer loop
      vertex 59.6 -45.36 0
      vertex 59.6 -10.64 2.4
      vertex 59.6 -10.64 0
    endloop
  endfacet
  facet normal -1 -0 0
    outer loop
      vertex 59.6 -10.64 2.4
      vertex 59.6 -45.36 0
      vertex 59.6 -45.36 2.4
    endloop
  endfacet
  facet normal 0 -1 0
    outer loop
      vertex 57 -10.64 0
      vertex 59.6 -10.64 2.4
      vertex 57 -10.64 2.4
    endloop
  endfacet
  facet normal 0 -1 -0
    outer loop
      vertex 59.6 -10.64 2.4
      vertex 57 -10.64 0
      vertex 59.6 -10.64 0
    endloop
  endfacet
  facet normal 0 1 -0
    outer loop
      vertex 59.6 -45.36 0
      vertex 57 -45.36 2.4
      vertex 59.6 -45.36 2.4
    endloop
  endfacet
  facet normal 0 1 0
    outer loop
      vertex 57 -45.36 2.4
      vertex 59.6 -45.36 0
      vertex 57 -45.36 0
    endloop
  endfacet
  facet normal 1 -0 0
    outer loop
      vertex 62 -45.36 2.4
      vertex 62 -10.64 0
      vertex 62 -10.64 2.4
    endloop
  endfacet
  facet normal 1 0 0
    outer loop
      vertex 62 -10.64 0
      vertex 62 -45.36 2.4
      vertex 62 -45.36 0
    endloop
  endfacet
  facet normal -1 0 0
    outer loop
      vertex 64.6 -45.36 0
      vertex 64.6 -10.64 2.4
      vertex 64.6 -10.64 0
    endloop
  endfacet
  facet normal -1 -0 0
    outer loop
      vertex 64.6 -10.64 2.4
      vertex 64.6 -45.36 0
      vertex 64.6 -45.36 2.4
    endloop
  endfacet
  facet normal 0 1 -0
    outer loop
      vertex 64.6 -45.36 0
      vertex 62 -45.36 2.4
      vertex 64.6 -45.36 2.4
    endloop
  endfacet
  facet normal 0 1 0
    outer loop
      vertex 62 -45.36 2.4
      vertex 64.6 -45.36 0
      vertex 62 -45.36 0
    endloop
  endfacet
  facet normal 0 -1 0
    outer loop
      vertex 62 -10.64 0
      vertex 64.6 -10.64 2.4
      vertex 62 -10.64 2.4
    endloop
  endfacet
  facet normal 0 -1 -0
    outer loop
      vertex 64.6 -10.64 2.4
      vertex 62 -10.64 0
      vertex 64.6 -10.64 0
    endloop
  endfacet
  facet normal 1 -0 0
    outer loop
      vertex 67 -45.36 2.4
      vertex 67 -10.64 0
      vertex 67 -10.64 2.4
    endloop
  endfacet
  facet normal 1 0 0
    outer loop
      vertex 67 -10.64 0
      vertex 67 -45.36 2.4
      vertex 67 -45.36 0
    endloop
  endfacet
  facet normal -1 0 0
    outer loop
      vertex 69.6 -45.36 0
      vertex 69.6 -10.64 2.4
      vertex 69.6 -10.64 0
    endloop
  endfacet
  facet normal -1 -0 0
    outer loop
      vertex 69.6 -10.64 2.4
      vertex 69.6 -45.36 0
      vertex 69.6 -45.36 2.4
    endloop
  endfacet
  facet normal 0 1 -0
    outer loop
      vertex 69.6 -45.36 0
      vertex 67 -45.36 2.4
      vertex 69.6 -45.36 2.4
    endloop
  endfacet
  facet normal 0 1 0
    outer loop
      vertex 67 -45.36 2.4
      vertex 69.6 -45.36 0
      vertex 67 -45.36 0
    endloop
  endfacet
  facet normal 0 -1 0
    outer loop
      vertex 67 -10.64 0
      vertex 69.6 -10.64 2.4
      vertex 67 -10.64 2.4
    endloop
  endfacet
  facet normal 0 -1 -0
    outer loop
      vertex 69.6 -10.64 2.4
      vertex 67 -10.64 0
      vertex 69.6 -10.64 0
    endloop
  endfacet
  facet normal 1 -0 0
    outer loop
      vertex 6 -55 2.4
      vertex 6 -53 0
      vertex 6 -53 2.4
    endloop
  endfacet
  facet normal 1 0 0
    outer loop
      vertex 6 -56.8 2.4
      vertex 6 -55 2.4
      vertex 6 -56.8 2.5
    endloop
  endfacet
  facet normal 1 0 0
    outer loop
      vertex 6 -57.5 0
      vertex 6 -55 2.4
      vertex 6 -56.8 2.4
    endloop
  endfacet
  facet normal 1 0 0
    outer loop
      vertex 6 -55 2.4
      vertex 6 -57.5 0
      vertex 6 -53 0
    endloop
  endfacet
  facet normal 1 0 0
    outer loop
      vertex 6 -58.9 1.39
      vertex 6 -56.8 2.4
      vertex 6 -58.9 2.4
    endloop
  endfacet
  facet normal 1 0 0
    outer loop
      vertex 6 -56.8 2.4
      vertex 6 -58.9 1.39
      vertex 6 -57.5 0
    endloop
  endfacet
  facet normal 1 0 0
    outer loop
      vertex 6 -55 2.5
      vertex 6 -56.8 2.5
      vertex 6 -55 2.4
    endloop
  endfacet
  facet normal -1 0 0
    outer loop
      vertex 59 -53 0
      vertex 59 -55 2.4
      vertex 59 -53 2.4
    endloop
  endfacet
  facet normal -1 0 0
    outer loop
      vertex 59 -55 2.4
      vertex 59 -56.8 2.4
      vertex 59 -55 2.5
    endloop
  endfacet
  facet normal -1 0 0
    outer loop
      vertex 59 -57.5 0
      vertex 59 -55 2.4
      vertex 59 -53 0
    endloop
  endfacet
  facet normal -1 -0 0
    outer loop
      vertex 59 -55 2.4
      vertex 59 -57.5 0
      vertex 59 -56.8 2.4
    endloop
  endfacet
  facet normal -1 0 0
    outer loop
      vertex 59 -58.9 1.39
      vertex 59 -56.8 2.4
      vertex 59 -57.5 0
    endloop
  endfacet
  facet normal -1 -0 0
    outer loop
      vertex 59 -56.8 2.4
      vertex 59 -58.9 1.39
      vertex 59 -58.9 2.4
    endloop
  endfacet
  facet normal -1 -0 0
    outer loop
      vertex 59 -55 2.5
      vertex 59 -56.8 2.4
      vertex 59 -56.8 2.5
    endloop
  endfacet
  facet normal 0 0 -1
    outer loop
      vertex 6 -56.8 2.5
      vertex 59 -55 2.5
      vertex 59 -56.8 2.5
    endloop
  endfacet
  facet normal -0 0 -1
    outer loop
      vertex 59 -55 2.5
      vertex 6 -56.8 2.5
      vertex 6 -55 2.5
    endloop
  endfacet
  facet normal 0 -1 0
    outer loop
      vertex 6 -53 0
      vertex 59 -53 2.4
      vertex 6 -53 2.4
    endloop
  endfacet
  facet normal 0 -1 -0
    outer loop
      vertex 59 -53 2.4
      vertex 6 -53 0
      vertex 59 -53 0
    endloop
  endfacet
endsolid OpenSCAD_Model
